<svg width="27" height="29" viewBox="0 0 27 29" fill="none" xmlns="http://www.w3.org/2000/svg">
<path fill-rule="evenodd" clip-rule="evenodd" d="M13.5 3.72856C10.3369 3.72856 7.7727 6.29275 7.7727 9.45584V10.167C7.19226 10.2643 6.74998 10.7692 6.74998 11.3773V12.8584C6.74998 13.4752 7.20486 13.9856 7.79742 14.0726C7.98795 16.1269 9.26344 17.8666 11.0454 18.7131V20.633C6.70004 20.9487 3.27271 24.5741 3.27271 29H23.7272C23.7272 24.5741 20.2999 20.9487 15.9545 20.633V18.7131C17.7365 17.8666 19.012 16.1269 19.2025 14.0726C19.7951 13.9856 20.25 13.4752 20.25 12.8584V11.3773C20.25 10.7692 19.8077 10.2643 19.2272 10.167V9.45584C19.2272 6.29275 16.6631 3.72856 13.5 3.72856Z" fill="#D0C6AC"/>
<mask id="mask0" mask-type="alpha" maskUnits="userSpaceOnUse" x="3" y="3" width="21" height="26">
<path fill-rule="evenodd" clip-rule="evenodd" d="M13.5 3.72856C10.3369 3.72856 7.7727 6.29275 7.7727 9.45584V10.167C7.19226 10.2643 6.74998 10.7692 6.74998 11.3773V12.8584C6.74998 13.4752 7.20486 13.9856 7.79742 14.0726C7.98795 16.1269 9.26344 17.8666 11.0454 18.7131V20.633C6.70004 20.9487 3.27271 24.5741 3.27271 29H23.7272C23.7272 24.5741 20.2999 20.9487 15.9545 20.633V18.7131C17.7365 17.8666 19.012 16.1269 19.2025 14.0726C19.7951 13.9856 20.25 13.4752 20.25 12.8584V11.3773C20.25 10.7692 19.8077 10.2643 19.2272 10.167V9.45584C19.2272 6.29275 16.6631 3.72856 13.5 3.72856Z" fill="white"/>
</mask>
<g mask="url(#mask0)">
<rect y="3.72856" width="27" height="25.2714" fill="#EDB98A"/>
<path fill-rule="evenodd" clip-rule="evenodd" d="M7.77271 13.537V14.3656C7.77271 17.5287 10.3369 20.0929 13.5 20.0929C16.6631 20.0929 19.2273 17.5287 19.2273 14.3656V13.537C19.2273 16.7001 16.6631 19.2643 13.5 19.2643C10.3369 19.2643 7.77271 16.7001 7.77271 13.537Z" fill="black" fill-opacity="0.1"/>
</g>
<path fill-rule="evenodd" clip-rule="evenodd" d="M16.9773 20.9732C16.9773 22.203 15.4433 23.2 13.5511 23.2C11.6589 23.2 10.125 22.203 10.125 20.9732C10.125 20.8988 10.1306 20.8252 10.1416 20.7526C6.23446 21.4657 3.27271 24.887 3.27271 29H23.7272C23.7272 24.924 20.8185 21.5273 16.9635 20.7725C16.9726 20.8386 16.9773 20.9056 16.9773 20.9732Z" fill="#E6E6E6"/>
<mask id="mask1" mask-type="alpha" maskUnits="userSpaceOnUse" x="3" y="20" width="21" height="9">
<path fill-rule="evenodd" clip-rule="evenodd" d="M16.9773 20.9732C16.9773 22.203 15.4433 23.2 13.5511 23.2C11.6589 23.2 10.125 22.203 10.125 20.9732C10.125 20.8988 10.1306 20.8252 10.1416 20.7526C6.23446 21.4657 3.27271 24.887 3.27271 29H23.7272C23.7272 24.924 20.8185 21.5273 16.9635 20.7725C16.9726 20.8386 16.9773 20.9056 16.9773 20.9732Z" fill="white"/>
</mask>
<g mask="url(#mask1)">
<rect y="17.6071" width="27" height="11.3929" fill="#262E33"/>
</g>
<mask id="mask2" mask-type="alpha" maskUnits="userSpaceOnUse" x="0" y="0" width="27" height="29">
<rect width="27" height="29" fill="white"/>
</mask>
<g mask="url(#mask2)">
<path fill-rule="evenodd" clip-rule="evenodd" d="M15.9546 20.6107V18.7061C17.7475 17.8436 19.0277 16.0655 19.206 13.9684C19.7969 13.8788 20.2501 13.3626 20.2501 12.7393V11.3929C20.2501 10.912 19.9804 10.495 19.586 10.2883C19.5066 10.259 19.4272 10.2276 19.348 10.1941C19.3086 10.1832 19.2683 10.1741 19.2273 10.1672V10.1414C17.9207 9.55278 16.658 8.39659 15.7614 6.82379C15.4612 6.29725 15.2214 5.75807 15.0409 5.2197C14.1578 6.31174 12.8603 7.41597 11.285 8.33702C10.3069 8.90891 9.3219 9.35157 8.38643 9.65969V16.079C8.95931 17.2258 9.89727 18.1537 11.0455 18.7061V20.6107H10.6364C9.85171 20.6107 9.09566 20.735 8.38643 20.9653V25.6857C8.38643 27.1467 7.31964 28.3553 5.93188 28.5564V22.3308V9.52857C5.93188 5.29571 9.32028 1.86429 13.5001 1.86429C17.6799 1.86429 21.0682 5.29571 21.0682 9.52857V10.5796V22.3308C19.7924 21.2567 18.1525 20.6107 16.3637 20.6107H15.9546Z" fill="#D66620"/>
<mask id="mask3" mask-type="alpha" maskUnits="userSpaceOnUse" x="5" y="1" width="17" height="28">
<path fill-rule="evenodd" clip-rule="evenodd" d="M15.9546 20.6107V18.7061C17.7475 17.8436 19.0277 16.0655 19.206 13.9684C19.7969 13.8788 20.2501 13.3626 20.2501 12.7393V11.3929C20.2501 10.912 19.9804 10.495 19.586 10.2883C19.5066 10.259 19.4272 10.2276 19.348 10.1941C19.3086 10.1832 19.2683 10.1741 19.2273 10.1672V10.1414C17.9207 9.55278 16.658 8.39659 15.7614 6.82379C15.4612 6.29725 15.2214 5.75807 15.0409 5.2197C14.1578 6.31174 12.8603 7.41597 11.285 8.33702C10.3069 8.90891 9.3219 9.35157 8.38643 9.65969V16.079C8.95931 17.2258 9.89727 18.1537 11.0455 18.7061V20.6107H10.6364C9.85171 20.6107 9.09566 20.735 8.38643 20.9653V25.6857C8.38643 27.1467 7.31964 28.3553 5.93188 28.5564V22.3308V9.52857C5.93188 5.29571 9.32028 1.86429 13.5001 1.86429C17.6799 1.86429 21.0682 5.29571 21.0682 9.52857V10.5796V22.3308C19.7924 21.2567 18.1525 20.6107 16.3637 20.6107H15.9546Z" fill="white"/>
</mask>
<g mask="url(#mask3)">
<rect width="27" height="29" fill="#A52828"/>
</g>
<path fill-rule="evenodd" clip-rule="evenodd" d="M15.9544 20.6107V18.7061C17.7473 17.8436 19.0275 16.0655 19.2058 13.9684C19.7967 13.8788 20.2499 13.3626 20.2499 12.7393V11.3929C20.2499 10.912 19.9802 10.495 19.5858 10.2883C20.0836 10.4719 20.5836 10.5717 21.068 10.5796V22.3308C19.7922 21.2567 18.1523 20.6107 16.3635 20.6107H15.9544ZM8.38623 20.9653C9.09546 20.735 9.85151 20.6107 10.6362 20.6107H11.0453V18.7061C9.89707 18.1537 8.95911 17.2258 8.38623 16.079V20.9653ZM19.2271 10.1414V10.1672C19.2681 10.1741 19.3084 10.1832 19.3478 10.1941C19.3076 10.1771 19.2673 10.1595 19.2271 10.1414Z" fill="black" fill-opacity="0.24"/>
</g>
</svg>
