<svg width="27" height="29" viewBox="0 0 27 29" fill="none" xmlns="http://www.w3.org/2000/svg">
<path fill-rule="evenodd" clip-rule="evenodd" d="M13.5 3.72856C10.3369 3.72856 7.7727 6.29275 7.7727 9.45584V10.167C7.19226 10.2643 6.74998 10.7692 6.74998 11.3773V12.8584C6.74998 13.4752 7.20486 13.9856 7.79742 14.0726C7.98795 16.1269 9.26344 17.8666 11.0454 18.7131V20.633C6.70004 20.9487 3.27271 24.5741 3.27271 29H23.7272C23.7272 24.5741 20.2999 20.9487 15.9545 20.633V18.7131C17.7365 17.8666 19.012 16.1269 19.2025 14.0726C19.7951 13.9856 20.25 13.4752 20.25 12.8584V11.3773C20.25 10.7692 19.8077 10.2643 19.2272 10.167V9.45584C19.2272 6.29275 16.6631 3.72856 13.5 3.72856Z" fill="#D0C6AC"/>
<mask id="mask0" mask-type="alpha" maskUnits="userSpaceOnUse" x="3" y="3" width="21" height="26">
<path fill-rule="evenodd" clip-rule="evenodd" d="M13.5 3.72856C10.3369 3.72856 7.7727 6.29275 7.7727 9.45584V10.167C7.19226 10.2643 6.74998 10.7692 6.74998 11.3773V12.8584C6.74998 13.4752 7.20486 13.9856 7.79742 14.0726C7.98795 16.1269 9.26344 17.8666 11.0454 18.7131V20.633C6.70004 20.9487 3.27271 24.5741 3.27271 29H23.7272C23.7272 24.5741 20.2999 20.9487 15.9545 20.633V18.7131C17.7365 17.8666 19.012 16.1269 19.2025 14.0726C19.7951 13.9856 20.25 13.4752 20.25 12.8584V11.3773C20.25 10.7692 19.8077 10.2643 19.2272 10.167V9.45584C19.2272 6.29275 16.6631 3.72856 13.5 3.72856Z" fill="white"/>
</mask>
<g mask="url(#mask0)">
<rect y="3.72856" width="27" height="25.2714" fill="#EDB98A"/>
<path fill-rule="evenodd" clip-rule="evenodd" d="M7.77271 13.537V14.3656C7.77271 17.5287 10.3369 20.0929 13.5 20.0929C16.6631 20.0929 19.2273 17.5287 19.2273 14.3656V13.537C19.2273 16.7001 16.6631 19.2643 13.5 19.2643C10.3369 19.2643 7.77271 16.7001 7.77271 13.537Z" fill="black" fill-opacity="0.1"/>
</g>
<path fill-rule="evenodd" clip-rule="evenodd" d="M18.6136 21.3717C18.6136 23.058 16.3471 24.425 13.5511 24.425C10.7552 24.425 8.48861 23.058 8.48861 21.3717C8.48861 21.3253 8.49033 21.2791 8.49373 21.2332C5.43123 22.4816 3.27271 25.4887 3.27271 29H23.7272C23.7272 25.529 21.6179 22.5506 18.6112 21.2768C18.6128 21.3083 18.6136 21.34 18.6136 21.3717Z" fill="#E6E6E6"/>
<mask id="mask1" mask-type="alpha" maskUnits="userSpaceOnUse" x="3" y="21" width="21" height="8">
<path fill-rule="evenodd" clip-rule="evenodd" d="M18.6136 21.3717C18.6136 23.058 16.3471 24.425 13.5511 24.425C10.7552 24.425 8.48861 23.058 8.48861 21.3717C8.48861 21.3253 8.49033 21.2791 8.49373 21.2332C5.43123 22.4816 3.27271 25.4887 3.27271 29H23.7272C23.7272 25.529 21.6179 22.5506 18.6112 21.2768C18.6128 21.3083 18.6136 21.34 18.6136 21.3717Z" fill="white"/>
</mask>
<g mask="url(#mask1)">
<rect y="17.6071" width="27" height="11.3929" fill="#E6E6E6"/>
</g>
<mask id="mask2" mask-type="alpha" maskUnits="userSpaceOnUse" x="0" y="0" width="27" height="29">
<rect width="27" height="29" fill="white"/>
</mask>
<g mask="url(#mask2)">
<path fill-rule="evenodd" clip-rule="evenodd" d="M9.19539 5.73385H17.8042C19.6705 4.6435 20.0209 2.70849 18.7005 1.02804C18.3719 0.609701 17.8042 2.24496 16.0598 2.34594C14.3153 2.44691 14.4827 1.69337 12.6264 1.97551C10.77 2.25764 10.9751 3.76776 9.76371 4.13009C8.55236 4.49243 9.19539 5.73385 9.19539 5.73385Z" fill="#252E32"/>
<mask id="mask3" mask-type="alpha" maskUnits="userSpaceOnUse" x="9" y="0" width="11" height="6">
<path fill-rule="evenodd" clip-rule="evenodd" d="M9.19539 5.73385H17.8042C19.6705 4.6435 20.0209 2.70849 18.7005 1.02804C18.3719 0.609701 17.8042 2.24496 16.0598 2.34594C14.3153 2.44691 14.4827 1.69337 12.6264 1.97551C10.77 2.25764 10.9751 3.76776 9.76371 4.13009C8.55236 4.49243 9.19539 5.73385 9.19539 5.73385Z" fill="white"/>
</mask>
<g mask="url(#mask3)">
<rect width="27" height="29" fill="#724133"/>
</g>
<path fill-rule="evenodd" clip-rule="evenodd" d="M11.7867 10.3856C12.0293 10.388 12.1439 10.4288 12.1853 10.685C12.2271 10.9444 12.1864 11.2362 12.1381 11.4917C12.0645 11.882 11.9419 12.2644 11.6567 12.5496C11.5064 12.6998 11.3232 12.8195 11.1282 12.9013C11.0247 12.9447 10.9154 12.9761 10.8061 12.9999C10.7742 13.0068 10.5015 13.0448 10.6687 13.0255C10.2784 13.0706 9.85489 13.0688 9.52887 12.8172C9.16757 12.5384 8.92014 12.0971 8.81134 11.6576C8.74768 11.4004 8.61393 10.7854 8.85832 10.5797C9.13828 10.3441 11.7867 10.3856 11.7867 10.3856ZM9.32894 9.68295C8.77255 9.70235 8.40122 9.80136 8.12678 10.3643C7.62385 11.396 8.48468 12.9432 9.44497 13.3648C10.5676 13.8578 11.8218 13.3122 12.4153 12.3256C12.7296 11.8032 12.8885 11.012 12.8783 10.4093C12.8653 9.64007 12.3347 9.61873 11.711 9.63565L9.32894 9.68295Z" fill="#D6EAF2"/>
<path fill-rule="evenodd" clip-rule="evenodd" d="M15.2059 10.3854C14.9634 10.3877 14.8487 10.4285 14.8074 10.6847C14.7655 10.9442 14.8062 11.2359 14.8545 11.4915C14.9282 11.8817 15.0507 12.2641 15.336 12.5493C15.4862 12.6995 15.6695 12.8193 15.8644 12.9011C15.9679 12.9445 16.0772 12.9758 16.1865 12.9996C16.2185 13.0065 16.4911 13.0446 16.3239 13.0252C16.7143 13.0704 17.1378 13.0686 17.4638 12.817C17.8251 12.5381 18.0725 12.0969 18.1813 11.6574C18.245 11.4002 18.3787 10.7851 18.1343 10.5795C17.8544 10.3439 15.2059 10.3854 15.2059 10.3854ZM17.6636 9.68268C18.22 9.70208 18.5913 9.80113 18.8658 10.364C19.3687 11.3957 18.5079 12.9429 17.5476 13.3646C16.4249 13.8575 15.1708 13.312 14.5772 12.3254C14.2629 11.803 14.104 11.0118 14.1142 10.4091C14.1273 9.6398 14.6579 9.61846 15.2815 9.63542L17.6636 9.68268Z" fill="#D6EAF2"/>
<path fill-rule="evenodd" clip-rule="evenodd" d="M8.40633 10.1424C8.05738 10.1623 7.65863 10.167 7.33176 10.3198C6.9856 10.4816 6.93211 10.8479 7.36849 10.8984C7.56504 10.9212 7.7618 10.8836 7.95533 10.8486C8.11383 10.8199 8.32912 10.8292 8.4789 10.7679C8.758 10.6536 8.74009 10.1231 8.40633 10.1424Z" fill="#D6EAF2"/>
<path fill-rule="evenodd" clip-rule="evenodd" d="M18.5865 10.1424C18.9354 10.1623 19.3342 10.167 19.661 10.3198C20.0072 10.4816 20.0607 10.8479 19.6243 10.8984C19.4278 10.9212 19.231 10.8836 19.0375 10.8486C18.879 10.8199 18.6637 10.8292 18.5139 10.7679C18.2348 10.6536 18.2527 10.1231 18.5865 10.1424Z" fill="#D6EAF2"/>
<path fill-rule="evenodd" clip-rule="evenodd" d="M14.5336 10.3585C14.3345 10.1202 13.8158 9.9827 13.4885 9.9827C13.1613 9.9827 12.6577 10.1202 12.4587 10.3585C12.3584 10.4786 12.3549 10.6393 12.5289 10.7146C12.7455 10.8084 12.9389 10.6383 13.1123 10.5493C13.3341 10.4355 13.6747 10.448 13.88 10.5493C14.0547 10.6355 14.2468 10.8084 14.4634 10.7146C14.6373 10.6393 14.6339 10.4786 14.5336 10.3585Z" fill="#D6EAF2"/>
</g>
</svg>
