<svg width="27" height="29" viewBox="0 0 27 29" fill="none" xmlns="http://www.w3.org/2000/svg">
<path fill-rule="evenodd" clip-rule="evenodd" d="M13.5 3.72856C10.3369 3.72856 7.7727 6.29275 7.7727 9.45584V10.167C7.19226 10.2643 6.74998 10.7692 6.74998 11.3773V12.8584C6.74998 13.4752 7.20486 13.9856 7.79742 14.0726C7.98795 16.1269 9.26344 17.8666 11.0454 18.7131V20.633C6.70004 20.9487 3.27271 24.5741 3.27271 29H23.7272C23.7272 24.5741 20.2999 20.9487 15.9545 20.633V18.7131C17.7365 17.8666 19.012 16.1269 19.2025 14.0726C19.7951 13.9856 20.25 13.4752 20.25 12.8584V11.3773C20.25 10.7692 19.8077 10.2643 19.2272 10.167V9.45584C19.2272 6.29275 16.6631 3.72856 13.5 3.72856Z" fill="#D0C6AC"/>
<mask id="mask0" mask-type="alpha" maskUnits="userSpaceOnUse" x="3" y="3" width="21" height="26">
<path fill-rule="evenodd" clip-rule="evenodd" d="M13.5 3.72856C10.3369 3.72856 7.7727 6.29275 7.7727 9.45584V10.167C7.19226 10.2643 6.74998 10.7692 6.74998 11.3773V12.8584C6.74998 13.4752 7.20486 13.9856 7.79742 14.0726C7.98795 16.1269 9.26344 17.8666 11.0454 18.7131V20.633C6.70004 20.9487 3.27271 24.5741 3.27271 29H23.7272C23.7272 24.5741 20.2999 20.9487 15.9545 20.633V18.7131C17.7365 17.8666 19.012 16.1269 19.2025 14.0726C19.7951 13.9856 20.25 13.4752 20.25 12.8584V11.3773C20.25 10.7692 19.8077 10.2643 19.2272 10.167V9.45584C19.2272 6.29275 16.6631 3.72856 13.5 3.72856Z" fill="white"/>
</mask>
<g mask="url(#mask0)">
<rect y="3.72856" width="27" height="25.2714" fill="#AE5D29"/>
<path fill-rule="evenodd" clip-rule="evenodd" d="M7.77271 13.537V14.3656C7.77271 17.5287 10.3369 20.0929 13.5 20.0929C16.6631 20.0929 19.2273 17.5287 19.2273 14.3656V13.537C19.2273 16.7001 16.6631 19.2643 13.5 19.2643C10.3369 19.2643 7.77271 16.7001 7.77271 13.537Z" fill="black" fill-opacity="0.1"/>
</g>
<path fill-rule="evenodd" clip-rule="evenodd" d="M16.977 20.7752C16.9565 21.9924 15.4305 22.975 13.5511 22.975C11.6617 22.975 10.1294 21.9819 10.125 20.7557C6.22608 21.4754 3.27271 24.8928 3.27271 29H23.7272C23.7272 24.9287 20.8253 21.5353 16.977 20.7752Z" fill="#E6E6E6"/>
<mask id="mask1" mask-type="alpha" maskUnits="userSpaceOnUse" x="3" y="20" width="21" height="9">
<path fill-rule="evenodd" clip-rule="evenodd" d="M16.977 20.7752C16.9565 21.9924 15.4305 22.975 13.5511 22.975C11.6617 22.975 10.1294 21.9819 10.125 20.7557C6.22608 21.4754 3.27271 24.8928 3.27271 29H23.7272C23.7272 24.9287 20.8253 21.5353 16.977 20.7752Z" fill="white"/>
</mask>
<g mask="url(#mask1)">
<rect y="17.6071" width="27" height="11.3929" fill="#262E33"/>
<g opacity="0.6">
<path fill-rule="evenodd" clip-rule="evenodd" d="M13.5511 23.6932C15.7899 23.6932 17.6047 22.4452 17.6047 20.9057C17.6047 19.3662 15.7899 18.1182 13.5511 18.1182C11.3124 18.1182 9.49756 19.3662 9.49756 20.9057C9.49756 22.4452 11.3124 23.6932 13.5511 23.6932Z" fill="black" fill-opacity="0.16"/>
</g>
</g>
<path fill-rule="evenodd" clip-rule="evenodd" d="M16.7357 29H23.7272C23.7272 24.8756 20.7491 21.4469 16.826 20.7468C17.118 21.9206 17.2841 23.2684 17.2841 24.7018C17.2841 26.277 17.0835 27.7489 16.7357 29ZM10.2808 20.7284C9.98594 21.9065 9.81816 23.2609 9.81816 24.7018C9.81816 26.277 10.0187 27.7489 10.3665 29H3.27271C3.27271 24.8383 6.30502 21.3848 10.2808 20.7284Z" fill="#3A4C5A"/>
<path fill-rule="evenodd" clip-rule="evenodd" d="M18.5112 26.5143L18.8054 26.2908C19.3549 25.8735 20.1169 25.8802 20.659 26.3072L18.5112 26.5143Z" fill="#E6E6E6"/>
<path fill-rule="evenodd" clip-rule="evenodd" d="M10.3295 20.5071C9.71589 23.5107 10.8409 29 10.8409 29H9.20452L7.77271 25.2714L8.38634 24.3393L7.77271 23.7179L9.71589 20.6107C9.71589 20.6107 10.0269 20.5127 10.3295 20.5071Z" fill="#2F4351"/>
<path fill-rule="evenodd" clip-rule="evenodd" d="M16.6705 20.5071C17.2841 23.5107 16.1591 29 16.1591 29H17.7955L19.2273 25.2714L18.6137 24.3393L19.2273 23.7179L17.2841 20.6107C17.2841 20.6107 16.9731 20.5127 16.6705 20.5071Z" fill="#2F4351"/>
<mask id="mask2" mask-type="alpha" maskUnits="userSpaceOnUse" x="0" y="2" width="27" height="29">
<rect y="2" width="27" height="29" fill="white"/>
</mask>
<g mask="url(#mask2)">
<path fill-rule="evenodd" clip-rule="evenodd" d="M19.0952 5.81284C19.1864 6.14913 19.3163 7.05051 19.0877 7.34907C19.0114 7.44873 18.4904 7.16897 18.2731 7.0474C18.146 6.97629 18.026 6.90856 17.9118 6.84409C16.3864 5.98275 15.8934 5.70441 13.2182 5.74384C10.3427 5.78622 8.3727 7.15057 8.26189 7.29012C8.18479 7.38721 8.08637 7.64646 8.00543 8.36862C7.97981 8.59723 7.97265 8.88325 7.96554 9.16738C7.95019 9.7808 7.93506 10.3854 7.73483 10.3843C7.48538 10.383 7.43112 7.92083 7.53879 6.94408C7.54282 6.90755 7.54965 6.864 7.557 6.81707C7.57985 6.67134 7.60781 6.493 7.57292 6.39096C7.5572 6.34501 7.51763 6.31702 7.47707 6.28832C7.41361 6.24343 7.34771 6.19682 7.36691 6.07705C7.38856 5.94185 7.47855 5.92907 7.56772 5.91641C7.62594 5.90815 7.68382 5.89993 7.72209 5.85772C7.83747 5.73047 7.76843 5.66429 7.68958 5.58869C7.64299 5.54402 7.59298 5.49608 7.57554 5.43031C7.51069 5.18575 7.68022 5.1098 7.85033 5.03359C7.86331 5.02778 7.87629 5.02196 7.88917 5.01607C7.95944 4.98396 8.00196 4.97292 8.03452 4.96447C8.09513 4.94874 8.12117 4.94198 8.22736 4.82486C8.00936 4.66304 7.93049 4.44257 8.229 4.3243C8.28616 4.30165 8.3846 4.30273 8.48459 4.30383C8.60634 4.30516 8.73038 4.30653 8.78492 4.26508C8.80008 4.25356 8.80988 4.2101 8.8186 4.17142C8.82477 4.14405 8.8304 4.11907 8.83702 4.1095C8.97509 3.90946 8.96332 3.7575 8.94734 3.55132C8.94496 3.52066 8.94249 3.48879 8.94041 3.45539C8.92717 3.24429 8.92895 3.05051 9.17853 3.02942C9.28129 3.02074 9.37222 3.06988 9.46184 3.11832C9.51746 3.14838 9.57257 3.17817 9.62971 3.19371C9.71916 3.21804 9.74212 3.23881 9.76479 3.23851C9.78407 3.23825 9.80315 3.22274 9.86276 3.18119C9.98418 3.0965 9.99677 2.96896 10.0095 2.84037C10.0206 2.72785 10.0318 2.61453 10.116 2.52838C10.2772 2.36364 10.4022 2.46308 10.5246 2.56047C10.5905 2.61283 10.6556 2.6646 10.7251 2.67439C10.9855 2.71113 11.0385 2.56429 11.0955 2.4062C11.1331 2.30207 11.1725 2.19307 11.274 2.12844C11.4611 2.00944 11.5447 2.12353 11.6252 2.2334C11.6762 2.30299 11.726 2.37087 11.8 2.37678C11.9027 2.38493 12.0563 2.2635 12.1926 2.15581C12.2759 2.09001 12.3527 2.02934 12.4073 2.0065C12.6393 1.90954 12.8079 2.01314 12.9785 2.11803C13.1225 2.20654 13.2679 2.29596 13.4543 2.2666C13.4847 2.2618 13.5129 2.25709 13.5392 2.25269C13.7682 2.2144 13.857 2.19955 14.0962 2.35226C14.2691 2.46261 14.3539 2.44659 14.4785 2.42306C14.5405 2.41136 14.6123 2.3978 14.7097 2.39701C14.8233 2.39614 14.9127 2.4485 14.999 2.49895C15.0699 2.54046 15.1386 2.58069 15.2168 2.58894C15.2601 2.59353 15.3024 2.57295 15.3456 2.55198C15.3886 2.53109 15.4323 2.50982 15.4786 2.51267C15.6655 2.52415 15.7536 2.66732 15.8422 2.81131C15.9105 2.9224 15.9791 3.03398 16.0937 3.08596C16.2594 3.16116 16.4451 3.1117 16.6226 3.06442C16.7026 3.04311 16.781 3.02225 16.8551 3.01344C17.2601 2.9653 17.1903 3.21724 17.1159 3.48564C17.0834 3.60294 17.05 3.72338 17.055 3.8233C17.1724 3.85104 17.2907 3.80748 17.4089 3.76398C17.5206 3.72285 17.6322 3.68177 17.7427 3.70109C18.0902 3.76185 17.9732 4.1176 17.8901 4.37015C17.8876 4.37784 17.8851 4.38543 17.8826 4.39292C17.9476 4.39174 18.0398 4.37176 18.1436 4.34931C18.4364 4.28595 18.8205 4.20281 18.9392 4.4662C18.9883 4.57505 18.9407 4.70548 18.8943 4.83258C18.8623 4.92026 18.8309 5.00636 18.8322 5.0827C18.8348 5.24083 18.9048 5.38257 18.9749 5.52455C19.0215 5.61891 19.0682 5.71337 19.0952 5.81284ZM18.9572 7.62363C18.9832 7.64194 19.0008 7.65436 19.0053 7.6569C19.185 7.75929 19.3273 8.78574 19.3342 9.17825C19.3385 9.42045 19.3424 10.3441 19.0894 10.2642C19.0124 10.2399 18.8949 9.75096 18.8781 9.46477C18.8614 9.17859 18.7009 8.20492 18.4546 7.75695C18.4411 7.73247 18.4217 7.70358 18.4008 7.6726C18.3345 7.57397 18.2538 7.45413 18.3068 7.38824C18.3806 7.29643 18.4527 7.32867 18.5379 7.36682C18.5523 7.37329 18.5672 7.37992 18.5825 7.38616C18.6713 7.42239 18.8658 7.55933 18.9572 7.62363Z" fill="#2E3257"/>
<mask id="mask3" mask-type="alpha" maskUnits="userSpaceOnUse" x="7" y="1" width="13" height="10">
<path fill-rule="evenodd" clip-rule="evenodd" d="M19.0952 5.81284C19.1864 6.14913 19.3163 7.05051 19.0877 7.34907C19.0114 7.44873 18.4904 7.16897 18.2731 7.0474C18.146 6.97629 18.026 6.90856 17.9118 6.84409C16.3864 5.98275 15.8934 5.70441 13.2182 5.74384C10.3427 5.78622 8.3727 7.15057 8.26189 7.29012C8.18479 7.38721 8.08637 7.64646 8.00543 8.36862C7.97981 8.59723 7.97265 8.88325 7.96554 9.16738C7.95019 9.7808 7.93506 10.3854 7.73483 10.3843C7.48538 10.383 7.43112 7.92083 7.53879 6.94408C7.54282 6.90755 7.54965 6.864 7.557 6.81707C7.57985 6.67134 7.60781 6.493 7.57292 6.39096C7.5572 6.34501 7.51763 6.31702 7.47707 6.28832C7.41361 6.24343 7.34771 6.19682 7.36691 6.07705C7.38856 5.94185 7.47855 5.92907 7.56772 5.91641C7.62594 5.90815 7.68382 5.89993 7.72209 5.85772C7.83747 5.73047 7.76843 5.66429 7.68958 5.58869C7.64299 5.54402 7.59298 5.49608 7.57554 5.43031C7.51069 5.18575 7.68022 5.1098 7.85033 5.03359C7.86331 5.02778 7.87629 5.02196 7.88917 5.01607C7.95944 4.98396 8.00196 4.97292 8.03452 4.96447C8.09513 4.94874 8.12117 4.94198 8.22736 4.82486C8.00936 4.66304 7.93049 4.44257 8.229 4.3243C8.28616 4.30165 8.3846 4.30273 8.48459 4.30383C8.60634 4.30516 8.73038 4.30653 8.78492 4.26508C8.80008 4.25356 8.80988 4.2101 8.8186 4.17142C8.82477 4.14405 8.8304 4.11907 8.83702 4.1095C8.97509 3.90946 8.96332 3.7575 8.94734 3.55132C8.94496 3.52066 8.94249 3.48879 8.94041 3.45539C8.92717 3.24429 8.92895 3.05051 9.17853 3.02942C9.28129 3.02074 9.37222 3.06988 9.46184 3.11832C9.51746 3.14838 9.57257 3.17817 9.62971 3.19371C9.71916 3.21804 9.74212 3.23881 9.76479 3.23851C9.78407 3.23825 9.80315 3.22274 9.86276 3.18119C9.98418 3.0965 9.99677 2.96896 10.0095 2.84037C10.0206 2.72785 10.0318 2.61453 10.116 2.52838C10.2772 2.36364 10.4022 2.46308 10.5246 2.56047C10.5905 2.61283 10.6556 2.6646 10.7251 2.67439C10.9855 2.71113 11.0385 2.56429 11.0955 2.4062C11.1331 2.30207 11.1725 2.19307 11.274 2.12844C11.4611 2.00944 11.5447 2.12353 11.6252 2.2334C11.6762 2.30299 11.726 2.37087 11.8 2.37678C11.9027 2.38493 12.0563 2.2635 12.1926 2.15581C12.2759 2.09001 12.3527 2.02934 12.4073 2.0065C12.6393 1.90954 12.8079 2.01314 12.9785 2.11803C13.1225 2.20654 13.2679 2.29596 13.4543 2.2666C13.4847 2.2618 13.5129 2.25709 13.5392 2.25269C13.7682 2.2144 13.857 2.19955 14.0962 2.35226C14.2691 2.46261 14.3539 2.44659 14.4785 2.42306C14.5405 2.41136 14.6123 2.3978 14.7097 2.39701C14.8233 2.39614 14.9127 2.4485 14.999 2.49895C15.0699 2.54046 15.1386 2.58069 15.2168 2.58894C15.2601 2.59353 15.3024 2.57295 15.3456 2.55198C15.3886 2.53109 15.4323 2.50982 15.4786 2.51267C15.6655 2.52415 15.7536 2.66732 15.8422 2.81131C15.9105 2.9224 15.9791 3.03398 16.0937 3.08596C16.2594 3.16116 16.4451 3.1117 16.6226 3.06442C16.7026 3.04311 16.781 3.02225 16.8551 3.01344C17.2601 2.9653 17.1903 3.21724 17.1159 3.48564C17.0834 3.60294 17.05 3.72338 17.055 3.8233C17.1724 3.85104 17.2907 3.80748 17.4089 3.76398C17.5206 3.72285 17.6322 3.68177 17.7427 3.70109C18.0902 3.76185 17.9732 4.1176 17.8901 4.37015C17.8876 4.37784 17.8851 4.38543 17.8826 4.39292C17.9476 4.39174 18.0398 4.37176 18.1436 4.34931C18.4364 4.28595 18.8205 4.20281 18.9392 4.4662C18.9883 4.57505 18.9407 4.70548 18.8943 4.83258C18.8623 4.92026 18.8309 5.00636 18.8322 5.0827C18.8348 5.24083 18.9048 5.38257 18.9749 5.52455C19.0215 5.61891 19.0682 5.71337 19.0952 5.81284ZM18.9572 7.62363C18.9832 7.64194 19.0008 7.65436 19.0053 7.6569C19.185 7.75929 19.3273 8.78574 19.3342 9.17825C19.3385 9.42045 19.3424 10.3441 19.0894 10.2642C19.0124 10.2399 18.8949 9.75096 18.8781 9.46477C18.8614 9.17859 18.7009 8.20492 18.4546 7.75695C18.4411 7.73247 18.4217 7.70358 18.4008 7.6726C18.3345 7.57397 18.2538 7.45413 18.3068 7.38824C18.3806 7.29643 18.4527 7.32867 18.5379 7.36682C18.5523 7.37329 18.5672 7.37992 18.5825 7.38616C18.6713 7.42239 18.8658 7.55933 18.9572 7.62363Z" fill="white"/>
</mask>
<g mask="url(#mask3)">
<rect width="27" height="29" fill="#2C1B18"/>
</g>
<path fill-rule="evenodd" clip-rule="evenodd" d="M10.3294 14.0857C8.97376 14.0857 7.87482 12.9728 7.87482 11.6C7.87482 11.3478 7.91191 11.1044 7.98087 10.875H7.31557C7.17257 10.875 7.05664 10.7591 7.05664 10.6161C7.05664 10.4731 7.17257 10.3571 7.31557 10.3571H8.12726C8.15167 10.3571 8.1753 10.3605 8.19769 10.3668C8.62071 9.61851 9.41689 9.11429 10.3294 9.11429C11.2858 9.11429 12.1145 9.66831 12.5196 10.4768C12.7321 10.1541 13.0856 9.94286 13.4858 9.94286C13.8961 9.94286 14.2574 10.1649 14.4678 10.5015C14.8682 9.67966 15.7041 9.11429 16.6703 9.11429C17.5828 9.11429 18.3789 9.61852 18.802 10.3668C18.8244 10.3605 18.848 10.3571 18.8724 10.3571H19.6841C19.8271 10.3571 19.943 10.4731 19.943 10.6161C19.943 10.7591 19.8271 10.875 19.6841 10.875H19.0188C19.0877 11.1044 19.1248 11.3478 19.1248 11.6C19.1248 12.9728 18.0259 14.0857 16.6703 14.0857C15.3147 14.0857 14.2157 12.9728 14.2157 11.6C14.2157 11.4527 14.2284 11.3085 14.2526 11.1682C14.244 10.715 13.9001 10.3571 13.4858 10.3571C13.1036 10.3571 12.7813 10.6616 12.7268 11.0645C12.7642 11.237 12.7839 11.4162 12.7839 11.6C12.7839 12.9728 11.685 14.0857 10.3294 14.0857ZM10.3294 13.6714C11.459 13.6714 12.3748 12.744 12.3748 11.6C12.3748 10.456 11.459 9.52857 10.3294 9.52857C9.19969 9.52857 8.28391 10.456 8.28391 11.6C8.28391 12.744 9.19969 13.6714 10.3294 13.6714ZM18.7157 11.6C18.7157 12.744 17.8 13.6714 16.6703 13.6714C15.5406 13.6714 14.6248 12.744 14.6248 11.6C14.6248 10.456 15.5406 9.52857 16.6703 9.52857C17.8 9.52857 18.7157 10.456 18.7157 11.6Z" fill="#252C2F"/>
</g>
</svg>
