<svg width="27" height="29" viewBox="0 0 27 29" fill="none" xmlns="http://www.w3.org/2000/svg">
<path fill-rule="evenodd" clip-rule="evenodd" d="M13.5 3.72856C10.3369 3.72856 7.7727 6.29275 7.7727 9.45584V10.167C7.19226 10.2643 6.74998 10.7692 6.74998 11.3773V12.8584C6.74998 13.4752 7.20486 13.9856 7.79742 14.0726C7.98795 16.1269 9.26344 17.8666 11.0454 18.7131V20.633C6.70004 20.9487 3.27271 24.5741 3.27271 29H23.7272C23.7272 24.5741 20.2999 20.9487 15.9545 20.633V18.7131C17.7365 17.8666 19.012 16.1269 19.2025 14.0726C19.7951 13.9856 20.25 13.4752 20.25 12.8584V11.3773C20.25 10.7692 19.8077 10.2643 19.2272 10.167V9.45584C19.2272 6.29275 16.6631 3.72856 13.5 3.72856Z" fill="#D0C6AC"/>
<mask id="mask0" mask-type="alpha" maskUnits="userSpaceOnUse" x="3" y="3" width="21" height="26">
<path fill-rule="evenodd" clip-rule="evenodd" d="M13.5 3.72856C10.3369 3.72856 7.7727 6.29275 7.7727 9.45584V10.167C7.19226 10.2643 6.74998 10.7692 6.74998 11.3773V12.8584C6.74998 13.4752 7.20486 13.9856 7.79742 14.0726C7.98795 16.1269 9.26344 17.8666 11.0454 18.7131V20.633C6.70004 20.9487 3.27271 24.5741 3.27271 29H23.7272C23.7272 24.5741 20.2999 20.9487 15.9545 20.633V18.7131C17.7365 17.8666 19.012 16.1269 19.2025 14.0726C19.7951 13.9856 20.25 13.4752 20.25 12.8584V11.3773C20.25 10.7692 19.8077 10.2643 19.2272 10.167V9.45584C19.2272 6.29275 16.6631 3.72856 13.5 3.72856Z" fill="white"/>
</mask>
<g mask="url(#mask0)">
<rect y="3.72856" width="27" height="25.2714" fill="#AE5D29"/>
<path fill-rule="evenodd" clip-rule="evenodd" d="M7.77271 13.537V14.3656C7.77271 17.5287 10.3369 20.0929 13.5 20.0929C16.6631 20.0929 19.2273 17.5287 19.2273 14.3656V13.537C19.2273 16.7001 16.6631 19.2643 13.5 19.2643C10.3369 19.2643 7.77271 16.7001 7.77271 13.537Z" fill="black" fill-opacity="0.1"/>
</g>
<path fill-rule="evenodd" clip-rule="evenodd" d="M11.0454 18.9609C9.19423 19.1707 7.7727 19.7473 7.7727 21.2401C7.7727 21.3467 7.77995 21.4512 7.79409 21.5536C5.10743 22.952 3.27271 25.7617 3.27271 29H23.7272C23.7272 25.7617 21.8925 22.952 19.2059 21.5536C19.22 21.4512 19.2273 21.3467 19.2273 21.2401C19.2273 19.7473 17.8057 19.1707 15.9545 18.9609V20.9526C15.9545 22.3082 14.8556 23.4071 13.5 23.4071C12.1444 23.4071 11.0454 22.3082 11.0454 20.9526V18.9609Z" fill="#B7C1DB"/>
<mask id="mask1" mask-type="alpha" maskUnits="userSpaceOnUse" x="3" y="18" width="21" height="11">
<path fill-rule="evenodd" clip-rule="evenodd" d="M11.0454 18.9609C9.19423 19.1707 7.7727 19.7473 7.7727 21.2401C7.7727 21.3467 7.77995 21.4512 7.79409 21.5536C5.10743 22.952 3.27271 25.7617 3.27271 29H23.7272C23.7272 25.7617 21.8925 22.952 19.2059 21.5536C19.22 21.4512 19.2273 21.3467 19.2273 21.2401C19.2273 19.7473 17.8057 19.1707 15.9545 18.9609V20.9526C15.9545 22.3082 14.8556 23.4071 13.5 23.4071C12.1444 23.4071 11.0454 22.3082 11.0454 20.9526V18.9609Z" fill="white"/>
</mask>
<g mask="url(#mask1)">
<rect y="17.6071" width="27" height="11.3929" fill="#65C9FF"/>
<path fill-rule="evenodd" clip-rule="evenodd" d="M9.71582 23.6299C9.9412 23.7655 10.1808 23.8899 10.4317 24.0015V29H9.71582V23.6299ZM17.284 23.6299C17.0586 23.7655 16.819 23.8899 16.5681 24.0015V27.8135C16.5681 28.0112 16.7284 28.1714 16.926 28.1714C17.1237 28.1714 17.284 28.0112 17.284 27.8135V23.6299Z" fill="#F4F4F4"/>
<path fill-rule="evenodd" clip-rule="evenodd" d="M13.5001 24.65C10.6182 24.65 7.77284 22.9379 7.77284 20.8258C7.77284 19.8553 8.3737 19.272 9.30285 18.925C7.76356 19.2199 6.69897 19.8073 6.69897 20.9533C6.69897 22.9949 10.0778 24.65 13.5001 24.65ZM19.2274 20.8258C19.2274 22.9366 16.3853 24.648 13.5051 24.65C16.9257 24.6484 20.3012 22.9939 20.3012 20.9533C20.3012 19.8073 19.2367 19.2199 17.6974 18.925C18.6265 19.272 19.2274 19.8553 19.2274 20.8258Z" fill="black" fill-opacity="0.16"/>
</g>
<mask id="mask2" mask-type="alpha" maskUnits="userSpaceOnUse" x="0" y="0" width="27" height="29">
<rect width="27" height="29" fill="white"/>
</mask>
<g mask="url(#mask2)">
<path fill-rule="evenodd" clip-rule="evenodd" d="M25.4659 7.30179C25.4659 7.38457 25.4625 7.46655 25.4559 7.54761C26.1697 8.53938 26.5909 9.76095 26.5909 11.0821C26.5909 11.8234 26.4583 12.5333 26.2159 13.1889C26.2605 13.3943 26.2841 13.6078 26.2841 13.8268C26.2841 14.8405 25.7794 15.735 25.0107 16.2664C24.1197 18.1034 22.254 19.3679 20.0966 19.3679C19.8958 19.3679 19.6975 19.3569 19.5023 19.3356C18.8575 19.8734 18.0313 20.1964 17.1307 20.1964C16.7197 20.1964 16.3243 20.1292 15.9545 20.005V18.7131C17.7668 17.8522 19.0552 16.0676 19.2113 13.9677C19.7996 13.877 20.25 13.3685 20.25 12.7549V11.3773C20.25 10.7692 19.8077 10.2643 19.2273 10.167V9.45584C19.2273 8.88855 19.1448 8.34053 18.9912 7.82311L19.1406 9.23803L17.9808 6.7523L13.3646 4.73018L10.2848 5.82365L8.08615 7.91487L8.08081 7.59792C7.88111 8.18053 7.77273 8.80553 7.77273 9.45584V10.167C7.19229 10.2643 6.75 10.7692 6.75 11.3773V12.7549C6.75 13.3685 7.20041 13.877 7.78868 13.9677C7.94481 16.0676 9.23321 17.8522 11.0455 18.7131V19.8396C10.5643 20.0685 10.027 20.1964 9.46023 20.1964C8.55958 20.1964 7.73343 19.8734 7.08857 19.3356C6.89338 19.3569 6.69511 19.3679 6.49432 19.3679C4.33693 19.3679 2.47117 18.1034 1.58023 16.2664C0.81146 15.7349 0.306818 14.8405 0.306818 13.8268C0.306818 13.6078 0.330371 13.3943 0.375052 13.1889C0.132585 12.5333 0 11.8234 0 11.0821C0 9.76095 0.421171 8.53938 1.13496 7.54761C1.12836 7.46655 1.125 7.38457 1.125 7.30179C1.125 6.13169 1.79729 5.12061 2.77203 4.64307C3.63444 2.76553 5.47749 1.44336 7.63467 1.35153C8.15951 0.835542 8.87551 0.517857 9.66477 0.517857C9.90276 0.517857 10.1341 0.546742 10.3555 0.601237C11.3294 0.213151 12.3901 0 13.5 0C14.5581 0 15.5716 0.193724 16.5076 0.548061C16.6443 0.528158 16.784 0.517857 16.9261 0.517857C17.7154 0.517857 18.4314 0.835542 18.9562 1.35153C21.1134 1.44337 22.9565 2.76553 23.8189 4.64306C24.7936 5.1206 25.4659 6.13168 25.4659 7.30179Z" fill="#314756"/>
<mask id="mask3" mask-type="alpha" maskUnits="userSpaceOnUse" x="0" y="0" width="27" height="21">
<path fill-rule="evenodd" clip-rule="evenodd" d="M25.4659 7.30179C25.4659 7.38457 25.4625 7.46655 25.4559 7.54761C26.1697 8.53938 26.5909 9.76095 26.5909 11.0821C26.5909 11.8234 26.4583 12.5333 26.2159 13.1889C26.2605 13.3943 26.2841 13.6078 26.2841 13.8268C26.2841 14.8405 25.7794 15.735 25.0107 16.2664C24.1197 18.1034 22.254 19.3679 20.0966 19.3679C19.8958 19.3679 19.6975 19.3569 19.5023 19.3356C18.8575 19.8734 18.0313 20.1964 17.1307 20.1964C16.7197 20.1964 16.3243 20.1292 15.9545 20.005V18.7131C17.7668 17.8522 19.0552 16.0676 19.2113 13.9677C19.7996 13.877 20.25 13.3685 20.25 12.7549V11.3773C20.25 10.7692 19.8077 10.2643 19.2273 10.167V9.45584C19.2273 8.88855 19.1448 8.34053 18.9912 7.82311L19.1406 9.23803L17.9808 6.7523L13.3646 4.73018L10.2848 5.82365L8.08615 7.91487L8.08081 7.59792C7.88111 8.18053 7.77273 8.80553 7.77273 9.45584V10.167C7.19229 10.2643 6.75 10.7692 6.75 11.3773V12.7549C6.75 13.3685 7.20041 13.877 7.78868 13.9677C7.94481 16.0676 9.23321 17.8522 11.0455 18.7131V19.8396C10.5643 20.0685 10.027 20.1964 9.46023 20.1964C8.55958 20.1964 7.73343 19.8734 7.08857 19.3356C6.89338 19.3569 6.69511 19.3679 6.49432 19.3679C4.33693 19.3679 2.47117 18.1034 1.58023 16.2664C0.81146 15.7349 0.306818 14.8405 0.306818 13.8268C0.306818 13.6078 0.330371 13.3943 0.375052 13.1889C0.132585 12.5333 0 11.8234 0 11.0821C0 9.76095 0.421171 8.53938 1.13496 7.54761C1.12836 7.46655 1.125 7.38457 1.125 7.30179C1.125 6.13169 1.79729 5.12061 2.77203 4.64307C3.63444 2.76553 5.47749 1.44336 7.63467 1.35153C8.15951 0.835542 8.87551 0.517857 9.66477 0.517857C9.90276 0.517857 10.1341 0.546742 10.3555 0.601237C11.3294 0.213151 12.3901 0 13.5 0C14.5581 0 15.5716 0.193724 16.5076 0.548061C16.6443 0.528158 16.784 0.517857 16.9261 0.517857C17.7154 0.517857 18.4314 0.835542 18.9562 1.35153C21.1134 1.44337 22.9565 2.76553 23.8189 4.64306C24.7936 5.1206 25.4659 6.13168 25.4659 7.30179Z" fill="white"/>
</mask>
<g mask="url(#mask3)">
<rect width="27" height="29" fill="#2C1B18"/>
</g>
<path fill-rule="evenodd" clip-rule="evenodd" d="M7.73498 10.251C8.15318 7.6522 10.5521 5.65973 13.4488 5.65973C16.3456 5.65973 18.7445 7.6522 19.1627 10.251C19.2052 9.9867 19.2272 9.71614 19.2272 9.44077C19.2272 6.45761 16.6401 4.03929 13.4488 4.03929C10.2575 4.03929 7.67041 6.45761 7.67041 9.44077C7.67041 9.71614 7.69245 9.9867 7.73498 10.251Z" fill="#92D9FF"/>
<path fill-rule="evenodd" clip-rule="evenodd" d="M10.3294 14.0857C8.97376 14.0857 7.87482 12.9728 7.87482 11.6C7.87482 11.3478 7.91191 11.1044 7.98087 10.875H7.31557C7.17257 10.875 7.05664 10.7591 7.05664 10.6161C7.05664 10.4731 7.17257 10.3571 7.31557 10.3571H8.12726C8.15167 10.3571 8.1753 10.3605 8.19769 10.3668C8.62071 9.61851 9.41689 9.11429 10.3294 9.11429C11.2858 9.11429 12.1145 9.66831 12.5196 10.4768C12.7321 10.1541 13.0856 9.94286 13.4858 9.94286C13.8961 9.94286 14.2574 10.1649 14.4678 10.5015C14.8682 9.67966 15.7041 9.11429 16.6703 9.11429C17.5828 9.11429 18.3789 9.61852 18.802 10.3668C18.8244 10.3605 18.848 10.3571 18.8724 10.3571H19.6841C19.8271 10.3571 19.943 10.4731 19.943 10.6161C19.943 10.7591 19.8271 10.875 19.6841 10.875H19.0188C19.0877 11.1044 19.1248 11.3478 19.1248 11.6C19.1248 12.9728 18.0259 14.0857 16.6703 14.0857C15.3147 14.0857 14.2157 12.9728 14.2157 11.6C14.2157 11.4527 14.2284 11.3085 14.2526 11.1682C14.244 10.715 13.9001 10.3571 13.4858 10.3571C13.1036 10.3571 12.7813 10.6616 12.7268 11.0645C12.7642 11.237 12.7839 11.4162 12.7839 11.6C12.7839 12.9728 11.685 14.0857 10.3294 14.0857ZM10.3294 13.6714C11.459 13.6714 12.3748 12.744 12.3748 11.6C12.3748 10.456 11.459 9.52857 10.3294 9.52857C9.19969 9.52857 8.28391 10.456 8.28391 11.6C8.28391 12.744 9.19969 13.6714 10.3294 13.6714ZM18.7157 11.6C18.7157 12.744 17.8 13.6714 16.6703 13.6714C15.5406 13.6714 14.6248 12.744 14.6248 11.6C14.6248 10.456 15.5406 9.52857 16.6703 9.52857C17.8 9.52857 18.7157 10.456 18.7157 11.6Z" fill="#252C2F"/>
</g>
</svg>
