<svg width="27" height="29" viewBox="0 0 27 29" fill="none" xmlns="http://www.w3.org/2000/svg">
<path fill-rule="evenodd" clip-rule="evenodd" d="M13.5 3.72856C10.3369 3.72856 7.7727 6.29275 7.7727 9.45584V10.167C7.19226 10.2643 6.74998 10.7692 6.74998 11.3773V12.8584C6.74998 13.4752 7.20486 13.9856 7.79742 14.0726C7.98795 16.1269 9.26344 17.8666 11.0454 18.7131V20.633C6.70004 20.9487 3.27271 24.5741 3.27271 29H23.7272C23.7272 24.5741 20.2999 20.9487 15.9545 20.633V18.7131C17.7365 17.8666 19.012 16.1269 19.2025 14.0726C19.7951 13.9856 20.25 13.4752 20.25 12.8584V11.3773C20.25 10.7692 19.8077 10.2643 19.2272 10.167V9.45584C19.2272 6.29275 16.6631 3.72856 13.5 3.72856Z" fill="#D0C6AC"/>
<mask id="mask0" mask-type="alpha" maskUnits="userSpaceOnUse" x="3" y="3" width="21" height="26">
<path fill-rule="evenodd" clip-rule="evenodd" d="M13.5 3.72856C10.3369 3.72856 7.7727 6.29275 7.7727 9.45584V10.167C7.19226 10.2643 6.74998 10.7692 6.74998 11.3773V12.8584C6.74998 13.4752 7.20486 13.9856 7.79742 14.0726C7.98795 16.1269 9.26344 17.8666 11.0454 18.7131V20.633C6.70004 20.9487 3.27271 24.5741 3.27271 29H23.7272C23.7272 24.5741 20.2999 20.9487 15.9545 20.633V18.7131C17.7365 17.8666 19.012 16.1269 19.2025 14.0726C19.7951 13.9856 20.25 13.4752 20.25 12.8584V11.3773C20.25 10.7692 19.8077 10.2643 19.2272 10.167V9.45584C19.2272 6.29275 16.6631 3.72856 13.5 3.72856Z" fill="white"/>
</mask>
<g mask="url(#mask0)">
<rect y="3.72856" width="27" height="25.2714" fill="#FFDBB4"/>
<path fill-rule="evenodd" clip-rule="evenodd" d="M7.77271 13.537V14.3656C7.77271 17.5287 10.3369 20.0929 13.5 20.0929C16.6631 20.0929 19.2273 17.5287 19.2273 14.3656V13.537C19.2273 16.7001 16.6631 19.2643 13.5 19.2643C10.3369 19.2643 7.77271 16.7001 7.77271 13.537Z" fill="black" fill-opacity="0.1"/>
</g>
<path fill-rule="evenodd" clip-rule="evenodd" d="M18.6136 21.3717C18.6136 23.058 16.3471 24.425 13.5511 24.425C10.7552 24.425 8.48861 23.058 8.48861 21.3717C8.48861 21.3253 8.49033 21.2791 8.49373 21.2332C5.43123 22.4816 3.27271 25.4887 3.27271 29H23.7272C23.7272 25.529 21.6179 22.5506 18.6112 21.2768C18.6128 21.3083 18.6136 21.34 18.6136 21.3717Z" fill="#E6E6E6"/>
<mask id="mask1" mask-type="alpha" maskUnits="userSpaceOnUse" x="3" y="21" width="21" height="8">
<path fill-rule="evenodd" clip-rule="evenodd" d="M18.6136 21.3717C18.6136 23.058 16.3471 24.425 13.5511 24.425C10.7552 24.425 8.48861 23.058 8.48861 21.3717C8.48861 21.3253 8.49033 21.2791 8.49373 21.2332C5.43123 22.4816 3.27271 25.4887 3.27271 29H23.7272C23.7272 25.529 21.6179 22.5506 18.6112 21.2768C18.6128 21.3083 18.6136 21.34 18.6136 21.3717Z" fill="white"/>
</mask>
<g mask="url(#mask1)">
<rect y="17.6071" width="27" height="11.3929" fill="#262E33"/>
</g>
<mask id="mask2" mask-type="alpha" maskUnits="userSpaceOnUse" x="0" y="0" width="27" height="29">
<rect width="27" height="29" fill="white"/>
</mask>
<g mask="url(#mask2)">
<path fill-rule="evenodd" clip-rule="evenodd" d="M7.77275 10.167V10.1434L7.78127 10.15C7.95409 7.30726 9.60568 6.71228 11.106 6.1718C12.1829 5.78387 13.1818 5.42402 13.5 4.28124C13.8183 5.42402 14.8172 5.78387 15.894 6.1718C17.3944 6.71228 19.046 7.30726 19.2188 10.15C19.2216 10.1478 19.2245 10.1456 19.2273 10.1434V10.167C19.7584 10.2561 20.1739 10.6863 20.2406 11.2247C20.5012 10.9239 20.6591 10.5297 20.6591 10.0982C20.6591 9.87761 20.6178 9.66677 20.5427 9.47319C20.8664 9.16181 21.0682 8.72174 21.0682 8.23393C21.0682 7.62948 20.7583 7.09833 20.2907 6.79451C20.3957 6.57172 20.4546 6.32228 20.4546 6.05893C20.4546 5.26818 19.9242 4.60287 19.2041 4.40787C19.2194 4.30452 19.2273 4.19873 19.2273 4.09107C19.2273 2.91845 18.2886 1.96786 17.1307 1.96786C16.8618 1.96786 16.6047 2.01912 16.3685 2.11252C15.987 1.58524 15.3711 1.24286 14.6762 1.24286C14.2402 1.24286 13.8354 1.37758 13.5 1.60816C13.1646 1.37758 12.7598 1.24286 12.3239 1.24286C11.629 1.24286 11.013 1.58524 10.6315 2.11252C10.3953 2.01912 10.1382 1.96786 9.86934 1.96786C8.71143 1.96786 7.77275 2.91845 7.77275 4.09107C7.77275 4.19873 7.78066 4.30452 7.79593 4.40787C7.07581 4.60287 6.54548 5.26818 6.54548 6.05893C6.54548 6.28593 6.58918 6.50259 6.66853 6.70076C6.11086 6.97967 5.72729 7.56144 5.72729 8.23393C5.72729 8.79715 5.99634 9.29673 6.41137 9.60806C6.36555 9.76332 6.34093 9.92786 6.34093 10.0982C6.34093 10.5298 6.49888 10.9239 6.75941 11.2247C6.82618 10.6863 7.24163 10.2561 7.77275 10.167ZM7.7887 13.9677C7.39418 13.9069 7.06167 13.6582 6.88543 13.3158C6.67203 13.602 6.54548 13.9584 6.54548 14.3446C6.54548 15.11 7.04227 15.7578 7.7271 15.9755C7.69016 16.116 7.67048 16.2637 7.67048 16.4161C7.67048 17.3185 8.36119 18.0576 9.23645 18.1206C9.49348 18.732 10.0922 19.1607 10.7898 19.1607C10.8767 19.1607 10.9621 19.1541 11.0455 19.1412V18.7131C9.23323 17.8522 7.94483 16.0676 7.7887 13.9677ZM15.9546 18.7131V19.1412C16.0379 19.1541 16.1233 19.1607 16.2102 19.1607C16.9078 19.1607 17.5066 18.732 17.7636 18.1206C18.6389 18.0576 19.3296 17.3185 19.3296 16.4161C19.3296 16.2637 19.3099 16.116 19.2729 15.9755C19.9578 15.7578 20.4546 15.11 20.4546 14.3446C20.4546 13.9584 20.328 13.602 20.1146 13.3158C19.9384 13.6582 19.6059 13.9069 19.2113 13.9677C19.0552 16.0676 17.7668 17.8522 15.9546 18.7131Z" fill="#1F3540"/>
</g>
</svg>
