<svg width="27" height="29" viewBox="0 0 27 29" fill="none" xmlns="http://www.w3.org/2000/svg">
<path fill-rule="evenodd" clip-rule="evenodd" d="M13.5 3.72856C10.3369 3.72856 7.7727 6.29275 7.7727 9.45584V10.167C7.19226 10.2643 6.74998 10.7692 6.74998 11.3773V12.8584C6.74998 13.4752 7.20486 13.9856 7.79742 14.0726C7.98795 16.1269 9.26344 17.8666 11.0454 18.7131V20.633C6.70004 20.9487 3.27271 24.5741 3.27271 29H23.7272C23.7272 24.5741 20.2999 20.9487 15.9545 20.633V18.7131C17.7365 17.8666 19.012 16.1269 19.2025 14.0726C19.7951 13.9856 20.25 13.4752 20.25 12.8584V11.3773C20.25 10.7692 19.8077 10.2643 19.2272 10.167V9.45584C19.2272 6.29275 16.6631 3.72856 13.5 3.72856Z" fill="#D0C6AC"/>
<mask id="mask0" mask-type="alpha" maskUnits="userSpaceOnUse" x="3" y="3" width="21" height="26">
<path fill-rule="evenodd" clip-rule="evenodd" d="M13.5 3.72856C10.3369 3.72856 7.7727 6.29275 7.7727 9.45584V10.167C7.19226 10.2643 6.74998 10.7692 6.74998 11.3773V12.8584C6.74998 13.4752 7.20486 13.9856 7.79742 14.0726C7.98795 16.1269 9.26344 17.8666 11.0454 18.7131V20.633C6.70004 20.9487 3.27271 24.5741 3.27271 29H23.7272C23.7272 24.5741 20.2999 20.9487 15.9545 20.633V18.7131C17.7365 17.8666 19.012 16.1269 19.2025 14.0726C19.7951 13.9856 20.25 13.4752 20.25 12.8584V11.3773C20.25 10.7692 19.8077 10.2643 19.2272 10.167V9.45584C19.2272 6.29275 16.6631 3.72856 13.5 3.72856Z" fill="white"/>
</mask>
<g mask="url(#mask0)">
<rect y="3.72856" width="27" height="25.2714" fill="#FFDBB4"/>
<path fill-rule="evenodd" clip-rule="evenodd" d="M7.77271 13.537V14.3656C7.77271 17.5287 10.3369 20.0929 13.5 20.0929C16.6631 20.0929 19.2273 17.5287 19.2273 14.3656V13.537C19.2273 16.7001 16.6631 19.2643 13.5 19.2643C10.3369 19.2643 7.77271 16.7001 7.77271 13.537Z" fill="black" fill-opacity="0.1"/>
</g>
<path fill-rule="evenodd" clip-rule="evenodd" d="M16.9773 20.9732C16.9773 22.203 15.4433 23.2 13.5511 23.2C11.6589 23.2 10.125 22.203 10.125 20.9732C10.125 20.8988 10.1306 20.8252 10.1416 20.7526C6.23446 21.4657 3.27271 24.887 3.27271 29H23.7272C23.7272 24.924 20.8185 21.5273 16.9635 20.7725C16.9726 20.8386 16.9773 20.9056 16.9773 20.9732Z" fill="#E6E6E6"/>
<mask id="mask1" mask-type="alpha" maskUnits="userSpaceOnUse" x="3" y="20" width="21" height="9">
<path fill-rule="evenodd" clip-rule="evenodd" d="M16.9773 20.9732C16.9773 22.203 15.4433 23.2 13.5511 23.2C11.6589 23.2 10.125 22.203 10.125 20.9732C10.125 20.8988 10.1306 20.8252 10.1416 20.7526C6.23446 21.4657 3.27271 24.887 3.27271 29H23.7272C23.7272 24.924 20.8185 21.5273 16.9635 20.7725C16.9726 20.8386 16.9773 20.9056 16.9773 20.9732Z" fill="white"/>
</mask>
<g mask="url(#mask1)">
<rect y="17.6071" width="27" height="11.3929" fill="#FF5C5C"/>
</g>
<mask id="mask2" mask-type="alpha" maskUnits="userSpaceOnUse" x="0" y="0" width="27" height="29">
<rect width="27" height="29" fill="white"/>
</mask>
<g mask="url(#mask2)">
<path fill-rule="evenodd" clip-rule="evenodd" d="M6.74989 11.7036C7.86047 9.3523 10.2957 8.43106 12.4199 7.62745C13.7821 7.11212 15.0165 6.64516 15.6916 5.88048C15.9199 6.09042 16.1787 6.30071 16.4508 6.52197C17.495 7.37073 18.7375 8.38071 19.2272 10.15V10.167C19.7374 10.2526 20.1409 10.653 20.231 11.1617V11.0935C20.231 10.4306 20.1393 9.78826 19.9676 9.17893C20.8795 7.33339 20.026 4.72716 18.9203 3.62499C17.9507 2.71171 16.6395 2.3491 15.7547 2.74693C14.5678 0.930243 11.1379 1.37132 9.10216 2.89999C7.30639 4.24912 5.8089 6.71375 6.25243 9.81133C6.17614 10.2268 6.13625 10.6553 6.13625 11.0935V17.1761C6.13625 17.3202 6.13783 17.4643 6.14099 17.6082L6.13625 17.6071C6.15643 20.8422 5.41808 26.3921 3.98853 27.2393C10.3661 28.979 11.345 23.2886 11.0453 18.7464L11.0453 18.7131C9.2331 17.8522 7.9447 16.0676 7.78856 13.9677C7.20029 13.877 6.74988 13.3685 6.74988 12.7549V11.7036L6.74989 11.7036ZM15.9544 18.7131C17.7667 17.8522 19.0551 16.0676 19.2112 13.9677C19.7995 13.877 20.2499 13.3685 20.2499 12.7549V12.4367C20.3608 14.7591 20.9593 17.0354 22.0099 19.1163L22.1147 19.324C22.9935 21.0646 23.0312 22.929 22.4522 24.552C21.0716 22.3484 18.6957 20.8321 15.9544 20.633V18.7131ZM16.1753 29H15.2821L15.2869 29H16.171L16.1753 29Z" fill="#272C2E"/>
<mask id="mask3" mask-type="alpha" maskUnits="userSpaceOnUse" x="3" y="1" width="20" height="28">
<path fill-rule="evenodd" clip-rule="evenodd" d="M6.74989 11.7036C7.86047 9.3523 10.2957 8.43106 12.4199 7.62745C13.7821 7.11212 15.0165 6.64516 15.6916 5.88048C15.9199 6.09042 16.1787 6.30071 16.4508 6.52197C17.495 7.37073 18.7375 8.38071 19.2272 10.15V10.167C19.7374 10.2526 20.1409 10.653 20.231 11.1617V11.0935C20.231 10.4306 20.1393 9.78826 19.9676 9.17893C20.8795 7.33339 20.026 4.72716 18.9203 3.62499C17.9507 2.71171 16.6395 2.3491 15.7547 2.74693C14.5678 0.930243 11.1379 1.37132 9.10216 2.89999C7.30639 4.24912 5.8089 6.71375 6.25243 9.81133C6.17614 10.2268 6.13625 10.6553 6.13625 11.0935V17.1761C6.13625 17.3202 6.13783 17.4643 6.14099 17.6082L6.13625 17.6071C6.15643 20.8422 5.41808 26.3921 3.98853 27.2393C10.3661 28.979 11.345 23.2886 11.0453 18.7464L11.0453 18.7131C9.2331 17.8522 7.9447 16.0676 7.78856 13.9677C7.20029 13.877 6.74988 13.3685 6.74988 12.7549V11.7036L6.74989 11.7036ZM15.9544 18.7131C17.7667 17.8522 19.0551 16.0676 19.2112 13.9677C19.7995 13.877 20.2499 13.3685 20.2499 12.7549V12.4367C20.3608 14.7591 20.9593 17.0354 22.0099 19.1163L22.1147 19.324C22.9935 21.0646 23.0312 22.929 22.4522 24.552C21.0716 22.3484 18.6957 20.8321 15.9544 20.633V18.7131ZM16.1753 29H15.2821L15.2869 29H16.171L16.1753 29Z" fill="white"/>
</mask>
<g mask="url(#mask3)">
<rect width="27" height="29" fill="#FBD679"/>
</g>
<path fill-rule="evenodd" clip-rule="evenodd" d="M6.75 11.7035C7.86061 9.35232 10.2958 8.4311 12.4199 7.62751C13.7822 7.11216 15.0166 6.64519 15.6917 5.88048C15.9201 6.09044 16.1788 6.30075 16.451 6.52203C17.4926 7.36871 18.7315 8.3758 19.2237 10.137C18.7556 8.68388 17.612 7.93966 16.6051 7.28443C16.2767 7.07072 15.9628 6.86649 15.6917 6.65021C15.0166 7.31382 13.7823 7.71905 12.42 8.16627C10.2958 8.86366 7.8606 9.66314 6.75002 11.7036C6.75002 11.7036 6.75001 11.7035 6.75 11.7035Z" fill="black" fill-opacity="0.16"/>
</g>
</svg>
