<svg width="27" height="29" viewBox="0 0 27 29" fill="none" xmlns="http://www.w3.org/2000/svg">
<path fill-rule="evenodd" clip-rule="evenodd" d="M13.5 3.72856C10.3369 3.72856 7.7727 6.29275 7.7727 9.45584V10.167C7.19226 10.2643 6.74998 10.7692 6.74998 11.3773V12.8584C6.74998 13.4752 7.20486 13.9856 7.79742 14.0726C7.98795 16.1269 9.26344 17.8666 11.0454 18.7131V20.633C6.70004 20.9487 3.27271 24.5741 3.27271 29H23.7272C23.7272 24.5741 20.2999 20.9487 15.9545 20.633V18.7131C17.7365 17.8666 19.012 16.1269 19.2025 14.0726C19.7951 13.9856 20.25 13.4752 20.25 12.8584V11.3773C20.25 10.7692 19.8077 10.2643 19.2272 10.167V9.45584C19.2272 6.29275 16.6631 3.72856 13.5 3.72856Z" fill="#D0C6AC"/>
<mask id="mask0" mask-type="alpha" maskUnits="userSpaceOnUse" x="3" y="3" width="21" height="26">
<path fill-rule="evenodd" clip-rule="evenodd" d="M13.5 3.72856C10.3369 3.72856 7.7727 6.29275 7.7727 9.45584V10.167C7.19226 10.2643 6.74998 10.7692 6.74998 11.3773V12.8584C6.74998 13.4752 7.20486 13.9856 7.79742 14.0726C7.98795 16.1269 9.26344 17.8666 11.0454 18.7131V20.633C6.70004 20.9487 3.27271 24.5741 3.27271 29H23.7272C23.7272 24.5741 20.2999 20.9487 15.9545 20.633V18.7131C17.7365 17.8666 19.012 16.1269 19.2025 14.0726C19.7951 13.9856 20.25 13.4752 20.25 12.8584V11.3773C20.25 10.7692 19.8077 10.2643 19.2272 10.167V9.45584C19.2272 6.29275 16.6631 3.72856 13.5 3.72856Z" fill="white"/>
</mask>
<g mask="url(#mask0)">
<rect y="3.72856" width="27" height="25.2714" fill="#EDB98A"/>
<path fill-rule="evenodd" clip-rule="evenodd" d="M7.77271 13.537V14.3656C7.77271 17.5287 10.3369 20.0929 13.5 20.0929C16.6631 20.0929 19.2273 17.5287 19.2273 14.3656V13.537C19.2273 16.7001 16.6631 19.2643 13.5 19.2643C10.3369 19.2643 7.77271 16.7001 7.77271 13.537Z" fill="black" fill-opacity="0.1"/>
</g>
<path fill-rule="evenodd" clip-rule="evenodd" d="M16.9773 20.9732C16.9773 22.203 15.4433 23.2 13.5511 23.2C11.6589 23.2 10.125 22.203 10.125 20.9732C10.125 20.8988 10.1306 20.8252 10.1416 20.7526C6.23446 21.4657 3.27271 24.887 3.27271 29H23.7272C23.7272 24.924 20.8185 21.5273 16.9635 20.7725C16.9726 20.8386 16.9773 20.9056 16.9773 20.9732Z" fill="#E6E6E6"/>
<mask id="mask1" mask-type="alpha" maskUnits="userSpaceOnUse" x="3" y="20" width="21" height="9">
<path fill-rule="evenodd" clip-rule="evenodd" d="M16.9773 20.9732C16.9773 22.203 15.4433 23.2 13.5511 23.2C11.6589 23.2 10.125 22.203 10.125 20.9732C10.125 20.8988 10.1306 20.8252 10.1416 20.7526C6.23446 21.4657 3.27271 24.887 3.27271 29H23.7272C23.7272 24.924 20.8185 21.5273 16.9635 20.7725C16.9726 20.8386 16.9773 20.9056 16.9773 20.9732Z" fill="white"/>
</mask>
<g mask="url(#mask1)">
<rect y="17.6071" width="27" height="11.3929" fill="#262E33"/>
</g>
<mask id="mask2" mask-type="alpha" maskUnits="userSpaceOnUse" x="0" y="0" width="27" height="29">
<rect width="27" height="29" fill="white"/>
</mask>
<g mask="url(#mask2)">
<path fill-rule="evenodd" clip-rule="evenodd" d="M11.5754 15.5085C11.7987 15.3394 13.1327 15.2746 13.3731 15.1307C13.4482 15.0857 13.5064 15.0402 13.5513 14.9951C13.5962 15.0402 13.6545 15.0857 13.7295 15.1307C13.97 15.2746 15.3039 15.3394 15.5272 15.5085C15.7532 15.6798 15.9183 16.0727 15.9002 16.3799C15.8785 16.7485 15.4803 17.6282 14.4894 17.7295C14.2731 17.4858 13.9335 17.3286 13.5513 17.3286C13.1692 17.3286 12.8295 17.4858 12.6132 17.7295C11.6223 17.6282 11.2241 16.7485 11.2024 16.3799C11.1844 16.0727 11.3494 15.6798 11.5754 15.5085ZM15.4577 17.2867C15.4579 17.2867 15.458 17.2866 15.4582 17.2866C15.458 17.2866 15.4579 17.2867 15.4577 17.2867ZM11.6435 17.2862C11.6439 17.2864 11.6446 17.2867 11.6452 17.2869C11.6446 17.2867 11.6441 17.2864 11.6435 17.2862ZM19.7247 13.2556C19.685 12.6389 19.5626 12.03 19.4559 11.4225C19.4271 11.259 19.2707 10.15 19.2003 10.15C19.1765 11.0935 19.0946 12.0226 18.9891 12.9609C18.9575 13.2413 18.9245 13.5219 18.9027 13.8034C18.8852 14.0308 18.9165 14.3055 18.8621 14.5254C18.7927 14.8058 18.4448 15.0674 18.1743 15.164C17.4993 15.4049 16.9363 14.4076 16.3598 14.1159C15.6114 13.7372 14.3248 13.647 13.5596 14.1406C12.7777 13.647 11.4912 13.7372 10.7427 14.1159C10.1663 14.4076 9.60323 15.4049 8.92826 15.164C8.65774 15.0674 8.30984 14.8058 8.24049 14.5254C8.18607 14.3055 8.21737 14.0308 8.19984 13.8034C8.1781 13.5219 8.14502 13.2413 8.11345 12.9609C8.00792 12.0226 7.92601 11.0935 7.90228 10.15C7.83179 10.15 7.67538 11.259 7.64665 11.4225C7.5399 12.03 7.41755 12.6389 7.37784 13.2556C7.33703 13.8894 7.38574 14.5173 7.51407 15.1383C7.57534 15.435 7.64692 15.73 7.72365 16.0229C7.80893 16.3484 7.69094 16.9822 7.72912 17.3163C7.80137 17.9485 8.09546 19.1814 8.4257 19.7253C8.58532 19.9882 8.77242 20.1523 8.98136 20.3641C9.18244 20.568 9.26644 20.8841 9.48348 21.1013C9.88807 21.5061 10.4775 21.747 11.083 21.8062C11.6262 22.2731 12.5291 22.5786 13.5512 22.5786C14.5734 22.5786 15.4763 22.2731 16.0196 21.8062C16.625 21.747 17.2145 21.5061 17.6191 21.1013C17.8361 20.8841 17.9201 20.568 18.1212 20.3641C18.3301 20.1523 18.5172 19.9882 18.6769 19.7253C19.0071 19.1814 19.3012 17.9485 19.3734 17.3163C19.4116 16.9822 19.2936 16.3484 19.3789 16.0229C19.4556 15.73 19.5272 15.435 19.5885 15.1383C19.7167 14.5173 19.7655 13.8894 19.7247 13.2556Z" fill="#5E7AA9"/>
<mask id="mask3" mask-type="alpha" maskUnits="userSpaceOnUse" x="7" y="10" width="13" height="13">
<path fill-rule="evenodd" clip-rule="evenodd" d="M11.5754 15.5085C11.7987 15.3394 13.1327 15.2746 13.3731 15.1307C13.4482 15.0857 13.5064 15.0402 13.5513 14.9951C13.5962 15.0402 13.6545 15.0857 13.7295 15.1307C13.97 15.2746 15.3039 15.3394 15.5272 15.5085C15.7532 15.6798 15.9183 16.0727 15.9002 16.3799C15.8785 16.7485 15.4803 17.6282 14.4894 17.7295C14.2731 17.4858 13.9335 17.3286 13.5513 17.3286C13.1692 17.3286 12.8295 17.4858 12.6132 17.7295C11.6223 17.6282 11.2241 16.7485 11.2024 16.3799C11.1844 16.0727 11.3494 15.6798 11.5754 15.5085ZM15.4577 17.2867C15.4579 17.2867 15.458 17.2866 15.4582 17.2866C15.458 17.2866 15.4579 17.2867 15.4577 17.2867ZM11.6435 17.2862C11.6439 17.2864 11.6446 17.2867 11.6452 17.2869C11.6446 17.2867 11.6441 17.2864 11.6435 17.2862ZM19.7247 13.2556C19.685 12.6389 19.5626 12.03 19.4559 11.4225C19.4271 11.259 19.2707 10.15 19.2003 10.15C19.1765 11.0935 19.0946 12.0226 18.9891 12.9609C18.9575 13.2413 18.9245 13.5219 18.9027 13.8034C18.8852 14.0308 18.9165 14.3055 18.8621 14.5254C18.7927 14.8058 18.4448 15.0674 18.1743 15.164C17.4993 15.4049 16.9363 14.4076 16.3598 14.1159C15.6114 13.7372 14.3248 13.647 13.5596 14.1406C12.7777 13.647 11.4912 13.7372 10.7427 14.1159C10.1663 14.4076 9.60323 15.4049 8.92826 15.164C8.65774 15.0674 8.30984 14.8058 8.24049 14.5254C8.18607 14.3055 8.21737 14.0308 8.19984 13.8034C8.1781 13.5219 8.14502 13.2413 8.11345 12.9609C8.00792 12.0226 7.92601 11.0935 7.90228 10.15C7.83179 10.15 7.67538 11.259 7.64665 11.4225C7.5399 12.03 7.41755 12.6389 7.37784 13.2556C7.33703 13.8894 7.38574 14.5173 7.51407 15.1383C7.57534 15.435 7.64692 15.73 7.72365 16.0229C7.80893 16.3484 7.69094 16.9822 7.72912 17.3163C7.80137 17.9485 8.09546 19.1814 8.4257 19.7253C8.58532 19.9882 8.77242 20.1523 8.98136 20.3641C9.18244 20.568 9.26644 20.8841 9.48348 21.1013C9.88807 21.5061 10.4775 21.747 11.083 21.8062C11.6262 22.2731 12.5291 22.5786 13.5512 22.5786C14.5734 22.5786 15.4763 22.2731 16.0196 21.8062C16.625 21.747 17.2145 21.5061 17.6191 21.1013C17.8361 20.8841 17.9201 20.568 18.1212 20.3641C18.3301 20.1523 18.5172 19.9882 18.6769 19.7253C19.0071 19.1814 19.3012 17.9485 19.3734 17.3163C19.4116 16.9822 19.2936 16.3484 19.3789 16.0229C19.4556 15.73 19.5272 15.435 19.5885 15.1383C19.7167 14.5173 19.7655 13.8894 19.7247 13.2556Z" fill="white"/>
</mask>
<g mask="url(#mask3)">
<rect x="4.90918" y="7.45714" width="17.1818" height="15.7429" fill="#724133"/>
</g>
<path fill-rule="evenodd" clip-rule="evenodd" d="M10.0472 13.8786H10.3293C11.8349 13.8786 12.8861 13.0053 12.8861 11.7554C12.8861 10.681 12.7003 9.63214 10.4796 9.63214H10.1789C7.95829 9.63214 7.77246 10.681 7.77246 11.7554C7.77246 13.0848 8.62283 13.8786 10.0472 13.8786ZM8.18155 11.8591C8.18155 10.9621 8.18155 10.2536 10.1641 10.2536H10.4944C12.477 10.2536 12.477 10.9621 12.477 11.8591C12.477 12.8042 11.5939 13.4643 10.3293 13.4643H10.0195C8.50026 13.4643 8.18155 12.5914 8.18155 11.8591Z" fill="#252C2F"/>
<path fill-rule="evenodd" clip-rule="evenodd" d="M16.3883 13.8786H16.6703C18.1759 13.8786 19.2272 13.0053 19.2272 11.7554C19.2272 10.681 19.0413 9.63214 16.8207 9.63214H16.52C14.2994 9.63214 14.1135 10.681 14.1135 11.7554C14.1135 13.0848 14.9639 13.8786 16.3883 13.8786ZM14.5226 11.8591C14.5226 10.9621 14.5226 10.2536 16.5052 10.2536H16.8355C18.8181 10.2536 18.8181 10.9621 18.8181 11.8591C18.8181 12.8042 17.9349 13.4643 16.6703 13.4643H16.3606C14.8417 13.4643 14.5226 12.5914 14.5226 11.8591Z" fill="#252C2F"/>
<path d="M7.15422 10.2299C7.22493 10.16 7.99848 9.63214 10.1759 9.63214C12.0016 9.63214 12.3881 9.82403 12.9731 10.1139L13.0159 10.1353C13.0566 10.1499 13.2646 10.2214 13.5079 10.2293C13.7295 10.2197 13.9191 10.1588 13.9745 10.1394C14.6422 9.8105 15.2958 9.63214 16.8236 9.63214C19.0011 9.63214 19.7746 10.16 19.8453 10.2299C20.0124 10.2299 20.1475 10.3635 20.1475 10.5288V10.8277C20.1475 10.993 20.0124 11.1266 19.8453 11.1266C19.8453 11.1266 19.1395 11.1266 19.1395 11.4254C19.1395 11.7243 18.9388 10.993 18.9388 10.8277V10.5366C18.5703 10.3937 17.9106 10.1279 16.8236 10.1279C15.6126 10.1279 15.0094 10.3453 14.4921 10.5613L14.4978 10.5754L14.4976 10.7811L14.2708 11.3352L13.9907 11.2231C13.9657 11.2131 13.9117 11.1951 13.8369 11.1764C13.6283 11.1243 13.4138 11.1084 13.2241 11.1478C13.1545 11.1623 13.0899 11.184 13.0306 11.2133L12.7604 11.3471L12.49 10.8125L12.502 10.5748L12.5103 10.5546C12.0641 10.3441 11.6527 10.1279 10.1759 10.1279C9.08897 10.1279 8.42931 10.3936 8.06073 10.5365V10.8277C8.06073 10.993 7.75856 11.7243 7.75856 11.4254C7.75856 11.1266 7.15422 11.1266 7.15422 11.1266C6.98742 11.1266 6.85205 10.993 6.85205 10.8277V10.5288C6.85205 10.3635 6.98742 10.2299 7.15422 10.2299Z" fill="#252C2F"/>
<path fill-rule="evenodd" clip-rule="evenodd" d="M8.91669 3.92082C9.44244 3.52396 10.064 3.18375 10.7125 3.05311C11.3718 2.92031 11.7719 2.88805 12.4209 3.04555C12.5879 3.08607 12.6443 3.12636 12.7913 3.03017C12.9151 2.94913 13.7794 2.04729 16.4138 2.54785C19.0765 3.05378 19.8675 7.11281 20.8551 7.26722C21.2111 7.32285 21.651 7.22739 21.6648 7.00546C22.0701 7.63038 22.1769 8.4562 22.0051 9.18813C21.8571 9.81846 21.5452 10.4107 20.9835 10.7558C20.5001 11.0528 19.8319 11.1822 19.2734 11.1274C19.0192 11.1025 18.788 11.0483 18.5542 10.9445C18.272 10.8192 18.0472 10.5933 17.7703 10.474C18.0594 10.7275 18.374 10.9512 18.7088 11.1387C18.8765 11.2326 19.0467 11.2973 19.2317 11.3483C19.3581 11.3831 19.6164 11.5017 19.7386 11.4708C18.9401 11.6154 18.1881 11.4894 17.4559 11.1432C17.1255 10.987 16.8077 10.798 16.5159 10.5759C16.2262 10.3554 15.8926 10.1299 15.666 9.83966C15.7611 9.96431 15.5947 9.7789 15.5727 9.75622C15.5105 9.69203 15.4496 9.62654 15.3899 9.55995C15.2874 9.44565 15.1856 9.32922 15.0902 9.20875C14.8863 8.9513 14.6963 8.68237 14.5269 8.40054C14.3554 8.1151 13.6721 6.9637 13.4658 6.69269C13.6607 7.28387 13.8729 7.87529 14.1212 8.44568C13.6391 8.29343 13.1717 7.87146 12.8637 7.47822C12.5168 7.03536 12.3114 6.51837 12.239 5.95929C11.8478 7.03807 10.9314 7.88879 9.9857 8.47555C10.1906 8.08921 10.5028 7.76246 10.707 7.36961C9.76698 8.33583 8.19434 8.80856 7.78244 10.2255C7.67686 9.73276 7.3373 9.33679 7.23557 8.83419C7.12263 8.27609 7.04158 7.68364 7.05952 7.11325C7.10016 5.84536 7.94234 4.65631 8.91669 3.92082Z" fill="#28354B"/>
<mask id="mask4" mask-type="alpha" maskUnits="userSpaceOnUse" x="7" y="2" width="16" height="10">
<path fill-rule="evenodd" clip-rule="evenodd" d="M8.91669 3.92082C9.44244 3.52396 10.064 3.18375 10.7125 3.05311C11.3718 2.92031 11.7719 2.88805 12.4209 3.04555C12.5879 3.08607 12.6443 3.12636 12.7913 3.03017C12.9151 2.94913 13.7794 2.04729 16.4138 2.54785C19.0765 3.05378 19.8675 7.11281 20.8551 7.26722C21.2111 7.32285 21.651 7.22739 21.6648 7.00546C22.0701 7.63038 22.1769 8.4562 22.0051 9.18813C21.8571 9.81846 21.5452 10.4107 20.9835 10.7558C20.5001 11.0528 19.8319 11.1822 19.2734 11.1274C19.0192 11.1025 18.788 11.0483 18.5542 10.9445C18.272 10.8192 18.0472 10.5933 17.7703 10.474C18.0594 10.7275 18.374 10.9512 18.7088 11.1387C18.8765 11.2326 19.0467 11.2973 19.2317 11.3483C19.3581 11.3831 19.6164 11.5017 19.7386 11.4708C18.9401 11.6154 18.1881 11.4894 17.4559 11.1432C17.1255 10.987 16.8077 10.798 16.5159 10.5759C16.2262 10.3554 15.8926 10.1299 15.666 9.83966C15.7611 9.96431 15.5947 9.7789 15.5727 9.75622C15.5105 9.69203 15.4496 9.62654 15.3899 9.55995C15.2874 9.44565 15.1856 9.32922 15.0902 9.20875C14.8863 8.9513 14.6963 8.68237 14.5269 8.40054C14.3554 8.1151 13.6721 6.9637 13.4658 6.69269C13.6607 7.28387 13.8729 7.87529 14.1212 8.44568C13.6391 8.29343 13.1717 7.87146 12.8637 7.47822C12.5168 7.03536 12.3114 6.51837 12.239 5.95929C11.8478 7.03807 10.9314 7.88879 9.9857 8.47555C10.1906 8.08921 10.5028 7.76246 10.707 7.36961C9.76698 8.33583 8.19434 8.80856 7.78244 10.2255C7.67686 9.73276 7.3373 9.33679 7.23557 8.83419C7.12263 8.27609 7.04158 7.68364 7.05952 7.11325C7.10016 5.84536 7.94234 4.65631 8.91669 3.92082Z" fill="white"/>
</mask>
<g mask="url(#mask4)">
<rect width="27" height="29" fill="#4A312C"/>
</g>
</g>
</svg>
