<svg width="27" height="29" viewBox="0 0 27 29" fill="none" xmlns="http://www.w3.org/2000/svg">
<path fill-rule="evenodd" clip-rule="evenodd" d="M13.5 3.72856C10.3369 3.72856 7.7727 6.29275 7.7727 9.45584V10.167C7.19226 10.2643 6.74998 10.7692 6.74998 11.3773V12.8584C6.74998 13.4752 7.20486 13.9856 7.79742 14.0726C7.98795 16.1269 9.26344 17.8666 11.0454 18.7131V20.633C6.70004 20.9487 3.27271 24.5741 3.27271 29H23.7272C23.7272 24.5741 20.2999 20.9487 15.9545 20.633V18.7131C17.7365 17.8666 19.012 16.1269 19.2025 14.0726C19.7951 13.9856 20.25 13.4752 20.25 12.8584V11.3773C20.25 10.7692 19.8077 10.2643 19.2272 10.167V9.45584C19.2272 6.29275 16.6631 3.72856 13.5 3.72856Z" fill="#D0C6AC"/>
<mask id="mask0" mask-type="alpha" maskUnits="userSpaceOnUse" x="3" y="3" width="21" height="26">
<path fill-rule="evenodd" clip-rule="evenodd" d="M13.5 3.72856C10.3369 3.72856 7.7727 6.29275 7.7727 9.45584V10.167C7.19226 10.2643 6.74998 10.7692 6.74998 11.3773V12.8584C6.74998 13.4752 7.20486 13.9856 7.79742 14.0726C7.98795 16.1269 9.26344 17.8666 11.0454 18.7131V20.633C6.70004 20.9487 3.27271 24.5741 3.27271 29H23.7272C23.7272 24.5741 20.2999 20.9487 15.9545 20.633V18.7131C17.7365 17.8666 19.012 16.1269 19.2025 14.0726C19.7951 13.9856 20.25 13.4752 20.25 12.8584V11.3773C20.25 10.7692 19.8077 10.2643 19.2272 10.167V9.45584C19.2272 6.29275 16.6631 3.72856 13.5 3.72856Z" fill="white"/>
</mask>
<g mask="url(#mask0)">
<rect y="3.72856" width="27" height="25.2714" fill="#D08B5B"/>
<path fill-rule="evenodd" clip-rule="evenodd" d="M7.77271 13.537V14.3656C7.77271 17.5286 10.3369 20.0928 13.5 20.0928C16.6631 20.0928 19.2273 17.5286 19.2273 14.3656V13.537C19.2273 16.7001 16.6631 19.2643 13.5 19.2643C10.3369 19.2643 7.77271 16.7001 7.77271 13.537Z" fill="black" fill-opacity="0.1"/>
</g>
<path fill-rule="evenodd" clip-rule="evenodd" d="M18.6136 21.3717C18.6136 23.058 16.3471 24.425 13.5511 24.425C10.7552 24.425 8.48861 23.058 8.48861 21.3717C8.48861 21.3253 8.49033 21.2791 8.49373 21.2332C5.43123 22.4816 3.27271 25.4887 3.27271 29H23.7272C23.7272 25.529 21.6179 22.5506 18.6112 21.2768C18.6128 21.3083 18.6136 21.34 18.6136 21.3717Z" fill="#E6E6E6"/>
<mask id="mask1" mask-type="alpha" maskUnits="userSpaceOnUse" x="3" y="21" width="21" height="8">
<path fill-rule="evenodd" clip-rule="evenodd" d="M18.6136 21.3717C18.6136 23.058 16.3471 24.425 13.5511 24.425C10.7552 24.425 8.48861 23.058 8.48861 21.3717C8.48861 21.3253 8.49033 21.2791 8.49373 21.2332C5.43123 22.4816 3.27271 25.4887 3.27271 29H23.7272C23.7272 25.529 21.6179 22.5506 18.6112 21.2768C18.6128 21.3083 18.6136 21.34 18.6136 21.3717Z" fill="white"/>
</mask>
<g mask="url(#mask1)">
<rect y="17.6071" width="27" height="11.3929" fill="white"/>
</g>
<mask id="mask2" mask-type="alpha" maskUnits="userSpaceOnUse" x="0" y="0" width="27" height="29">
<rect width="27" height="29" fill="white"/>
</mask>
<g mask="url(#mask2)">
<path fill-rule="evenodd" clip-rule="evenodd" d="M15.3527 2.92929C15.6656 2.6215 15.8522 2.23379 15.8522 1.8125C15.8522 0.811484 14.799 0 13.4999 0C12.2008 0 11.1476 0.811484 11.1476 1.8125C11.1476 2.23637 11.3365 2.62625 11.6528 2.93493C11.552 2.95787 11.453 2.98188 11.356 3.00668C9.81245 3.40107 8.89936 4.52103 8.11594 6.17783C7.73128 6.99137 7.50325 7.9534 7.46818 8.85343C7.45441 9.2068 7.50146 9.57157 7.59547 9.91182C7.62996 10.0367 7.81592 10.4697 7.86698 10.1198C7.87701 10.051 7.85942 9.96681 7.8421 9.88388C7.83009 9.82641 7.81822 9.76956 7.81575 9.71889C7.80786 9.55647 7.81634 9.39194 7.82727 9.22976C7.84771 8.92655 7.90109 8.6291 7.99608 8.34005C8.13181 7.92702 8.3046 7.47919 8.56908 7.13069C8.66717 7.00147 8.76106 6.85134 8.86263 6.68895C9.43896 5.7675 10.2623 4.45104 13.4999 4.3159C17.0082 4.16945 18.2838 6.55985 18.7376 7.41012C18.7763 7.4828 18.8091 7.54423 18.8368 7.59186C19.1094 8.06145 19.121 8.60136 19.1325 9.13628C19.1385 9.41707 19.1445 9.6965 19.1882 9.96365C19.2365 10.2588 19.3462 10.2522 19.4063 9.9882C19.5083 9.53978 19.5564 9.07391 19.524 8.61293C19.4505 7.57226 19.0734 4.83738 17.0088 3.62563C16.4522 3.29896 15.897 3.07478 15.3527 2.92929Z" fill="#28354B"/>
<mask id="mask3" mask-type="alpha" maskUnits="userSpaceOnUse" x="7" y="0" width="13" height="11">
<path fill-rule="evenodd" clip-rule="evenodd" d="M15.3527 2.92929C15.6656 2.6215 15.8522 2.23379 15.8522 1.8125C15.8522 0.811484 14.799 0 13.4999 0C12.2008 0 11.1476 0.811484 11.1476 1.8125C11.1476 2.23637 11.3365 2.62625 11.6528 2.93493C11.552 2.95787 11.453 2.98188 11.356 3.00668C9.81245 3.40107 8.89936 4.52103 8.11594 6.17783C7.73128 6.99137 7.50325 7.9534 7.46818 8.85343C7.45441 9.2068 7.50146 9.57157 7.59547 9.91182C7.62996 10.0367 7.81592 10.4697 7.86698 10.1198C7.87701 10.051 7.85942 9.96681 7.8421 9.88388C7.83009 9.82641 7.81822 9.76956 7.81575 9.71889C7.80786 9.55647 7.81634 9.39194 7.82727 9.22976C7.84771 8.92655 7.90109 8.6291 7.99608 8.34005C8.13181 7.92702 8.3046 7.47919 8.56908 7.13069C8.66717 7.00147 8.76106 6.85134 8.86263 6.68895C9.43896 5.7675 10.2623 4.45104 13.4999 4.3159C17.0082 4.16945 18.2838 6.55985 18.7376 7.41012C18.7763 7.4828 18.8091 7.54423 18.8368 7.59186C19.1094 8.06145 19.121 8.60136 19.1325 9.13628C19.1385 9.41707 19.1445 9.6965 19.1882 9.96365C19.2365 10.2588 19.3462 10.2522 19.4063 9.9882C19.5083 9.53978 19.5564 9.07391 19.524 8.61293C19.4505 7.57226 19.0734 4.83738 17.0088 3.62563C16.4522 3.29896 15.897 3.07478 15.3527 2.92929Z" fill="white"/>
</mask>
<g mask="url(#mask3)">
<rect width="27" height="29" fill="#724133"/>
</g>
</g>
</svg>
