<svg width="27" height="29" viewBox="0 0 27 29" fill="none" xmlns="http://www.w3.org/2000/svg">
<path fill-rule="evenodd" clip-rule="evenodd" d="M13.5 3.72856C10.3369 3.72856 7.7727 6.29275 7.7727 9.45584V10.167C7.19226 10.2643 6.74998 10.7692 6.74998 11.3773V12.8584C6.74998 13.4752 7.20486 13.9856 7.79742 14.0726C7.98795 16.1269 9.26344 17.8666 11.0454 18.7131V20.633C6.70004 20.9487 3.27271 24.5741 3.27271 29H23.7272C23.7272 24.5741 20.2999 20.9487 15.9545 20.633V18.7131C17.7365 17.8666 19.012 16.1269 19.2025 14.0726C19.7951 13.9856 20.25 13.4752 20.25 12.8584V11.3773C20.25 10.7692 19.8077 10.2643 19.2272 10.167V9.45584C19.2272 6.29275 16.6631 3.72856 13.5 3.72856Z" fill="#D0C6AC"/>
<mask id="mask0" mask-type="alpha" maskUnits="userSpaceOnUse" x="3" y="3" width="21" height="26">
<path fill-rule="evenodd" clip-rule="evenodd" d="M13.5 3.72856C10.3369 3.72856 7.7727 6.29275 7.7727 9.45584V10.167C7.19226 10.2643 6.74998 10.7692 6.74998 11.3773V12.8584C6.74998 13.4752 7.20486 13.9856 7.79742 14.0726C7.98795 16.1269 9.26344 17.8666 11.0454 18.7131V20.633C6.70004 20.9487 3.27271 24.5741 3.27271 29H23.7272C23.7272 24.5741 20.2999 20.9487 15.9545 20.633V18.7131C17.7365 17.8666 19.012 16.1269 19.2025 14.0726C19.7951 13.9856 20.25 13.4752 20.25 12.8584V11.3773C20.25 10.7692 19.8077 10.2643 19.2272 10.167V9.45584C19.2272 6.29275 16.6631 3.72856 13.5 3.72856Z" fill="white"/>
</mask>
<g mask="url(#mask0)">
<rect y="3.72856" width="27" height="25.2714" fill="#D08B5B"/>
<path fill-rule="evenodd" clip-rule="evenodd" d="M7.77271 13.537V14.3656C7.77271 17.5286 10.3369 20.0928 13.5 20.0928C16.6631 20.0928 19.2273 17.5286 19.2273 14.3656V13.537C19.2273 16.7001 16.6631 19.2643 13.5 19.2643C10.3369 19.2643 7.77271 16.7001 7.77271 13.537Z" fill="black" fill-opacity="0.1"/>
</g>
<path fill-rule="evenodd" clip-rule="evenodd" d="M16.2613 20.9268C16.2613 22.3568 15.025 23.5161 13.5 23.5161C11.9749 23.5161 10.7386 22.3568 10.7386 20.9268C10.7386 20.8382 10.7434 20.7506 10.7526 20.6642C6.54746 21.1151 3.27271 24.6751 3.27271 29H23.7272C23.7272 24.6751 20.4525 21.1151 16.2473 20.6642C16.2566 20.7506 16.2613 20.8382 16.2613 20.9268Z" fill="#E6E6E6"/>
<mask id="mask1" mask-type="alpha" maskUnits="userSpaceOnUse" x="3" y="20" width="21" height="9">
<path fill-rule="evenodd" clip-rule="evenodd" d="M16.2613 20.9268C16.2613 22.3568 15.025 23.5161 13.5 23.5161C11.9749 23.5161 10.7386 22.3568 10.7386 20.9268C10.7386 20.8382 10.7434 20.7506 10.7526 20.6642C6.54746 21.1151 3.27271 24.6751 3.27271 29H23.7272C23.7272 24.6751 20.4525 21.1151 16.2473 20.6642C16.2566 20.7506 16.2613 20.8382 16.2613 20.9268Z" fill="white"/>
</mask>
<g mask="url(#mask1)">
<rect y="17.6071" width="27" height="11.3929" fill="#3C4F5C"/>
</g>
<path fill-rule="evenodd" clip-rule="evenodd" d="M11.0454 19.8413C10.3533 20.318 9.92041 20.9981 9.92041 21.7529C9.92041 22.5191 10.3665 23.2083 11.077 23.6859L11.7021 23.1872L12.1704 23.2215L12.0681 22.8952L12.0761 22.8888C11.4522 22.5634 11.0454 22.0297 11.0454 21.4265C11.0454 21.4265 11.0454 21.4265 11.0454 21.4265V19.8413ZM15.9545 21.4265C15.9545 21.4265 15.9545 21.4265 15.9545 21.4265C15.9545 22.0297 15.5477 22.5634 14.9238 22.8888L14.9318 22.8952L14.8295 23.2215L15.2978 23.1872L15.8756 23.6482C16.5541 23.1724 16.9772 22.4992 16.9772 21.7529C16.9772 21.036 16.5867 20.3865 15.9545 19.9147V21.4265Z" fill="#F2F2F2"/>
<mask id="mask2" mask-type="alpha" maskUnits="userSpaceOnUse" x="0" y="0" width="27" height="29">
<rect width="27" height="29" fill="white"/>
</mask>
<g mask="url(#mask2)">
<path fill-rule="evenodd" clip-rule="evenodd" d="M18.6833 4.03399C19.2362 3.52129 19.3693 2.48174 19.0553 1.80726C18.6699 0.979156 17.8877 0.875411 17.1382 1.23962C16.4317 1.58295 15.8028 1.69732 15.0291 1.53097C14.2867 1.37136 13.5825 1.08985 12.8152 1.04362C11.5547 0.967667 10.33 1.44116 9.47086 2.39554C9.30694 2.57761 9.17487 2.78578 9.05003 2.99678C8.95013 3.16561 8.83753 3.34675 8.79504 3.54134C8.77482 3.63387 8.81245 3.86217 8.76694 3.93799C8.71773 4.01985 8.53214 4.09495 8.45303 4.15569C8.2928 4.2788 8.15396 4.41774 8.02557 4.57487C7.7529 4.90853 7.60281 5.25705 7.47658 5.6698C7.05696 7.0416 7.0214 8.67321 7.56386 10.0202C7.63617 10.1998 7.86027 10.5745 7.992 10.1899C8.01803 10.1138 7.95779 9.85905 7.95793 9.78234C7.9584 9.50062 8.11196 7.63543 8.78093 6.59057C8.99868 6.25046 10.0054 4.97685 10.2111 4.96663C10.32 5.14196 11.4261 6.26219 14.2961 6.13091C15.5911 6.07167 16.587 5.48247 16.8261 5.22706C16.9313 5.8001 18.1549 6.65799 18.3413 7.01098C18.8799 8.0307 18.9994 10.1496 19.205 10.1456C19.4106 10.1416 19.5582 9.60313 19.6004 9.50031C19.9146 8.73643 19.9681 7.77769 19.9346 6.95674C19.8909 5.90009 19.4602 4.75828 18.6833 4.03399Z" fill="#28354B"/>
<mask id="mask3" mask-type="alpha" maskUnits="userSpaceOnUse" x="7" y="1" width="13" height="10">
<path fill-rule="evenodd" clip-rule="evenodd" d="M18.6833 4.03399C19.2362 3.52129 19.3693 2.48174 19.0553 1.80726C18.6699 0.979156 17.8877 0.875411 17.1382 1.23962C16.4317 1.58295 15.8028 1.69732 15.0291 1.53097C14.2867 1.37136 13.5825 1.08985 12.8152 1.04362C11.5547 0.967667 10.33 1.44116 9.47086 2.39554C9.30694 2.57761 9.17487 2.78578 9.05003 2.99678C8.95013 3.16561 8.83753 3.34675 8.79504 3.54134C8.77482 3.63387 8.81245 3.86217 8.76694 3.93799C8.71773 4.01985 8.53214 4.09495 8.45303 4.15569C8.2928 4.2788 8.15396 4.41774 8.02557 4.57487C7.7529 4.90853 7.60281 5.25705 7.47658 5.6698C7.05696 7.0416 7.0214 8.67321 7.56386 10.0202C7.63617 10.1998 7.86027 10.5745 7.992 10.1899C8.01803 10.1138 7.95779 9.85905 7.95793 9.78234C7.9584 9.50062 8.11196 7.63543 8.78093 6.59057C8.99868 6.25046 10.0054 4.97685 10.2111 4.96663C10.32 5.14196 11.4261 6.26219 14.2961 6.13091C15.5911 6.07167 16.587 5.48247 16.8261 5.22706C16.9313 5.8001 18.1549 6.65799 18.3413 7.01098C18.8799 8.0307 18.9994 10.1496 19.205 10.1456C19.4106 10.1416 19.5582 9.60313 19.6004 9.50031C19.9146 8.73643 19.9681 7.77769 19.9346 6.95674C19.8909 5.90009 19.4602 4.75828 18.6833 4.03399Z" fill="white"/>
</mask>
<g mask="url(#mask3)">
<rect width="27" height="29" fill="#724133"/>
</g>
<path fill-rule="evenodd" clip-rule="evenodd" d="M10.0472 13.775H10.3293C11.8349 13.775 12.8861 12.9018 12.8861 11.6518C12.8861 10.5774 12.7003 9.52858 10.4796 9.52858H10.1789C7.95829 9.52858 7.77246 10.5774 7.77246 11.6518C7.77246 12.9812 8.62283 13.775 10.0472 13.775ZM8.18155 11.7555C8.18155 10.8585 8.18155 10.15 10.1641 10.15H10.4944C12.477 10.15 12.477 10.8585 12.477 11.7555C12.477 12.7007 11.5939 13.3607 10.3293 13.3607H10.0195C8.50026 13.3607 8.18155 12.4878 8.18155 11.7555Z" fill="#252C2F"/>
<path fill-rule="evenodd" clip-rule="evenodd" d="M16.3883 13.775H16.6703C18.1759 13.775 19.2272 12.9018 19.2272 11.6518C19.2272 10.5774 19.0413 9.52858 16.8207 9.52858H16.52C14.2994 9.52858 14.1135 10.5774 14.1135 11.6518C14.1135 12.9812 14.9639 13.775 16.3883 13.775ZM14.5226 11.7555C14.5226 10.8585 14.5226 10.15 16.5052 10.15H16.8355C18.8181 10.15 18.8181 10.8585 18.8181 11.7555C18.8181 12.7007 17.9349 13.3607 16.6703 13.3607H16.3606C14.8417 13.3607 14.5226 12.4878 14.5226 11.7555Z" fill="#252C2F"/>
<path d="M7.15422 10.1263C7.22493 10.0564 7.99848 9.52858 10.1759 9.52858C12.0016 9.52858 12.3881 9.72046 12.9731 10.0104L13.0159 10.0318C13.0566 10.0463 13.2646 10.1179 13.5079 10.1258C13.7295 10.1161 13.9191 10.0553 13.9745 10.0358C14.6422 9.70694 15.2958 9.52858 16.8236 9.52858C19.0011 9.52858 19.7746 10.0564 19.8453 10.1263C20.0124 10.1263 20.1475 10.26 20.1475 10.4252V10.7241C20.1475 10.8894 20.0124 11.023 19.8453 11.023C19.8453 11.023 19.1395 11.023 19.1395 11.3219C19.1395 11.6208 18.9388 10.8894 18.9388 10.7241V10.433C18.5703 10.2902 17.9106 10.0243 16.8236 10.0243C15.6126 10.0243 15.0094 10.2418 14.4921 10.4577L14.4978 10.4719L14.4976 10.6776L14.2708 11.2317L13.9907 11.1195C13.9657 11.1095 13.9117 11.0915 13.8369 11.0728C13.6283 11.0207 13.4138 11.0048 13.2241 11.0443C13.1545 11.0587 13.0899 11.0805 13.0306 11.1098L12.7604 11.2435L12.49 10.7089L12.502 10.4713L12.5103 10.4511C12.0641 10.2405 11.6527 10.0243 10.1759 10.0243C9.08897 10.0243 8.42931 10.2901 8.06073 10.4329V10.7241C8.06073 10.8894 7.75856 11.6208 7.75856 11.3219C7.75856 11.023 7.15422 11.023 7.15422 11.023C6.98742 11.023 6.85205 10.8894 6.85205 10.7241V10.4252C6.85205 10.26 6.98742 10.1263 7.15422 10.1263Z" fill="#252C2F"/>
</g>
</svg>
