<svg width="27" height="29" viewBox="0 0 27 29" fill="none" xmlns="http://www.w3.org/2000/svg">
<path fill-rule="evenodd" clip-rule="evenodd" d="M13.5 3.72856C10.3369 3.72856 7.7727 6.29275 7.7727 9.45584V10.167C7.19226 10.2643 6.74998 10.7692 6.74998 11.3773V12.8584C6.74998 13.4752 7.20486 13.9856 7.79742 14.0726C7.98795 16.1269 9.26344 17.8666 11.0454 18.7131V20.633C6.70004 20.9487 3.27271 24.5741 3.27271 29H23.7272C23.7272 24.5741 20.2999 20.9487 15.9545 20.633V18.7131C17.7365 17.8666 19.012 16.1269 19.2025 14.0726C19.7951 13.9856 20.25 13.4752 20.25 12.8584V11.3773C20.25 10.7692 19.8077 10.2643 19.2272 10.167V9.45584C19.2272 6.29275 16.6631 3.72856 13.5 3.72856Z" fill="#D0C6AC"/>
<mask id="mask0" mask-type="alpha" maskUnits="userSpaceOnUse" x="3" y="3" width="21" height="26">
<path fill-rule="evenodd" clip-rule="evenodd" d="M13.5 3.72856C10.3369 3.72856 7.7727 6.29275 7.7727 9.45584V10.167C7.19226 10.2643 6.74998 10.7692 6.74998 11.3773V12.8584C6.74998 13.4752 7.20486 13.9856 7.79742 14.0726C7.98795 16.1269 9.26344 17.8666 11.0454 18.7131V20.633C6.70004 20.9487 3.27271 24.5741 3.27271 29H23.7272C23.7272 24.5741 20.2999 20.9487 15.9545 20.633V18.7131C17.7365 17.8666 19.012 16.1269 19.2025 14.0726C19.7951 13.9856 20.25 13.4752 20.25 12.8584V11.3773C20.25 10.7692 19.8077 10.2643 19.2272 10.167V9.45584C19.2272 6.29275 16.6631 3.72856 13.5 3.72856Z" fill="white"/>
</mask>
<g mask="url(#mask0)">
<rect y="3.72856" width="27" height="25.2714" fill="#D08B5B"/>
<path fill-rule="evenodd" clip-rule="evenodd" d="M7.77271 13.537V14.3656C7.77271 17.5287 10.3369 20.0929 13.5 20.0929C16.6631 20.0929 19.2273 17.5287 19.2273 14.3656V13.537C19.2273 16.7001 16.6631 19.2643 13.5 19.2643C10.3369 19.2643 7.77271 16.7001 7.77271 13.537Z" fill="black" fill-opacity="0.1"/>
</g>
<path fill-rule="evenodd" clip-rule="evenodd" d="M10.987 20.6424C6.66976 20.9836 3.27271 24.5951 3.27271 29H23.7272C23.7272 24.5951 20.3303 20.9837 16.0131 20.6425C15.9045 22.0683 15.2782 23.4594 14.1391 24.4997C13.776 24.8313 13.2241 24.8313 12.861 24.4997C11.7219 23.4594 11.0956 22.0683 10.987 20.6424Z" fill="#E6E6E6"/>
<mask id="mask1" mask-type="alpha" maskUnits="userSpaceOnUse" x="3" y="20" width="21" height="9">
<path fill-rule="evenodd" clip-rule="evenodd" d="M10.987 20.6424C6.66976 20.9836 3.27271 24.5951 3.27271 29H23.7272C23.7272 24.5951 20.3303 20.9837 16.0131 20.6425C15.9045 22.0683 15.2782 23.4594 14.1391 24.4997C13.776 24.8313 13.2241 24.8313 12.861 24.4997C11.7219 23.4594 11.0956 22.0683 10.987 20.6424Z" fill="white"/>
</mask>
<g mask="url(#mask1)">
<rect y="17.6071" width="27" height="11.3929" fill="#262E33"/>
</g>
<mask id="mask2" mask-type="alpha" maskUnits="userSpaceOnUse" x="0" y="0" width="27" height="29">
<rect width="27" height="29" fill="white"/>
</mask>
<g mask="url(#mask2)">
<path fill-rule="evenodd" clip-rule="evenodd" d="M15.2612 17.6246C15.0072 17.8622 14.7366 17.969 14.3946 17.8943C14.3357 17.8815 14.0958 17.4243 13.4999 17.4243C12.9041 17.4243 12.6642 17.8815 12.6053 17.8943C12.2633 17.969 11.9927 17.8622 11.7387 17.6246C11.2612 17.1779 10.8641 16.5619 11.1027 15.8898C11.2271 15.5395 11.4293 15.155 11.7972 15.0433C12.1901 14.9242 12.7417 15.0431 13.1377 14.9617C13.2659 14.9354 13.406 14.8885 13.4999 14.8107C13.5938 14.8885 13.734 14.9354 13.8622 14.9617C14.2582 15.0431 14.8098 14.9242 15.2026 15.0433C15.5706 15.155 15.7728 15.5395 15.8972 15.8898C16.1358 16.5619 15.7387 17.1779 15.2612 17.6246ZM19.1672 10.15C18.8225 11.02 18.9556 12.1031 18.8919 13.0164C18.8401 13.7588 18.6878 14.8714 18.0446 15.3508C17.7158 15.5959 17.1171 16.008 16.6874 15.8931C16.3915 15.8139 16.36 14.9443 15.9712 14.6188C15.5303 14.2496 14.9796 14.0874 14.4245 14.1124C14.1849 14.1232 13.7004 14.1207 13.4999 14.3095C13.2994 14.1207 12.8149 14.1232 12.5753 14.1124C12.0201 14.0874 11.4695 14.2496 11.0285 14.6188C10.6398 14.9443 10.6083 15.8139 10.3124 15.8931C9.88271 16.008 9.28406 15.5959 8.95514 15.3508C8.31196 14.8714 8.15975 13.7588 8.10788 13.0164C8.04413 12.1031 8.17723 11.02 7.8326 10.15C7.66494 10.15 7.77552 11.8205 7.77552 11.8205V13.9288C7.77872 15.5122 8.74374 17.8822 10.8834 18.7871C11.4066 19.0084 12.5919 19.3679 13.4999 19.3679C14.4078 19.3679 15.5931 19.0427 16.1164 18.8213C18.256 17.9164 19.2211 15.5122 19.2243 13.9288V11.8205C19.2243 11.8205 19.3348 10.15 19.1672 10.15Z" fill="#331B0C"/>
<mask id="mask3" mask-type="alpha" maskUnits="userSpaceOnUse" x="7" y="10" width="13" height="10">
<path fill-rule="evenodd" clip-rule="evenodd" d="M15.2612 17.6246C15.0072 17.8622 14.7366 17.969 14.3946 17.8943C14.3357 17.8815 14.0958 17.4243 13.4999 17.4243C12.9041 17.4243 12.6642 17.8815 12.6053 17.8943C12.2633 17.969 11.9927 17.8622 11.7387 17.6246C11.2612 17.1779 10.8641 16.5619 11.1027 15.8898C11.2271 15.5395 11.4293 15.155 11.7972 15.0433C12.1901 14.9242 12.7417 15.0431 13.1377 14.9617C13.2659 14.9354 13.406 14.8885 13.4999 14.8107C13.5938 14.8885 13.734 14.9354 13.8622 14.9617C14.2582 15.0431 14.8098 14.9242 15.2026 15.0433C15.5706 15.155 15.7728 15.5395 15.8972 15.8898C16.1358 16.5619 15.7387 17.1779 15.2612 17.6246ZM19.1672 10.15C18.8225 11.02 18.9556 12.1031 18.8919 13.0164C18.8401 13.7588 18.6878 14.8714 18.0446 15.3508C17.7158 15.5959 17.1171 16.008 16.6874 15.8931C16.3915 15.8139 16.36 14.9443 15.9712 14.6188C15.5303 14.2496 14.9796 14.0874 14.4245 14.1124C14.1849 14.1232 13.7004 14.1207 13.4999 14.3095C13.2994 14.1207 12.8149 14.1232 12.5753 14.1124C12.0201 14.0874 11.4695 14.2496 11.0285 14.6188C10.6398 14.9443 10.6083 15.8139 10.3124 15.8931C9.88271 16.008 9.28406 15.5959 8.95514 15.3508C8.31196 14.8714 8.15975 13.7588 8.10788 13.0164C8.04413 12.1031 8.17723 11.02 7.8326 10.15C7.66494 10.15 7.77552 11.8205 7.77552 11.8205V13.9288C7.77872 15.5122 8.74374 17.8822 10.8834 18.7871C11.4066 19.0084 12.5919 19.3679 13.4999 19.3679C14.4078 19.3679 15.5931 19.0427 16.1164 18.8213C18.256 17.9164 19.2211 15.5122 19.2243 13.9288V11.8205C19.2243 11.8205 19.3348 10.15 19.1672 10.15Z" fill="white"/>
</mask>
<g mask="url(#mask3)">
<rect x="5.01123" y="7.45714" width="16.9773" height="15.7429" fill="#724133"/>
</g>
</g>
</svg>
