<svg width="590" height="288" viewBox="0 0 590 288" fill="none" xmlns="http://www.w3.org/2000/svg">
<g clip-path="url(#clip0)">
<path opacity="0.18" d="M33.7653 236.493C24.0486 228.976 16.0336 219.483 10.2484 208.64C4.46322 197.798 1.03916 185.851 0.20181 173.588C-0.635541 161.325 1.13283 149.023 5.39041 137.494C9.64798 125.964 16.2981 115.469 24.9027 106.698C37.7682 93.7088 54.3978 85.3586 68.6678 74.1124C93.3453 54.7831 111.618 26.8645 139.147 12.1039C172.294 -5.67907 212.463 -0.983801 248.869 7.8866C285.274 16.757 321.848 29.4652 359.18 26.26C381.414 24.3341 402.819 16.7992 424.842 13.1301C446.865 9.46107 471.023 10.1218 489.45 22.9705C516.277 41.7938 522.653 79.8339 544.662 104.365C555.323 116.257 569.48 124.72 578.919 137.653C594.102 158.445 593.708 189.667 578.006 210.064C557.893 236.141 521.6 240.274 492.329 254.613C476.037 262.598 461.43 274.111 444.576 280.803C409.153 294.86 369.307 285.709 332.986 274.35C296.665 262.992 259.248 249.328 221.649 254.894C186.536 260.124 154.892 281.815 119.484 285.104C103.051 286.637 84.2861 283.699 74.2437 269.5C63.4429 254.276 48.3864 247.739 33.7653 236.493Z" fill="#6EC7EB"/>
<path d="M43.2876 155.928C52.8243 145.314 52.8243 145.314 63.6392 132.578L109.666 78.6669C119.848 66.9849 123.879 61.6852 129.329 53.363H172.869C171.624 65.0632 171.057 76.8258 171.17 88.5916V157.629H177.322C184.376 157.563 191.416 156.994 198.39 155.928V194.559C191.493 193.711 184.551 193.288 177.603 193.293H171.24V203.907C171.037 212.642 171.606 221.377 172.94 230.012H129.174C130.379 221.222 130.947 212.357 130.874 203.485V193.082H70.8585C57.066 193.082 51.1951 193.293 43.2876 193.926V155.928ZM131.085 133.436C131.085 123.876 131.506 112.209 132.363 102.86C128.149 108.807 124.933 113.052 119.216 120.264L88.2465 158.051H131.085V133.436Z" fill="#6EC7EB"/>
<path d="M43.2876 155.928C52.8243 145.314 52.8243 145.314 63.6392 132.578L109.666 78.6669C119.848 66.9849 123.879 61.6852 129.329 53.363H172.869C171.624 65.0632 171.057 76.8258 171.17 88.5916V157.629H177.322C184.376 157.563 191.416 156.994 198.39 155.928V194.559C191.493 193.711 184.551 193.288 177.603 193.293H171.24V203.907C171.037 212.642 171.606 221.377 172.94 230.012H129.174C130.379 221.222 130.947 212.357 130.874 203.485V193.082H70.8585C57.066 193.082 51.1951 193.293 43.2876 193.926V155.928ZM131.085 133.436C131.085 123.876 131.506 112.209 132.363 102.86C128.149 108.807 124.933 113.052 119.216 120.264L88.2465 158.051H131.085V133.436Z" fill="url(#paint0_linear)"/>
<path d="M279.305 102.691C283.518 103.394 287.437 105.981 291.664 106.909C295.358 107.752 299.249 107.316 302.901 108.61C309.713 111.028 314.137 119.251 315.106 127.503C316.075 135.755 314.347 144.105 312.381 152.118C307.212 173.233 300.19 194.32 287.549 210.331C286.664 211.442 285.597 212.609 284.291 212.58C283.384 212.456 282.537 212.059 281.861 211.442C279.207 209.623 276.779 207.495 274.627 205.102C271.257 201.039 269.304 195.683 267.605 190.369C262.815 175.412 253.672 165.937 251.972 150.08C250.118 133.45 259.206 99.3739 279.305 102.691Z" fill="#6EC7EB"/>
<path d="M265.709 113.347C263.915 113.023 262.065 113.358 260.498 114.289C258.854 115.301 257.434 116.638 256.325 118.219C255.217 119.8 254.443 121.591 254.051 123.483C253.291 127.273 253.153 131.162 253.644 134.996C254.605 146.249 256.785 157.363 260.147 168.144C261.13 171.265 258.321 178.673 260.357 181.232C262.015 183.312 261.186 195.81 263.349 197.356C269.346 201.686 281.805 199.296 287.802 203.626C295.569 209.249 295.049 194.404 293.813 188.289C292.409 181.471 281.861 182.666 273.785 159.639C263.04 128.993 268.462 113.98 265.709 113.347Z" fill="url(#paint1_linear)"/>
<path d="M370.753 155.141C380.29 144.527 380.29 144.527 391.105 131.791L437.131 77.8656C444.315 69.94 450.888 61.4812 456.795 52.5617H500.335C499.09 64.2666 498.522 76.0338 498.636 87.8044V156.8H504.788C511.818 156.723 518.834 156.155 525.785 155.099V193.729C518.89 192.869 511.947 192.442 504.998 192.45H498.636V203.063C498.431 211.798 499 220.534 500.335 229.169H456.64C457.839 220.416 458.407 211.588 458.34 202.754V192.351H398.324C384.532 192.351 378.591 192.562 370.753 193.209V155.141ZM458.55 132.648C458.55 123.089 458.972 111.421 459.815 102.087C455.601 108.019 452.399 112.265 446.668 119.49L415.769 157.277H458.607L458.55 132.648Z" fill="#6EC7EB"/>
<path d="M370.753 155.141C380.29 144.527 380.29 144.527 391.105 131.791L437.131 77.8656C444.315 69.94 450.888 61.4812 456.795 52.5617H500.335C499.09 64.2666 498.522 76.0338 498.636 87.8044V156.8H504.788C511.818 156.723 518.834 156.155 525.785 155.099V193.729C518.89 192.869 511.947 192.442 504.998 192.45H498.636V203.063C498.431 211.798 499 220.534 500.335 229.169H456.64C457.839 220.416 458.407 211.588 458.34 202.754V192.351H398.324C384.532 192.351 378.591 192.562 370.753 193.209V155.141ZM458.55 132.648C458.55 123.089 458.972 111.421 459.815 102.087C455.601 108.019 452.399 112.265 446.668 119.49L415.769 157.277H458.607L458.55 132.648Z" fill="url(#paint2_linear)"/>
<path d="M233.517 212.51C226.754 205.838 221.487 197.802 218.067 188.935C212.479 173.343 209.679 156.888 209.794 140.324C209.794 118.042 215.104 94.9035 223.166 81.5346C236.101 59.8717 258.152 47.993 284.881 47.993C305.457 47.993 323.477 55.0218 336.413 67.6738C343.175 74.3405 348.442 82.3722 351.862 91.2344C357.462 106.896 360.258 123.423 360.121 140.057C360.121 162.352 354.826 185.702 346.764 199.099C334.039 220.354 311.777 232.275 284.838 232.275C264.051 232.275 246.453 225.443 233.517 212.51ZM253.18 138.637C253.18 176.593 263.995 196.161 284.993 196.161C305.991 196.161 316.384 177.057 316.384 139.27C316.384 102.973 305.359 83.8682 284.782 83.8682C264.908 83.8682 253.237 104.027 253.237 138.637H253.18Z" fill="#6EC7EB"/>
<path d="M233.517 212.51C226.754 205.838 221.487 197.802 218.067 188.935C212.479 173.343 209.679 156.888 209.794 140.324C209.794 118.042 215.104 94.9035 223.166 81.5346C236.101 59.8717 258.152 47.993 284.881 47.993C305.457 47.993 323.477 55.0218 336.413 67.6738C343.175 74.3405 348.442 82.3722 351.862 91.2344C357.462 106.896 360.258 123.423 360.121 140.057C360.121 162.352 354.826 185.702 346.764 199.099C334.039 220.354 311.777 232.275 284.838 232.275C264.051 232.275 246.453 225.443 233.517 212.51ZM253.18 138.637C253.18 176.593 263.995 196.161 284.993 196.161C305.991 196.161 316.384 177.057 316.384 139.27C316.384 102.973 305.359 83.8682 284.782 83.8682C264.908 83.8682 253.237 104.027 253.237 138.637H253.18Z" fill="url(#paint3_linear)"/>
<path d="M48.0488 155.141C57.5996 144.527 57.5996 144.527 68.4145 131.791L114.441 77.8656C121.624 69.94 128.198 61.4812 134.104 52.5617H177.645C176.399 64.2666 175.832 76.0338 175.945 87.8044V156.8H182.097C189.151 156.726 196.191 156.158 203.165 155.099V193.729C196.269 192.869 189.327 192.442 182.378 192.45H176.015V203.063C175.811 211.798 176.38 220.534 177.715 229.169H133.95C135.149 220.416 135.716 211.588 135.649 202.754V192.351H75.6197C61.8413 192.351 55.9563 192.562 48.0488 193.209V155.141ZM135.86 132.648C135.86 123.089 136.281 111.421 137.124 102.087C132.91 108.019 129.708 112.265 123.978 119.49L93.078 157.277H135.86V132.648Z" fill="#6EC7EB"/>
<path d="M238.278 213.297C231.516 206.63 226.249 198.599 222.828 189.737C217.226 174.147 214.411 157.692 214.513 141.125C214.513 118.844 219.823 95.7048 227.885 82.3219C240.82 60.673 262.871 48.7943 289.6 48.7943C310.162 48.7943 328.196 55.8231 341.132 68.475C347.898 75.1385 353.166 83.1711 356.581 92.0357C362.213 107.705 365.028 124.249 364.896 140.9C364.896 163.182 359.601 186.546 351.539 199.943C338.814 221.17 316.538 233.048 289.614 233.048C268.827 233.034 251.228 226.245 238.278 213.297ZM258.054 139.495C258.054 177.45 268.869 197.019 289.866 197.019C310.653 197.019 321.258 177.914 321.258 140.141C321.258 103.83 310.218 84.7257 289.656 84.7257C269.669 84.6695 258.054 104.828 258.054 139.495Z" fill="#6EC7EB"/>
<path d="M324.207 65.6213C325.788 66.774 326.992 68.3685 327.669 70.2045C328.347 72.0404 328.466 74.0358 328.014 75.9397C330.663 76.1929 333.237 76.9693 335.585 78.224C337.933 79.4788 340.009 81.1869 341.694 83.2497C344.713 87.2366 346.539 91.9992 346.961 96.984C347.366 101.94 347.257 106.924 346.638 111.857C346.568 113.562 346.217 115.243 345.598 116.834C344.872 118.213 343.849 119.414 342.603 120.349C341.357 121.285 339.919 121.933 338.393 122.246C335.342 122.855 332.218 123.002 329.123 122.681L321.75 122.288C321.506 122.293 321.266 122.24 321.047 122.133C320.9 122.008 320.78 121.853 320.696 121.679C320.611 121.504 320.564 121.315 320.556 121.121C320.05 118.099 319.278 116.777 318.73 113.755C317.361 107.374 314.683 101.347 310.864 96.0562C310.188 95.2654 309.707 94.3264 309.46 93.315C309.375 91.9168 309.687 90.5232 310.359 89.2945C311.357 86.8772 312.183 84.3921 312.831 81.858C313.426 78.8253 314.2 75.8305 315.148 72.8892C316.114 69.9163 318.106 67.3848 320.766 65.7478" fill="url(#paint4_linear)"/>
<path d="M320.766 153.918C320.766 153.918 347.761 156.308 360.093 139.86C365.009 133.337 354.053 102.607 354.053 102.607L341.595 124.931L321.932 129.401L320.766 153.918Z" fill="url(#paint5_linear)"/>
<path d="M375.922 155.141C385.459 144.527 385.459 144.527 396.273 131.791L442.3 77.8656C452.483 66.1977 456.514 60.8839 461.963 52.5617H505.504C504.271 64.2814 503.717 76.0628 503.846 87.8465V156.842H509.998C517.028 156.765 524.045 156.197 530.996 155.141V193.771C524.1 192.912 517.158 192.484 510.209 192.492H503.846V203.106C503.642 211.84 504.211 220.576 505.546 229.211H461.809C463.01 220.444 463.577 211.602 463.508 202.754V192.351H403.493C389.7 192.351 383.759 192.562 375.922 193.209V155.141ZM463.719 132.648C463.719 123.089 464.14 111.421 464.997 102.087C460.783 108.019 457.567 112.265 451.851 119.49L420.881 157.277H463.719V132.648Z" fill="#6EC7EB"/>
<path d="M257.422 105.84C256.694 106.106 255.99 106.43 255.315 106.81C254.681 107.131 254.125 107.587 253.686 108.146C253.471 108.429 253.333 108.762 253.284 109.114C253.235 109.466 253.276 109.825 253.405 110.156C253.69 110.596 254.102 110.94 254.585 111.143C255.068 111.346 255.602 111.399 256.116 111.295C257.843 111.126 259.444 110.269 261.172 109.973C262.899 109.678 264.529 108.483 263.307 106.642C262.085 104.8 259.149 105.194 257.422 105.84Z" fill="#F7AF87"/>
<path d="M262.927 109.973C260.399 109.313 257.759 110.423 255.483 111.702C254.947 111.964 254.469 112.332 254.079 112.785C253.845 112.972 253.676 113.228 253.598 113.517C253.52 113.807 253.536 114.113 253.644 114.393C253.752 114.672 253.947 114.909 254.2 115.07C254.452 115.231 254.749 115.307 255.048 115.287C255.565 115.339 256.087 115.306 256.593 115.189L260.09 114.584C260.904 114.489 261.696 114.261 262.436 113.91C264.023 112.982 265.371 110.578 262.927 109.973Z" fill="#F7AF87"/>
<path d="M258.054 114.626C257.329 114.903 256.625 115.232 255.947 115.61C255.306 115.952 254.75 116.432 254.318 117.016C254.107 117.298 253.971 117.629 253.922 117.978C253.873 118.327 253.912 118.683 254.037 119.012C254.323 119.453 254.734 119.797 255.217 120C255.701 120.203 256.234 120.255 256.748 120.151C258.475 119.982 260.077 119.125 261.804 118.83C263.532 118.534 265.161 117.354 263.939 115.498C262.717 113.642 259.753 113.98 258.054 114.626Z" fill="#F7AF87"/>
<path d="M263.503 118.169C260.905 117.958 258.503 119.575 256.481 121.177C255.989 121.537 255.574 121.991 255.259 122.513C255.066 122.739 254.95 123.021 254.927 123.318C254.904 123.614 254.976 123.91 255.132 124.164C255.288 124.417 255.521 124.614 255.796 124.726C256.071 124.839 256.375 124.861 256.663 124.79C257.177 124.752 257.68 124.628 258.152 124.425L261.481 123.202C262.27 122.965 263.015 122.599 263.686 122.119C265.077 120.966 266.018 118.408 263.503 118.169Z" fill="#F7AF87"/>
<path d="M337.943 78.4841C333.848 76.5307 329.344 75.5906 324.811 75.7429C324.044 75.7058 323.279 75.8303 322.564 76.1084C322.214 76.2612 321.916 76.5128 321.706 76.8323C321.497 77.1519 321.385 77.5256 321.384 77.9077C321.52 78.5746 321.901 79.1663 322.451 79.5666C324.11 81.0762 325.973 82.3445 327.985 83.334C328.593 83.574 329.146 83.9324 329.614 84.3883C329.843 84.6191 329.991 84.9185 330.034 85.2408C330.077 85.5632 330.013 85.8908 329.853 86.1737C329.39 86.8203 328.322 86.8484 327.971 87.5794C327.508 88.4932 328.673 89.3929 329.685 89.5616C330.759 89.7457 331.864 89.6439 332.887 89.2664C333.603 88.8974 334.387 88.6775 335.19 88.6197C335.984 88.79 336.732 89.1306 337.381 89.6178C339.601 90.883 346.497 90.9252 346.061 87.0734C345.654 83.5027 340.78 79.9602 337.943 78.4841Z" fill="#F7AF87"/>
<path d="M304.01 109.481C304.01 109.481 335.064 122.288 338.618 121.627C342.171 120.966 336.427 90.2926 336.427 90.2926L347.017 85.4427C347.017 85.4427 370.894 132.817 351.343 139.705C339.253 143.755 326.153 143.616 314.151 139.312L304.01 109.481Z" fill="#6EC7EB"/>
<path d="M320.527 91.6983C320.418 94.4503 319.769 97.1538 318.617 99.655C317.49 101.519 315.945 103.095 314.104 104.258C312.264 105.422 310.179 106.142 308.013 106.361C306.435 106.462 304.867 106.683 303.322 107.021C302.606 107.168 301.937 107.49 301.376 107.959C300.815 108.427 300.378 109.028 300.105 109.706C298.855 112.743 297.563 115.821 293.532 114.795C293.154 114.711 292.786 114.584 292.437 114.416C291.17 113.82 290.03 112.985 289.08 111.955C287.897 110.757 286.869 109.416 286.018 107.963C285.578 107.291 285.281 106.534 285.147 105.742C285.064 104.768 285.179 103.788 285.484 102.86C286.889 97.2371 287.113 90.8689 289.108 85.3864C291.15 79.8289 295.05 75.15 300.148 72.1441C305.19 69.206 312.198 69.1639 316.482 73.1703C318.826 75.5187 320.31 78.5893 320.696 81.8861C321.033 85.1518 320.976 88.4462 320.527 91.6983Z" fill="#F7AF87"/>
<path d="M286.369 84.6695C286.636 82.0267 286.622 79.3416 287.142 76.741C287.535 74.0839 288.865 71.6554 290.892 69.8949C291.401 69.4903 291.969 69.1678 292.577 68.9389C293.125 68.7421 293.701 68.6297 294.263 68.475C295.913 67.8858 297.488 67.1024 298.954 66.1415C301.177 64.8082 303.608 63.8578 306.145 63.3299C307.86 63.0674 309.593 62.9452 311.328 62.9644C314.511 62.9082 317.709 62.8801 320.921 62.8801C321.674 62.8234 322.431 62.9488 323.126 63.2456C323.889 63.7172 324.446 64.4605 324.685 65.3261C325.296 67.2659 325.296 69.3468 324.685 71.2866C324.063 73.2055 323.239 75.0528 322.227 76.7972C321.733 77.8965 321.038 78.8932 320.176 79.7352C319.432 78.4419 318.772 77.1065 318.098 75.7569C315.949 77.9921 312.564 78.5685 309.474 78.3295C306.384 78.0905 303.35 77.2892 300.26 77.247C299.525 77.1691 298.782 77.237 298.074 77.4468C297.365 77.6567 296.705 78.0044 296.131 78.4701C295.439 79.2773 294.956 80.2431 294.726 81.2816C294.076 83.5956 293.547 85.9417 293.139 88.3104C292.774 87.6216 291.299 85.8222 290.527 85.8503C290.304 85.8719 290.088 85.9392 289.892 86.048C289.696 86.1569 289.525 86.3049 289.389 86.4829C288.111 87.8887 288.743 93.0479 289.923 94.538C290.159 94.7638 290.338 95.0435 290.442 95.3534C290.466 95.5605 290.449 95.7703 290.391 95.9706C290.333 96.1709 290.236 96.3577 290.105 96.5201C289.781 96.9036 289.369 97.2034 288.905 97.3942C288.44 97.585 287.937 97.6613 287.437 97.6166C286.201 97.6166 285.962 95.255 285.836 94.3834C285.316 91.136 286.06 87.8606 286.369 84.6695Z" fill="#606060"/>
<path d="M291.299 90.6019C291.126 90.2386 291.048 89.8368 291.074 89.4351C291.104 89.0324 291.061 88.6278 290.948 88.2402C290.82 87.8847 290.565 87.5893 290.232 87.4107C290.135 87.383 290.033 87.383 289.937 87.4107C289.855 87.4453 289.783 87.4992 289.727 87.5677C289.671 87.6363 289.632 87.7175 289.614 87.8044C289.122 89.3452 289.177 91.0085 289.768 92.5137C289.846 92.7836 289.984 93.0324 290.171 93.2417C290.358 93.451 290.59 93.6154 290.85 93.7227C291.079 93.7686 291.315 93.7566 291.539 93.6879C291.762 93.6191 291.964 93.4958 292.128 93.3291C292.349 93.095 292.5 92.8039 292.565 92.4884C292.629 92.173 292.604 91.8458 292.493 91.5437C292.254 90.9814 291.594 91.1079 291.299 90.6019Z" fill="url(#paint6_linear)"/>
<path d="M303.322 106.993C302.606 107.14 301.937 107.462 301.376 107.931C300.815 108.399 300.378 109 300.105 109.678C298.855 112.715 297.563 115.793 293.532 114.767C293.154 114.683 292.786 114.556 292.437 114.387C292.096 114.096 291.818 113.737 291.622 113.333C291.442 112.859 291.359 112.353 291.378 111.846C291.398 111.338 291.519 110.84 291.734 110.381C292.221 109.2 293.041 108.185 294.093 107.462C295.145 106.738 296.385 106.336 297.661 106.304C298.734 106.354 299.801 106.495 300.85 106.726C301.496 106.81 302.254 106.726 302.844 106.796C303.016 106.827 303.178 106.894 303.322 106.993Z" fill="url(#paint7_linear)"/>
</g>
<defs>
<linearGradient id="paint0_linear" x1="-91.6735" y1="11.7944" x2="369.107" y2="269.406" gradientUnits="userSpaceOnUse">
<stop stop-opacity="0"/>
<stop offset="0.99"/>
</linearGradient>
<linearGradient id="paint1_linear" x1="9195.07" y1="15212.1" x2="3824.31" y2="16697" gradientUnits="userSpaceOnUse">
<stop stop-opacity="0"/>
<stop offset="0.99"/>
</linearGradient>
<linearGradient id="paint2_linear" x1="66315.1" y1="44064.7" x2="16894.2" y2="7080.45" gradientUnits="userSpaceOnUse">
<stop stop-opacity="0"/>
<stop offset="0.99"/>
</linearGradient>
<linearGradient id="paint3_linear" x1="44692.4" y1="30861.8" x2="-2546.25" y2="29298.5" gradientUnits="userSpaceOnUse">
<stop stop-opacity="0"/>
<stop offset="0.99"/>
</linearGradient>
<linearGradient id="paint4_linear" x1="10096.8" y1="6096.03" x2="5220.96" y2="9539.69" gradientUnits="userSpaceOnUse">
<stop stop-opacity="0"/>
<stop offset="0.99"/>
</linearGradient>
<linearGradient id="paint5_linear" x1="10324.7" y1="9377.3" x2="9485.13" y2="6251.37" gradientUnits="userSpaceOnUse">
<stop stop-opacity="0"/>
<stop offset="0.99"/>
</linearGradient>
<linearGradient id="paint6_linear" x1="974.96" y1="903.771" x2="984.286" y2="902.081" gradientUnits="userSpaceOnUse">
<stop stop-opacity="0"/>
<stop offset="0.99"/>
</linearGradient>
<linearGradient id="paint7_linear" x1="2768.06" y1="1305.25" x2="2902.17" y2="1456.78" gradientUnits="userSpaceOnUse">
<stop stop-opacity="0"/>
<stop offset="0.99"/>
</linearGradient>
<clipPath id="clip0">
<rect width="590" height="288" fill="white"/>
</clipPath>
</defs>
</svg>
