<svg width="221" height="123" viewBox="0 0 221 123" fill="none" xmlns="http://www.w3.org/2000/svg">
<path opacity="0.6" d="M201.766 81.0666C201.77 85.6717 200.865 90.2322 199.103 94.4874C197.341 98.7426 194.757 102.609 191.498 105.865C188.239 109.121 184.37 111.704 180.112 113.464C175.853 115.225 171.289 116.129 166.681 116.126H35.4864C26.2622 116.234 17.3668 112.706 10.7268 106.307C4.08681 99.9079 0.236783 91.1527 0.010561 81.9375C-0.215661 72.7223 3.20014 63.789 9.51815 57.0723C15.8362 50.3557 24.5478 46.3964 33.7662 46.0521C35.1404 38.2353 39.2245 31.1515 45.3022 26.0424C51.38 20.9333 59.0637 18.1252 67.006 18.1103H71.4858C79.3319 18.1147 86.9328 20.8427 92.9887 25.8276C96.4276 17.0074 102.847 9.66745 111.133 5.07992C119.419 0.492386 129.051 -1.05358 138.358 0.709954C147.665 2.47349 156.061 7.43538 162.092 14.7356C168.122 22.0359 171.407 31.2144 171.376 40.6804C171.393 42.5711 171.234 44.4594 170.901 46.3207C179.407 47.3407 187.244 51.4392 192.931 57.8414C198.619 64.2436 201.762 72.506 201.766 81.0666Z" fill="#6EC7EB"/>
<path opacity="0.18" d="M220.404 88.0156C220.402 92.5956 219.466 97.1277 217.653 101.337C215.839 105.547 213.186 109.347 209.853 112.507C202.997 119.049 193.856 122.688 184.356 122.654H49.5531C29.6002 122.654 13.4395 107.193 13.4395 88.034C13.4446 83.453 14.3821 78.9205 16.1955 74.7098C18.0089 70.4991 20.6606 66.6973 23.9908 63.5337C30.4174 57.3962 38.8809 53.8128 47.7822 53.4606C49.0206 46.6574 52.3968 40.4206 57.4248 35.6481C64.0152 29.3474 72.8088 25.8413 81.9487 25.8701H86.5846C94.5976 25.8613 102.379 28.5426 108.67 33.4803C114.697 18.6012 129.745 8.05756 147.454 8.05756C170.513 8.05756 189.177 25.9808 189.177 48.1288C189.194 49.9852 189.029 51.8388 188.686 53.6635C206.562 55.739 220.404 70.323 220.404 88.0156Z" fill="#6EC7EB"/>
</svg>
