<svg width="512" height="323" viewBox="0 0 512 323" fill="none" xmlns="http://www.w3.org/2000/svg">
<g clip-path="url(#clip0)">
<path opacity="0.18" d="M2.97103 165.376C1.49147 211.869 37.6939 256.697 83.5017 265.071C113.222 270.514 145.843 262.468 172.745 276.132C189.314 284.541 201.186 300.07 217.05 309.746C237.071 321.944 261.672 323.821 285.157 322.765C310.04 321.663 336.425 316.901 354.591 299.906C376.185 279.685 381.129 247.068 399.741 224.079C415.3 204.856 440.253 192.411 448.684 169.223C456.434 147.865 447.005 123.235 430.976 107.119C414.948 91.0039 393.4 81.7499 372.146 73.5983C350.892 65.4468 329.227 57.8465 310.932 44.0417C297.757 34.1074 286.954 20.0328 271.9 12.7492C237.271 -3.99953 181.411 -5.11377 148.192 14.6141C105.061 40.2416 90.4767 100.023 45.808 122.895C31.4233 130.26 13.2575 134.53 6.25895 149.097C3.83998 154.117 3.14717 159.805 2.97103 165.376Z" fill="#6EC7EB"/>
<path d="M509.381 198.686C509.383 203.426 508.449 208.12 506.634 212.499C504.819 216.878 502.158 220.857 498.802 224.209C495.447 227.56 491.463 230.219 487.078 232.032C482.694 233.845 477.995 234.777 473.25 234.776H38.774C29.1912 234.776 20.0009 230.974 13.2249 224.205C6.44884 217.437 2.64209 208.258 2.64209 198.686" fill="white"/>
<path d="M2.60693 198.686C2.60693 189.115 6.41368 179.935 13.1897 173.167C19.9658 166.399 29.1561 162.597 38.7389 162.597H473.214C482.797 162.597 491.987 166.399 498.763 173.167C505.54 179.935 509.346 189.115 509.346 198.686" fill="white"/>
<path d="M512 198.686C512 208.951 507.917 218.796 500.65 226.055C493.383 233.313 483.527 237.391 473.249 237.391H38.774C28.4967 237.391 18.6403 233.313 11.3732 226.055C4.10607 218.796 0.0234375 208.951 0.0234375 198.686" fill="#6EC7EB"/>
<path d="M0 198.686C0 188.421 4.08263 178.576 11.3498 171.318C18.6169 164.059 28.4732 159.981 38.7505 159.981H473.226C483.503 159.981 493.36 164.059 500.627 171.318C507.894 178.576 511.977 188.421 511.977 198.686" fill="#6EC7EB"/>
<path d="M506.775 198.686C506.765 189.809 503.23 181.299 496.944 175.023C490.659 168.747 482.137 165.218 473.25 165.212H38.7741C34.3195 165.129 29.8929 165.933 25.7532 167.578C21.6134 169.224 17.8435 171.676 14.6637 174.794C11.4839 177.911 8.95813 181.63 7.23389 185.733C5.50965 189.836 4.62158 194.242 4.62158 198.692C4.62158 203.142 5.50965 207.548 7.23389 211.651C8.95813 215.755 11.4839 219.473 14.6637 222.591C17.8435 225.708 21.6134 228.161 25.7532 229.806C29.8929 231.451 34.3195 232.255 38.7741 232.172H473.25C482.138 232.163 490.66 228.632 496.945 222.354C503.23 216.076 506.765 207.564 506.775 198.686Z" fill="white"/>
<path d="M415.981 165.81C415.546 166.347 414.996 166.78 414.372 167.077C409.675 169.798 404.814 172.543 399.541 173.974C395.569 174.953 391.502 175.495 387.411 175.592C378.475 175.999 369.522 175.854 360.603 175.158C343.705 173.833 327.007 170.537 310.11 169.294C293.388 168.121 276.573 168.93 259.828 167.886C257.679 167.746 255.131 167.382 254.121 165.541C253.813 164.882 253.662 164.161 253.68 163.435C253.699 162.708 253.886 161.995 254.227 161.353C256.481 156.662 262.705 155.923 267.895 155.782C304.227 154.797 340.594 153.824 376.913 155.043C383.29 155.266 389.725 155.559 395.901 157.119C400.489 158.254 405.139 159.12 409.828 159.711C412.27 159.958 418.423 162.268 415.981 165.81Z" fill="url(#paint0_linear)"/>
<path d="M371.031 170.807H37.9639C22.6652 170.807 10.2632 183.192 10.2632 198.469C10.2632 213.747 22.6652 226.132 37.9639 226.132H371.031C386.329 226.132 398.731 213.747 398.731 198.469C398.731 183.192 386.329 170.807 371.031 170.807Z" fill="#6EC7EB"/>
<path d="M215.676 176.46C213.487 176.461 211.328 176.971 209.37 177.95C208.189 178.786 207.208 179.872 206.498 181.131C205.787 182.391 205.365 183.791 205.26 185.233C205.072 188.114 205.119 191.005 205.401 193.877C205.718 202.287 203.51 210.556 201.338 218.684C199.553 225.322 197.416 232.477 191.838 236.5C191.374 236.932 190.805 237.235 190.187 237.381C189.57 237.527 188.925 237.51 188.316 237.333C187.141 236.805 186.789 235.397 186.566 234.166C182.949 213.734 190.335 192.986 190.335 172.238C190.335 168.156 190.335 163.394 193.576 160.896C195.584 159.359 198.273 159.172 200.798 159.043L239.349 157.154C245.384 156.861 253.205 155.982 258.912 158.48C266.063 161.635 255.835 166.209 252.078 168.086C240.875 173.727 228.076 175.487 215.676 176.46Z" fill="url(#paint1_linear)"/>
<path d="M259.417 148.768C258.701 153.659 257.303 158.773 253.616 162.069C250.833 164.567 247.087 165.681 243.435 166.538C230.507 169.557 217.146 170.272 203.969 168.649C202.102 168.426 199.8 168.32 198.731 169.822C198.297 170.627 198.086 171.534 198.121 172.449C197.115 192.353 195.093 212.193 192.062 231.891C191.545 235.151 190.97 238.529 189.079 241.274C184.734 247.478 175.751 247.584 168.189 247.068C167.269 247.117 166.364 246.82 165.653 246.235C164.29 244.757 165.993 242.552 167.414 241.145C173.403 235.28 176.021 226.659 176.573 218.285C177.125 209.911 175.845 201.536 175.141 193.162C173.735 176.432 174.668 159.588 177.912 143.115C178.605 139.596 179.474 135.961 181.881 133.322C182.914 132.149 207.257 130.671 208.619 130.002C207.362 128.829 190.723 119.223 189.502 117.968C183.783 128.008 168.212 151.302 164.126 162.116C151.603 163.056 139.017 162.769 126.55 161.26C125.152 157.741 141.815 151.243 145.514 151.536C152.477 131.832 161.954 108.926 174.389 92.083C178.687 86.2186 183.783 80.2603 190.911 78.6652C200.246 76.5657 209.241 82.7116 216.827 88.5291C238.233 104.856 263.997 117.851 259.417 148.768Z" fill="#3E3E54"/>
<path d="M315.371 94.6633C320.819 92.2354 326.667 89.5378 332.527 90.699C336.965 91.5904 340.664 94.5812 344.093 97.5369C348.195 101.048 352.227 104.637 356.188 108.304C359.711 111.576 363.457 115.423 363.609 120.244C363.738 124.314 368.799 160.779 364.783 161.048C355.965 161.635 298.649 161.459 253.663 162.045C249.06 162.104 250.211 163.218 246.677 160.298C236.778 152.088 236.965 121.041 249.19 114.462C258.067 109.688 270.984 109.7 280.707 107.049C292.625 103.812 303.675 98.5807 315.371 94.6633Z" fill="#6EC7EB"/>
<path d="M298.438 100.868C290.699 108.808 282.245 119.153 279.767 129.944C278.898 133.732 284.464 143.96 338.128 133.767C339.689 133.462 348.085 122.918 347.381 120.103C346.676 117.288 327.853 118.766 324.988 118.32C323.661 118.109 322.31 118.379 320.995 118.18C319.68 117.98 311.038 121.393 311.026 120.056C311.026 118.391 320.232 113.218 321.817 112.691C329.65 110.11 352.677 108.21 333.56 95.0973C322.851 87.8137 306.094 93.0682 298.438 100.868Z" fill="url(#paint2_linear)"/>
<path d="M338.409 146.094C338.043 148.028 338.218 150.024 338.914 151.865C339.944 153.711 341.513 155.2 343.412 156.134C355.765 163.394 371.019 162.925 385.333 162.233C388.374 162.081 406.058 162.339 408.818 161.06C413.938 158.714 418.823 151.22 413.374 139.479C410.603 133.368 395.584 112.104 393.834 105.571C389.349 104.07 384.018 104.926 382.961 109.535C381.904 114.145 396.735 138.447 393.834 141.989C387.693 149.484 374.577 130.26 361.942 115.846C354.732 107.647 339.501 137.145 338.409 146.094Z" fill="#6EC7EB"/>
<path d="M350.105 111.787C348.7 112.972 347.508 114.388 346.582 115.975C346.128 116.769 345.877 117.664 345.853 118.578C345.828 119.493 346.03 120.4 346.442 121.217C347.745 123.411 347.299 128.478 362.588 123.774C363.938 123.364 368.6 112.96 368.6 111.541C368.713 109.002 367.913 106.506 366.345 104.504C360.603 97.9004 353.98 108.069 350.105 111.787Z" fill="#F7AF87"/>
<path d="M346.113 122.273L350.81 119.399C350.909 119.331 351.021 119.283 351.139 119.259C351.368 119.241 351.596 119.303 351.784 119.435C353.705 120.384 355.858 120.764 357.989 120.532C360.119 120.299 362.139 119.462 363.809 118.121C361.93 117.91 360.392 116.62 358.877 115.494C357.113 114.176 355.248 112.999 353.299 111.975C352.855 111.701 352.352 111.536 351.831 111.494C351.419 111.54 351.019 111.667 350.656 111.868C350.293 112.069 349.974 112.341 349.718 112.667C347.91 114.456 346.516 116.618 345.631 119.001" fill="url(#paint3_linear)"/>
<path d="M298.144 94.1238C290.406 102.052 281.951 112.397 279.474 123.188C278.605 126.976 275.058 140.781 328.734 130.612C330.295 130.319 329.978 127.703 330.213 126.132C330.832 123.292 330.884 120.359 330.366 117.499C329.661 114.684 327.559 112.01 324.694 111.565C323.367 111.353 322.017 111.623 320.702 111.424C319.387 111.224 310.791 114.602 310.791 113.3C310.791 111.635 319.997 106.463 321.582 105.946C329.415 103.354 352.442 101.454 333.325 88.3532C322.534 81.0579 305.753 86.3124 298.144 94.1238Z" fill="white"/>
<path d="M298.144 94.1238C290.406 102.052 281.951 112.397 279.474 123.188C278.605 126.976 275.058 140.781 328.734 130.612C330.295 130.319 329.978 127.703 330.213 126.132C330.832 123.292 330.884 120.359 330.366 117.499C329.661 114.684 327.559 112.01 324.694 111.565C323.367 111.353 322.017 111.623 320.702 111.424C319.387 111.224 310.791 114.602 310.791 113.3C310.791 111.635 319.997 106.463 321.582 105.946C329.415 103.354 352.442 101.454 333.325 88.3532C322.534 81.0579 305.753 86.3124 298.144 94.1238Z" fill="#6EC7EB"/>
<path d="M388.127 86.2889C389.994 86.3945 391.157 88.4822 391.239 90.3471C391.321 92.212 390.699 94.0651 390.723 95.9418C390.826 97.5098 391.142 99.0565 391.662 100.539C392.484 103.366 393.188 107.119 390.429 109.16C389.606 109.69 388.661 109.999 387.683 110.056C386.706 110.114 385.731 109.918 384.851 109.489C379.097 107.143 379.72 101.912 382.503 97.4782C383.16 96.5165 388.127 86.2889 388.127 86.2889Z" fill="#F7AF87"/>
<path d="M348.367 101.431C348.097 105.946 348.613 110.673 351.185 114.497C353.757 118.32 358.83 120.924 363.491 119.775C366.533 119.012 368.928 116.878 371.077 114.731C378.31 107.506 384.628 98.8153 385.661 88.9279C386.126 85.9499 385.628 82.9015 384.24 80.2251C382.62 77.4571 379.72 75.5336 376.737 74.0792C373.578 72.3939 370.095 71.4022 366.521 71.1705C363.343 71.0665 360.215 71.9832 357.597 73.786C355.248 75.428 354.673 77.8794 353.675 80.4597C351.021 87.2507 348.766 94.2293 348.367 101.431Z" fill="#F7AF87"/>
<path d="M337.576 104.41L346.148 91.8366C346.376 91.501 346.671 91.2163 347.015 91.0006C347.359 90.7848 347.744 90.6427 348.146 90.5832C348.547 90.5236 348.957 90.548 349.349 90.6548C349.741 90.7615 350.106 90.9483 350.422 91.2033L358.642 97.8653C359.212 98.3266 359.589 98.9827 359.702 99.7065C359.815 100.43 359.655 101.17 359.252 101.783L342.813 126.566C342.578 126.916 342.272 127.212 341.914 127.434C341.555 127.656 341.154 127.799 340.736 127.853C340.318 127.908 339.893 127.872 339.49 127.749C339.086 127.626 338.714 127.419 338.398 127.14L333.701 122.965C333.284 122.597 332.98 122.118 332.827 121.584C332.673 121.05 332.674 120.484 332.832 119.951L337.176 105.219C337.268 104.931 337.403 104.658 337.576 104.41Z" fill="#3E3E54"/>
<path d="M335.885 104.41L344.457 91.8366C344.685 91.501 344.98 91.2163 345.324 91.0006C345.668 90.7848 346.053 90.6427 346.455 90.5832C346.857 90.5236 347.266 90.548 347.658 90.6548C348.05 90.7615 348.415 90.9483 348.731 91.2033L356.951 97.8653C357.521 98.3266 357.899 98.9827 358.011 99.7065C358.124 100.43 357.964 101.17 357.562 101.783L341.122 126.566C340.887 126.916 340.581 127.212 340.223 127.434C339.864 127.656 339.463 127.799 339.045 127.853C338.627 127.908 338.202 127.872 337.799 127.749C337.395 127.626 337.023 127.419 336.707 127.14L332.01 122.965C331.593 122.597 331.29 122.118 331.136 121.584C330.982 121.05 330.983 120.484 331.141 119.951L335.45 105.219C335.553 104.929 335.7 104.656 335.885 104.41Z" fill="#3E3E54"/>
<path d="M326.69 111.823C328.42 108.973 330.322 106.231 332.385 103.612C333.019 102.799 333.82 102.131 334.734 101.654C335.19 101.418 335.699 101.301 336.212 101.316C336.726 101.33 337.227 101.475 337.669 101.736C337.778 101.803 337.864 101.901 337.916 102.017C337.939 102.158 337.914 102.302 337.846 102.428C337.503 103.282 337.023 104.074 336.425 104.774C336.012 105.185 335.643 105.637 335.321 106.122C335.165 106.369 335.072 106.65 335.052 106.94C335.031 107.231 335.083 107.522 335.204 107.788C335.384 108.06 335.615 108.295 335.885 108.48L338.961 110.908C339.806 111.622 340.723 112.247 341.697 112.773C342.871 113.383 344.281 113.746 345.067 114.825C346.336 116.561 345.22 118.344 344.868 120.138C344.788 120.965 344.498 121.758 344.025 122.441C343.552 123.125 342.913 123.676 342.167 124.044C339.264 125.768 336.087 126.982 332.773 127.633C330.342 128.114 327.653 128.243 325.575 126.906C324.786 126.418 324.106 125.774 323.577 125.014C323.048 124.253 322.681 123.392 322.498 122.484C322.504 121.714 322.595 120.947 322.768 120.197C322.651 119.221 322.735 118.231 323.015 117.288C323.545 116.23 324.204 115.242 324.976 114.344C325.563 113.488 326.127 112.667 326.69 111.823Z" fill="#F7AF87"/>
<path d="M351.291 72.6248C349.368 75.0145 348.473 78.0684 348.802 81.1165C348.815 81.3952 348.9 81.6658 349.048 81.9023C349.346 82.1882 349.739 82.3551 350.152 82.3715C354.287 82.981 358.467 83.24 362.646 83.1456C362.129 84.424 363.104 85.8432 364.302 86.5235C365.5 87.2038 366.897 87.4032 368.118 88.0248C368.933 88.4407 369.649 89.0251 370.22 89.7389C370.791 90.4528 371.203 91.2798 371.43 92.1651C371.676 93.162 371.688 94.1941 371.934 95.1794C372.021 95.6801 372.225 96.1534 372.529 96.5609C372.833 96.9684 373.229 97.2987 373.684 97.5251C374.236 97.7245 374.917 97.7597 375.211 98.264C375.344 98.5659 375.385 98.9007 375.328 99.2258C375.08 101.596 374.531 103.925 373.696 106.158C376.174 104.762 375.563 100.293 378.217 99.2023C378.876 99.7454 379.349 100.479 379.572 101.303C379.795 102.127 379.757 102.999 379.461 103.8C378.829 105.391 377.758 106.769 376.373 107.776C380.143 104.551 382.421 99.9647 384.593 95.5078C385.685 93.2793 386.765 90.6051 385.568 88.4705C385.189 87.9528 384.877 87.3892 384.64 86.7933C384.542 86.248 384.562 85.6882 384.699 85.1512C385.116 82.9801 385.011 80.7411 384.393 78.6183C383.838 77.078 382.988 75.6599 381.892 74.4428C380.024 72.3444 377.743 70.6532 375.191 69.4747C372.639 68.2962 369.872 67.6557 367.061 67.5932C364.278 67.5111 361.718 68.379 359.018 68.637C357.526 68.7438 356.072 69.1524 354.744 69.8379C353.416 70.5234 352.241 71.4716 351.291 72.6248Z" fill="#3E3E54"/>
<path d="M243.506 156.967C243.506 156.967 346.606 149.132 353.663 149.93C360.72 150.727 378.252 162.257 378.252 162.257L248.555 163.23C246.745 161.248 245.059 159.156 243.506 156.967Z" fill="url(#paint4_linear)"/>
<path d="M213.879 207.33C213.986 206.427 214.033 205.518 214.02 204.609V194.628C214.029 193.727 213.982 192.826 213.879 191.93C214.748 191.93 215.406 191.93 216.592 191.93H220.631C224.295 191.93 226.303 193.678 226.303 196.892C226.303 200.105 224.201 202.135 220.62 202.135H217.696V204.48C217.691 205.409 217.742 206.337 217.848 207.26L213.879 207.33ZM220.455 199.05C220.727 199.083 221.003 199.054 221.263 198.966C221.523 198.878 221.759 198.733 221.955 198.542C222.151 198.351 222.302 198.118 222.396 197.861C222.49 197.603 222.525 197.328 222.498 197.056C222.525 196.786 222.489 196.514 222.394 196.26C222.299 196.005 222.147 195.776 221.95 195.59C221.753 195.403 221.516 195.264 221.257 195.183C220.998 195.101 220.724 195.08 220.455 195.121H217.696V199.05H220.455Z" fill="white"/>
<path d="M237.294 207.33C237.067 206.351 236.765 205.39 236.39 204.457C235.791 202.85 235.568 202.428 235.11 202.017C234.712 201.67 234.193 201.493 233.666 201.525H231.787V204.551C231.767 205.48 231.818 206.409 231.94 207.33H227.971C228.085 206.412 228.132 205.487 228.112 204.562V194.64C228.124 193.735 228.077 192.829 227.971 191.93C228.781 191.93 229.462 191.93 230.718 191.93H235.521C238.516 191.93 240.218 193.479 240.218 196.129C240.328 197.024 240.097 197.928 239.57 198.66C239.044 199.393 238.261 199.9 237.376 200.082C238.316 200.375 238.75 200.797 239.337 202.111C239.608 202.697 239.866 203.284 240.7 205.325C240.911 205.841 241.122 206.298 241.592 207.272L237.294 207.33ZM234.664 198.37C234.896 198.39 235.131 198.361 235.351 198.283C235.571 198.204 235.771 198.08 235.938 197.917C236.106 197.755 236.236 197.558 236.32 197.34C236.404 197.123 236.44 196.89 236.425 196.657C236.425 195.625 235.838 195.085 234.687 195.085H231.787V198.37H234.664Z" fill="white"/>
<path d="M257.585 199.589C257.585 204.457 254.615 207.682 250.117 207.682C245.62 207.682 242.684 204.527 242.684 199.648C242.684 194.769 245.596 191.661 250.141 191.661C254.685 191.661 257.585 194.757 257.585 199.589ZM253.746 199.589C253.746 196.599 252.372 194.792 250.141 194.792C247.91 194.792 246.5 196.622 246.5 199.589C246.5 202.557 247.886 204.457 250.141 204.457C252.395 204.457 253.746 202.651 253.746 199.625V199.589Z" fill="white"/>
<path d="M269.293 197.337C269.227 196.622 268.885 195.96 268.339 195.491C267.794 195.023 267.087 194.785 266.369 194.827C264.114 194.827 262.846 196.598 262.846 199.648C262.846 202.697 264.208 204.469 266.498 204.469C266.966 204.481 267.43 204.38 267.851 204.176C268.271 203.972 268.637 203.67 268.917 203.296C269.246 202.83 269.437 202.281 269.469 201.712L273.309 202.287C273.111 203.529 272.584 204.695 271.782 205.665C271.114 206.352 270.306 206.887 269.412 207.233C268.519 207.579 267.561 207.728 266.604 207.671C265.604 207.714 264.606 207.556 263.668 207.208C262.73 206.859 261.872 206.327 261.143 205.641C259.675 203.993 258.905 201.84 258.995 199.636C258.945 198.525 259.118 197.416 259.503 196.373C259.888 195.33 260.478 194.374 261.237 193.561C262.686 192.259 264.586 191.573 266.533 191.649C267.569 191.582 268.606 191.767 269.555 192.187C270.504 192.608 271.337 193.252 271.982 194.065C272.574 194.797 272.977 195.663 273.156 196.587L269.293 197.337Z" fill="white"/>
<path d="M286.601 207.459C285.591 207.35 284.575 207.307 283.56 207.33H277.747C276.338 207.33 275.821 207.33 275.023 207.389C275.149 206.496 275.2 205.593 275.176 204.691V194.628C275.191 193.726 275.14 192.825 275.023 191.93C275.786 191.93 276.303 191.93 277.747 191.93H283.619C284.54 191.944 285.462 191.901 286.378 191.801V195.25C285.462 195.15 284.54 195.107 283.619 195.121H278.816V197.877H282.808C283.734 197.889 284.659 197.846 285.58 197.748V201.161C284.659 201.061 283.734 201.018 282.808 201.032H278.816V204.128H283.583C284.587 204.147 285.591 204.104 286.589 203.999L286.601 207.459Z" fill="white"/>
<path d="M291.862 202.334C291.885 202.825 292.053 203.298 292.343 203.694C292.615 203.992 292.95 204.225 293.324 204.375C293.698 204.526 294.102 204.59 294.504 204.562C295.925 204.562 296.782 203.941 296.782 202.909C296.791 202.642 296.723 202.378 296.585 202.149C296.448 201.92 296.247 201.736 296.007 201.618C295.11 201.275 294.182 201.02 293.236 200.856C292.177 200.729 291.161 200.364 290.265 199.789C289.696 199.397 289.234 198.871 288.921 198.256C288.607 197.642 288.452 196.96 288.468 196.27C288.468 193.432 290.758 191.579 294.398 191.579C295.36 191.493 296.329 191.64 297.222 192.007C298.116 192.375 298.907 192.952 299.53 193.69C300.004 194.344 300.321 195.099 300.457 195.895L296.535 196.329C296.312 195.156 295.655 194.628 294.246 194.628C293.071 194.628 292.296 195.238 292.296 196.082C292.302 196.344 292.389 196.596 292.545 196.806C292.7 197.016 292.917 197.173 293.165 197.255C293.987 197.559 294.843 197.763 295.713 197.865C296.762 198.034 297.771 198.388 298.696 198.909C299.342 199.294 299.869 199.849 300.221 200.513C300.573 201.177 300.736 201.924 300.692 202.674C300.718 203.297 300.616 203.918 300.394 204.501C300.172 205.084 299.834 205.615 299.401 206.064C298.05 207.206 296.303 207.77 294.539 207.635C293.116 207.674 291.705 207.364 290.429 206.732C289.501 206.219 288.791 205.385 288.433 204.386C288.222 203.836 288.083 203.26 288.022 202.674L291.862 202.334Z" fill="white"/>
<path d="M305.977 202.334C305.99 202.827 306.158 203.303 306.458 203.694C306.728 203.994 307.063 204.229 307.437 204.379C307.812 204.529 308.216 204.592 308.619 204.562C310.039 204.562 310.885 203.941 310.885 202.909C310.894 202.642 310.826 202.378 310.688 202.149C310.551 201.92 310.35 201.736 310.11 201.618C309.214 201.273 308.285 201.018 307.339 200.856C306.28 200.729 305.265 200.364 304.368 199.789C303.799 199.397 303.337 198.871 303.024 198.256C302.71 197.642 302.555 196.96 302.571 196.27C302.571 193.432 304.861 191.579 308.501 191.579C309.463 191.493 310.432 191.64 311.325 192.007C312.219 192.375 313.01 192.952 313.633 193.69C314.112 194.341 314.43 195.097 314.56 195.895L310.65 196.329C310.427 195.156 309.758 194.628 308.36 194.628C307.186 194.628 306.399 195.238 306.399 196.082C306.405 196.344 306.492 196.596 306.648 196.806C306.803 197.016 307.02 197.173 307.268 197.255C308.09 197.559 308.946 197.763 309.816 197.865C310.868 198.037 311.881 198.39 312.811 198.909C313.453 199.297 313.978 199.852 314.328 200.516C314.677 201.179 314.839 201.925 314.795 202.674C314.823 203.297 314.723 203.92 314.501 204.503C314.279 205.086 313.939 205.617 313.504 206.064C312.158 207.206 310.415 207.771 308.654 207.635C307.227 207.675 305.812 207.365 304.532 206.732C303.604 206.219 302.894 205.385 302.536 204.386C302.33 203.835 302.195 203.26 302.137 202.674L305.977 202.334Z" fill="white"/>
</g>
<defs>
<linearGradient id="paint0_linear" x1="305.976" y1="210.732" x2="418.291" y2="28.1606" gradientUnits="userSpaceOnUse">
<stop stop-opacity="0"/>
<stop offset="0.99"/>
</linearGradient>
<linearGradient id="paint1_linear" x1="18789" y1="20268.8" x2="10795.8" y2="14500.9" gradientUnits="userSpaceOnUse">
<stop stop-opacity="0"/>
<stop offset="0.99"/>
</linearGradient>
<linearGradient id="paint2_linear" x1="20966.9" y1="5327.05" x2="16628.8" y2="14145.2" gradientUnits="userSpaceOnUse">
<stop stop-opacity="0"/>
<stop offset="0.99"/>
</linearGradient>
<linearGradient id="paint3_linear" x1="5942.65" y1="1834.7" x2="6019.93" y2="1473.06" gradientUnits="userSpaceOnUse">
<stop stop-opacity="0"/>
<stop offset="0.99"/>
</linearGradient>
<linearGradient id="paint4_linear" x1="37248.8" y1="2273.45" x2="37251.1" y2="3490.89" gradientUnits="userSpaceOnUse">
<stop stop-opacity="0"/>
<stop offset="0.99"/>
</linearGradient>
<clipPath id="clip0">
<rect width="512" height="323" fill="white"/>
</clipPath>
</defs>
</svg>
