<svg width="24" height="20" viewBox="0 0 24 20" fill="none" xmlns="http://www.w3.org/2000/svg">
<path d="M23.4 8.125H21V5.625C21 5.28125 20.73 5 20.4 5H19.2C18.87 5 18.6 5.28125 18.6 5.625V8.125H16.2C15.87 8.125 15.6 8.40625 15.6 8.75V10C15.6 10.3438 15.87 10.625 16.2 10.625H18.6V13.125C18.6 13.4688 18.87 13.75 19.2 13.75H20.4C20.73 13.75 21 13.4688 21 13.125V10.625H23.4C23.73 10.625 24 10.3438 24 10V8.75C24 8.40625 23.73 8.125 23.4 8.125ZM8.4 10C11.0513 10 13.2 7.76172 13.2 5C13.2 2.23828 11.0513 0 8.4 0C5.74875 0 3.6 2.23828 3.6 5C3.6 7.76172 5.74875 10 8.4 10ZM11.76 11.25H11.1338C10.3013 11.6484 9.375 11.875 8.4 11.875C7.425 11.875 6.5025 11.6484 5.66625 11.25H5.04C2.2575 11.25 0 13.6016 0 16.5V18.125C0 19.1602 0.80625 20 1.8 20H15C15.9938 20 16.8 19.1602 16.8 18.125V16.5C16.8 13.6016 14.5425 11.25 11.76 11.25Z" fill="white"/>
</svg>
