<svg width="24" height="20" viewBox="0 0 24 20" fill="none" xmlns="http://www.w3.org/2000/svg">
<path d="M22.11 9.375L23.82 7.59375C24.0562 7.34766 24.0562 6.94922 23.82 6.70313L22.965 5.8125C22.7287 5.56641 22.3462 5.56641 22.11 5.8125L20.4 7.59375L18.69 5.8125C18.4537 5.56641 18.0712 5.56641 17.835 5.8125L16.98 6.70313C16.7437 6.94922 16.7437 7.34766 16.98 7.59375L18.69 9.375L16.98 11.1563C16.7437 11.4023 16.7437 11.8008 16.98 12.0469L17.835 12.9375C18.0712 13.1836 18.4537 13.1836 18.69 12.9375L20.4 11.1563L22.11 12.9375C22.3462 13.1836 22.7287 13.1836 22.965 12.9375L23.82 12.0469C24.0562 11.8008 24.0562 11.4023 23.82 11.1563L22.11 9.375ZM8.4 10C11.0512 10 13.2 7.76172 13.2 5C13.2 2.23828 11.0512 0 8.4 0C5.74875 0 3.6 2.23828 3.6 5C3.6 7.76172 5.74875 10 8.4 10ZM11.76 11.25H11.1337C10.3012 11.6484 9.375 11.875 8.4 11.875C7.425 11.875 6.5025 11.6484 5.66625 11.25H5.04C2.2575 11.25 0 13.6016 0 16.5V18.125C0 19.1602 0.80625 20 1.8 20H15C15.9937 20 16.8 19.1602 16.8 18.125V16.5C16.8 13.6016 14.5425 11.25 11.76 11.25Z" fill="white"/>
</svg>
