<svg width="12" height="15" viewBox="0 0 12 15" fill="none" xmlns="http://www.w3.org/2000/svg">
<g clip-path="url(#clip0)">
<path d="M0.343661 10.3125H7.37063C7.41577 10.3125 7.46047 10.3028 7.50218 10.284C7.54389 10.2651 7.58179 10.2374 7.61371 10.2025C7.64563 10.1676 7.67094 10.1261 7.6882 10.0805C7.70546 10.0349 7.71432 9.98599 7.71429 9.93662V8.81338C7.71432 8.76401 7.70546 8.71511 7.6882 8.66949C7.67094 8.62387 7.64563 8.58242 7.61371 8.54751C7.58179 8.5126 7.54389 8.48491 7.50218 8.46603C7.46047 8.44716 7.41577 8.43746 7.37063 8.4375H0.343661C0.298521 8.43746 0.253817 8.44716 0.212106 8.46603C0.170395 8.48491 0.132496 8.5126 0.100577 8.54751C0.0686586 8.58242 0.0433461 8.62387 0.026088 8.66949C0.00882989 8.71511 -3.51199e-05 8.76401 1.0456e-07 8.81338V9.93662C-3.51199e-05 9.98599 0.00882989 10.0349 0.026088 10.0805C0.0433461 10.1261 0.0686586 10.1676 0.100577 10.2025C0.132496 10.2374 0.170395 10.2651 0.212106 10.284C0.253817 10.3028 0.298521 10.3125 0.343661 10.3125V10.3125ZM0.343661 2.8125H7.37063C7.41577 2.81254 7.46047 2.80284 7.50218 2.78397C7.54389 2.76509 7.58179 2.7374 7.61371 2.70249C7.64563 2.66758 7.67094 2.62613 7.6882 2.58051C7.70546 2.53489 7.71432 2.48599 7.71429 2.43662V1.31338C7.71432 1.26401 7.70546 1.21511 7.6882 1.16949C7.67094 1.12387 7.64563 1.08242 7.61371 1.04751C7.58179 1.0126 7.54389 0.98491 7.50218 0.966034C7.46047 0.947158 7.41577 0.937462 7.37063 0.9375H0.343661C0.298521 0.937462 0.253817 0.947158 0.212106 0.966034C0.170395 0.98491 0.132496 1.0126 0.100577 1.04751C0.0686586 1.08242 0.0433461 1.12387 0.026088 1.16949C0.00882989 1.21511 -3.51199e-05 1.26401 1.0456e-07 1.31338V2.43662C-3.51199e-05 2.48599 0.00882989 2.53489 0.026088 2.58051C0.0433461 2.62613 0.0686586 2.66758 0.100577 2.70249C0.132496 2.7374 0.170395 2.76509 0.212106 2.78397C0.253817 2.80284 0.298521 2.81254 0.343661 2.8125V2.8125ZM11.5714 4.6875H0.428572C0.314907 4.6875 0.205899 4.73689 0.125526 4.82479C0.045153 4.9127 1.0456e-07 5.03193 1.0456e-07 5.15625V6.09375C1.0456e-07 6.21807 0.045153 6.3373 0.125526 6.42521C0.205899 6.51311 0.314907 6.5625 0.428572 6.5625H11.5714C11.6851 6.5625 11.7941 6.51311 11.8745 6.42521C11.9548 6.3373 12 6.21807 12 6.09375V5.15625C12 5.03193 11.9548 4.9127 11.8745 4.82479C11.7941 4.73689 11.6851 4.6875 11.5714 4.6875ZM11.5714 12.1875H0.428572C0.314907 12.1875 0.205899 12.2369 0.125526 12.3248C0.045153 12.4127 1.0456e-07 12.5319 1.0456e-07 12.6562V13.5938C1.0456e-07 13.7181 0.045153 13.8373 0.125526 13.9252C0.205899 14.0131 0.314907 14.0625 0.428572 14.0625H11.5714C11.6851 14.0625 11.7941 14.0131 11.8745 13.9252C11.9548 13.8373 12 13.7181 12 13.5938V12.6562C12 12.5319 11.9548 12.4127 11.8745 12.3248C11.7941 12.2369 11.6851 12.1875 11.5714 12.1875Z" fill="black" fill-opacity="0.6"/>
</g>
<defs>
<clipPath id="clip0">
<rect width="12" height="15" fill="white"/>
</clipPath>
</defs>
</svg>
