<svg width="545" height="454" viewBox="0 0 545 454" fill="none" xmlns="http://www.w3.org/2000/svg">
<g clip-path="url(#clip0)">
<path opacity="0.24" d="M543.89 344.72C543.612 347.658 543.09 350.568 542.33 353.42C540.58 360.01 537.936 366.328 534.47 372.2C514.4 407.2 475.1 427.47 435.55 435.74C396 444.01 355.17 442.21 314.82 444.06C260.32 446.53 205.96 455.67 151.46 452.68C125.623 451.245 100.009 447.095 75.0401 440.3C-45.3299 440.3 13.5201 256.48 20.4401 186.79C23.4401 156.79 26.9201 125.3 44.0501 100.46C64.3201 71.09 100.21 56.46 135.32 50.06C170.43 43.66 206.56 44.06 241.48 36.69C298.48 24.69 353.67 -7.57998 411.22 1.62002C467.67 10.62 513.48 64.39 513.45 121.56C513.45 161.69 495.24 201.56 505.69 241.56C514.78 276.25 547.39 306.97 543.89 344.72Z" fill="#6EC7EB"/>
<path opacity="0.24" d="M542.33 353.42C540.58 360.01 537.936 366.328 534.47 372.2C514.4 407.2 475.1 427.47 435.55 435.74C396 444.01 355.17 442.21 314.82 444.06C260.32 446.53 205.96 455.67 151.46 452.68C125.623 451.245 100.009 447.095 75.04 440.3C58.31 435.74 23.74 429.8 13.62 414.3C7.29004 404.63 6.25004 386.51 6.04004 371.24C9.83004 371.84 13.59 372.74 16.89 373.05C28.09 374.13 39.43 374.2 50.66 374.55C74.4467 375.31 98.25 375.82 122.07 376.08C216.883 377.087 311.627 373.967 406.3 366.72C451.72 363.227 497.063 358.793 542.33 353.42Z" fill="#6EC7EB"/>
<path d="M304.32 237.48H277.56V402.51H304.32V237.48Z" fill="#6EC7EB"/>
<path d="M304.32 237.48H277.56V402.51H304.32V237.48Z" fill="url(#paint0_linear)"/>
<path d="M367.23 186.8V252.2H183.88V186.8C183.901 177.767 187.508 169.111 193.908 162.736C200.307 156.36 208.976 152.787 218.01 152.8H333.11C342.139 152.797 350.801 156.375 357.197 162.748C363.593 169.122 367.201 177.771 367.23 186.8V186.8Z" fill="#6EC7EB"/>
<path d="M218.15 158.44C222.031 158.439 225.874 159.203 229.459 160.688C233.044 162.173 236.302 164.351 239.044 167.097C241.787 169.842 243.962 173.102 245.443 176.689C246.925 180.275 247.685 184.119 247.68 188V251.9H188.68V188C188.669 180.173 191.768 172.661 197.294 167.118C202.821 161.575 210.323 158.453 218.15 158.44V158.44Z" fill="url(#paint1_linear)"/>
<path d="M367.24 186.8V252.2H254.24V182.99C250.87 164.9 238.14 156.59 227.67 152.76H333.12C342.157 152.755 350.826 156.337 357.224 162.719C363.622 169.102 367.224 177.763 367.24 186.8Z" fill="url(#paint2_linear)"/>
<path d="M249.58 242.83H129.71C127.12 242.83 125.02 244.93 125.02 247.52V247.53C125.02 250.12 127.12 252.22 129.71 252.22H249.58C252.17 252.22 254.27 250.12 254.27 247.53V247.52C254.27 244.93 252.17 242.83 249.58 242.83Z" fill="#6EC7EB"/>
<path d="M249.58 242.83H129.71C127.12 242.83 125.02 244.93 125.02 247.52V247.53C125.02 250.12 127.12 252.22 129.71 252.22H249.58C252.17 252.22 254.27 250.12 254.27 247.53V247.52C254.27 244.93 252.17 242.83 249.58 242.83Z" fill="url(#paint3_linear)"/>
<path opacity="0.24" d="M220.05 388.04C204.48 390.82 189.05 394.43 173.28 395.95C163.06 396.95 151.78 397.46 144.36 404.57C142.597 406.075 141.43 408.16 141.07 410.45C140.64 415.37 145.79 418.8 150.38 420.61C163.79 425.91 178.38 427.43 192.76 428.35C216.21 429.84 239.76 429.86 263.21 429.88L333.21 429.95C353.87 429.95 376.81 429.11 391.61 414.69C394.54 411.84 397.12 408.32 397.61 404.26C398.43 397.68 393.44 391.5 387.41 388.75C376.97 383.98 361.35 384.97 349.97 383.75C335.18 382.11 320.3 381.21 305.42 381.03C276.806 380.681 248.223 383.028 220.05 388.04V388.04Z" fill="#6EC7EB"/>
<path d="M197.33 196.44C179.86 196.44 162.93 191.14 149.78 181.37C146.36 178.871 143.28 175.936 140.62 172.64C135.619 172.08 130.802 170.428 126.51 167.8C120.306 164.106 115.141 158.899 111.499 152.665C107.856 146.432 105.854 139.376 105.681 132.158C105.509 124.94 107.17 117.797 110.51 111.396C113.85 104.995 118.76 99.5463 124.78 95.56L126.7 98.46C121.171 102.12 116.661 107.123 113.593 113.002C110.525 118.88 108.999 125.441 109.157 132.069C109.316 138.698 111.155 145.178 114.501 150.903C117.847 156.627 122.592 161.409 128.29 164.8C131.279 166.609 134.541 167.923 137.95 168.69C135.937 165.307 134.752 161.497 134.49 157.57C134.4 154.659 134.958 151.765 136.123 149.096C137.289 146.428 139.033 144.052 141.23 142.14C142.696 140.722 144.466 139.655 146.404 139.019C148.342 138.384 150.4 138.196 152.421 138.47C154.443 138.745 156.376 139.474 158.075 140.603C159.774 141.732 161.194 143.232 162.23 144.99C164.609 148.614 165.458 153.032 164.59 157.28C162.98 164.61 156.43 170.64 148.28 172.28C147.289 172.478 146.287 172.615 145.28 172.69C147.298 174.849 149.511 176.817 151.89 178.57C166.73 189.57 186.65 194.65 206.52 192.44L206.9 195.9C203.723 196.26 200.528 196.441 197.33 196.44V196.44ZM142.45 169.28C144.163 169.329 145.876 169.195 147.56 168.88C154.27 167.53 159.85 162.47 161.15 156.56C161.806 153.218 161.131 149.752 159.27 146.9C158.507 145.563 157.445 144.42 156.167 143.56C154.89 142.701 153.431 142.148 151.905 141.945C150.379 141.741 148.826 141.893 147.368 142.389C145.91 142.884 144.587 143.709 143.5 144.8C141.698 146.355 140.266 148.291 139.308 150.469C138.35 152.647 137.889 155.012 137.96 157.39C138.299 161.699 139.857 165.822 142.45 169.28V169.28Z" fill="white"/>
<path d="M139.46 88.41C140.979 83.5156 144.191 79.3219 148.52 76.58C153.98 73.21 160.68 72.7 167.08 72.27C165.375 73.6457 164.268 75.6271 163.99 77.8C163.6 79.94 163.64 82.14 163.31 84.29C162.51 88.7219 160.204 92.7415 156.782 95.6695C153.36 98.5975 149.032 100.254 144.53 100.36C143.68 95.77 146.94 91.54 150 88.01C148.238 88.5282 146.652 89.5219 145.417 90.8819C144.182 92.242 143.346 93.9159 143 95.72C142.876 97.2308 142.666 98.7333 142.37 100.22C142.09 101.15 140.84 103.4 139.56 102.92C138.63 102.57 138.56 99.17 138.45 98.32C138.119 94.9824 138.462 91.6122 139.46 88.41V88.41Z" fill="#6EC7EB"/>
<path d="M89.9099 109.05C90.0014 111.517 90.3363 113.969 90.9099 116.37C91.4898 118.781 92.7703 120.966 94.5899 122.65C95.8631 123.544 97.085 124.509 98.2499 125.54C98.3153 125.635 98.4103 125.705 98.5199 125.74C99.6699 126.04 100.79 121.47 100.77 120.68C100.541 118.944 99.9226 117.282 98.9599 115.82C98.0406 114.097 96.7532 112.597 95.1892 111.427C93.6251 110.257 91.8227 109.445 89.9099 109.05V109.05Z" fill="#6EC7EB"/>
</g>
<defs>
<linearGradient id="paint0_linear" x1="291.64" y1="380.92" x2="289.63" y2="204.96" gradientUnits="userSpaceOnUse">
<stop stop-color="#010101" stop-opacity="0"/>
<stop offset="0.95" stop-color="#010101"/>
</linearGradient>
<linearGradient id="paint1_linear" x1="11317.9" y1="19331.8" x2="14801.8" y2="19331.8" gradientUnits="userSpaceOnUse">
<stop stop-color="#010101" stop-opacity="0"/>
<stop offset="0.95" stop-color="#010101"/>
</linearGradient>
<linearGradient id="paint2_linear" x1="43871.2" y1="16211.3" x2="43111.8" y2="34333.2" gradientUnits="userSpaceOnUse">
<stop stop-color="#010101" stop-opacity="0"/>
<stop offset="0.95" stop-color="#010101"/>
</linearGradient>
<linearGradient id="paint3_linear" x1="24550.7" y1="2461.5" x2="24551.6" y2="2675.86" gradientUnits="userSpaceOnUse">
<stop stop-color="#010101" stop-opacity="0"/>
<stop offset="0.95" stop-color="#010101"/>
</linearGradient>
<clipPath id="clip0">
<rect width="544.16" height="453.28" fill="white"/>
</clipPath>
</defs>
</svg>
