<svg width="149" height="172" viewBox="0 0 149 172" fill="none" xmlns="http://www.w3.org/2000/svg">
<g clip-path="url(#clip0)">
<path d="M4.22772 130.288C5.41928 127.689 7.26629 124.008 9.44754 122.481C15.0624 118.562 28.4234 111.777 51.7921 122.888C77.9845 135.34 78.7246 112.494 104.435 110.917C122.957 109.785 143.051 114.649 147.409 123.96C151.507 132.7 148.039 153.998 131.897 152.495C102.81 149.786 104.717 156.088 76.793 166.972C48.2175 178.105 42.1056 149.273 15.2838 157.825C-2.44192 163.472 -1.19828 142.19 4.22772 130.288Z" fill="#C4EDFF"/>
<path d="M98.8748 29.6588C98.8748 29.6588 104.084 46.0149 106.41 49.6183C109.362 54.2027 109.193 44.276 108.377 41.541C107.539 38.741 103.971 32.6515 98.8748 29.6588Z" fill="#C4EDFF"/>
<path d="M108.027 50.6838C108.027 50.6838 107.956 50.4001 107.96 50.5149C108.006 51.7601 108.828 58.5273 108.579 59.8028C108.301 61.1995 109.284 58.2631 109.284 58.2631L108.027 50.6838Z" fill="#C4EDFF"/>
<path d="M95.7277 37.6149C95.7277 37.6149 100.937 53.971 103.261 57.5744C106.215 62.161 106.044 52.2321 105.228 49.4993C104.392 46.6971 100.824 40.6098 95.7277 37.6149Z" fill="#C4EDFF"/>
<path d="M104.88 58.6507C104.88 58.6507 104.806 58.367 104.811 58.4818C104.856 59.7248 105.679 66.7108 105.427 67.9927C105.149 69.3895 106.265 66.1802 106.265 66.1802L104.88 58.6507Z" fill="#C4EDFF"/>
<path d="M90.3711 44.5467C90.3711 44.5467 97.2708 61.5026 99.591 65.1039C102.543 69.6904 101.885 58.4298 101.069 55.6947C100.233 52.8947 95.4672 47.5394 90.3711 44.5467Z" fill="#C4EDFF"/>
<path d="M100.878 66.1C100.878 66.1 100.824 65.9463 100.828 66.0849C100.869 67.5812 101.996 75.9011 101.735 77.4386C101.453 79.1212 102.766 75.3035 102.766 75.3035L100.878 66.1Z" fill="#C4EDFF"/>
<path d="M83.4691 53.2261C83.4691 53.2261 86.2711 59.3436 89.8588 64.4867C92.2701 67.9515 95.5018 70.6606 96.7173 71.9339C100.557 75.9683 97.2903 65.4266 95.9338 62.8734C94.5425 60.264 89.1013 55.3591 83.4691 53.2261Z" fill="#C4EDFF"/>
<path d="M98.2279 72.6442C98.2279 72.6442 98.1736 72.4905 98.178 72.6291C98.2192 74.1276 99.4151 83.1166 99.0809 84.6455C99.0027 85.0071 100.188 81.9169 100.188 81.9169L98.2279 72.6442Z" fill="#C4EDFF"/>
<path d="M80.2266 61.665C80.2266 61.665 83.3715 68.5514 87.365 74.3593C90.0477 78.2572 93.6245 81.3387 94.9615 82.7766C99.2154 87.3372 95.5062 75.4897 93.9891 72.6139C92.4394 69.6666 86.4209 64.1099 80.2266 61.665Z" fill="#C4EDFF"/>
<path d="M73.3573 75.6023C73.3573 75.6023 80.5826 79.8467 85.6852 83.8442C91.6733 88.5347 92.7346 89.0674 94.5165 89.6456C100.16 91.4711 91.695 80.074 89.1383 78.4153C86.5208 76.7153 79.7578 74.8877 73.3573 75.6023Z" fill="#C4EDFF"/>
<path d="M96.7282 83.8745C96.7029 83.7659 96.6688 83.6594 96.6262 83.5562C96.6805 84.3358 97.8482 87.8981 97.5291 88.695C97.4531 88.8834 98.126 87.3112 98.126 87.3112L96.7282 83.8745Z" fill="#C4EDFF"/>
<path d="M95.6517 89.2754C95.6517 89.2754 95.541 89.0848 95.5475 89.1194C95.6083 89.5049 96.8107 91.2655 96.4981 91.6574C96.4244 91.7506 97.0841 90.9753 97.0841 90.9753L95.6517 89.2754Z" fill="#C4EDFF"/>
<path d="M109.95 68.5081C109.95 68.5081 110.065 68.389 109.985 68.5081C109.117 69.7901 103.778 76.6547 103.04 78.058C102.243 79.5868 103.691 75.9249 103.691 75.9249L109.95 68.5081Z" fill="#C4EDFF"/>
<path d="M107.7 74.8963C107.7 74.8963 107.817 74.7794 107.737 74.8963C106.868 76.1783 101.11 83.6039 100.427 85.0158C100.266 85.3514 101.362 82.3522 101.362 82.3522L107.7 74.8963Z" fill="#C4EDFF"/>
<path d="M102.163 85.0093C102.163 85.0093 102.443 84.7039 102.397 84.7646C101.926 85.4142 99.2632 88.1709 98.9876 88.9483C98.9225 89.1302 99.4412 87.5862 99.4412 87.5862L102.163 85.0093Z" fill="#C4EDFF"/>
<path d="M99.693 89.9748C99.693 89.9748 99.8623 89.8383 99.8406 89.8687C99.5866 90.1827 97.9263 91.3672 97.8872 91.7938C97.8872 91.8956 97.9523 91.0402 97.9523 91.0402L99.693 89.9748Z" fill="#C4EDFF"/>
<path d="M44.4627 64.3265C44.4627 64.3265 37.3134 81.2803 34.9129 84.8837C31.8526 89.4702 32.5255 78.2096 33.3806 75.4745C34.2423 72.6702 39.1821 67.3149 44.4627 64.3265Z" fill="#C4EDFF"/>
<path d="M33.5738 85.8755C33.5738 85.8755 33.6303 85.7217 33.6259 85.8603C33.5847 87.3567 32.417 95.6744 32.6839 97.2141C32.977 98.8967 31.6183 95.0789 31.6183 95.0789L33.5738 85.8755Z" fill="#C4EDFF"/>
<path d="M51.6163 73.0015C51.6163 73.0015 48.7123 79.1191 44.9923 84.2622C42.4963 87.727 39.1322 90.4361 37.8864 91.7094C33.9058 95.7437 37.2917 85.202 38.6981 82.6489C40.1392 80.0394 45.7779 75.1346 51.6163 73.0015Z" fill="#C4EDFF"/>
<path d="M36.3215 92.4196C36.3215 92.4196 36.3758 92.2659 36.3714 92.4045C36.3302 93.903 35.0909 102.892 35.436 104.421C35.5185 104.783 34.2878 101.692 34.2878 101.692L36.3215 92.4196Z" fill="#C4EDFF"/>
<path d="M54.9762 81.434C54.9762 81.434 51.7206 88.3203 47.5773 94.1282C44.7992 98.0262 41.0921 101.108 39.7009 102.546C35.2906 107.106 39.1344 95.2586 40.708 92.3828C42.3184 89.4464 48.5561 83.8897 54.9762 81.434Z" fill="#C4EDFF"/>
<path d="M62.095 95.3778C62.095 95.3778 54.6093 99.6222 49.3178 103.62C43.1127 108.31 42.0144 108.843 40.1674 109.421C34.3073 111.247 43.0953 99.8496 45.741 98.1908C48.454 96.4909 55.4601 94.6632 62.095 95.3778Z" fill="#C4EDFF"/>
<path d="M37.869 103.648C37.869 103.648 37.9797 103.26 37.9754 103.332C37.9189 104.111 36.7079 107.663 37.0399 108.47C37.1181 108.659 36.4192 107.087 36.4192 107.087L37.869 103.648Z" fill="#C4EDFF"/>
<path d="M38.9911 109.051C38.9911 109.051 39.104 108.86 39.0997 108.895C39.0345 109.28 37.7974 111.041 38.1143 111.433C38.1903 111.526 37.5066 110.751 37.5066 110.751L38.9911 109.051Z" fill="#C4EDFF"/>
<path d="M32.2433 104.785C32.1696 104.699 32.0913 104.617 32.0089 104.54C32.4994 105.19 35.2645 107.946 35.5445 108.722C35.6118 108.906 35.0735 107.362 35.0735 107.362L32.2433 104.785Z" fill="#C4EDFF"/>
<path d="M34.8022 109.748C34.8022 109.748 34.6264 109.614 34.6503 109.642C34.9129 109.958 36.6319 111.143 36.6861 111.569C36.697 111.671 36.6189 110.816 36.6189 110.816L34.8022 109.748Z" fill="#C4EDFF"/>
<path d="M101.59 72.2457C101.59 72.2457 105.844 86.0054 107.417 88.9895C109.421 92.7834 109.67 83.9113 109.217 81.7112C108.752 79.459 105.379 74.9375 101.59 72.2457Z" fill="#6EC7EB"/>
<path d="M108.359 89.8557C108.359 89.8557 108.327 89.7322 108.32 89.8405C108.251 91.0164 108.568 97.6147 108.26 98.8035C107.925 100.103 109.212 97.1989 109.212 97.1989L108.359 89.8557Z" fill="#6EC7EB"/>
<path d="M95.5865 78.582C95.5865 78.582 97.3663 83.5627 99.8297 87.8504C101.484 90.724 103.836 93.0736 104.7 94.1542C107.437 97.5757 105.592 89.0912 104.7 87.008C103.789 84.8512 99.8579 80.6371 95.5865 78.582Z" fill="#6EC7EB"/>
<path d="M105.835 94.8082C105.835 94.8082 105.805 94.6847 105.798 94.793C105.729 95.9689 106.054 103.098 105.69 104.274C105.603 104.553 106.742 102.21 106.742 102.21L105.835 94.8082Z" fill="#6EC7EB"/>
<path d="M92.4698 84.9811C92.4698 84.9811 94.4666 90.5919 97.2035 95.4167C99.0397 98.6649 101.635 101.311 102.59 102.53C105.616 106.394 103.515 96.8546 102.519 94.4963C101.501 92.0796 97.1601 87.3198 92.4698 84.9811Z" fill="#6EC7EB"/>
<path d="M86.1366 95.4427C86.1366 95.4427 91.5105 99.2584 95.2414 102.738C99.617 106.82 100.411 107.312 101.77 107.884C106.07 109.698 100.207 100.19 98.3169 98.7148C96.3809 97.2054 91.2045 95.315 86.1366 95.4427Z" fill="#6EC7EB"/>
<path d="M103.897 103.509C103.884 103.423 103.864 103.337 103.838 103.254C103.838 103.869 104.49 106.74 104.196 107.342C104.123 107.485 104.759 106.301 104.759 106.301L103.897 103.509Z" fill="#6EC7EB"/>
<path d="M102.686 107.671C102.686 107.671 102.612 107.513 102.614 107.541C102.636 107.849 103.459 109.311 103.185 109.597C103.122 109.666 103.691 109.101 103.691 109.101L102.686 107.671Z" fill="#6EC7EB"/>
<path d="M108.079 104.767C108.144 104.706 108.211 104.647 108.281 104.592C107.867 105.075 105.592 107.05 105.323 107.641C105.26 107.78 105.772 106.604 105.772 106.604L108.079 104.767Z" fill="#6EC7EB"/>
<path d="M105.803 108.503C105.803 108.503 105.946 108.41 105.926 108.431C105.709 108.661 104.325 109.477 104.255 109.809C104.24 109.887 104.357 109.222 104.357 109.222L105.803 108.503Z" fill="#6EC7EB"/>
<path d="M97.8547 0H42.7937C36.388 0 31.1951 5.18118 31.1951 11.5725V123.018C31.1951 129.41 36.388 134.591 42.7937 134.591H97.8547C104.26 134.591 109.453 129.41 109.453 123.018V11.5725C109.453 5.18118 104.26 0 97.8547 0Z" fill="#9DE3FF"/>
<path d="M98.1346 5.25568H42.3053C38.0607 5.25568 34.6199 8.68879 34.6199 12.9237V123.038C34.6199 127.273 38.0607 130.706 42.3053 130.706H98.1346C102.379 130.706 105.82 127.273 105.82 123.038V12.9237C105.82 8.68879 102.379 5.25568 98.1346 5.25568Z" fill="white"/>
<path d="M85.9435 2.37988H53.2052C51.4491 2.37988 50.0255 3.80025 50.0255 5.55236V5.55452C50.0255 7.30663 51.4491 8.72699 53.2052 8.72699H85.9435C87.6996 8.72699 89.1232 7.30663 89.1232 5.55452V5.55236C89.1232 3.80025 87.6996 2.37988 85.9435 2.37988Z" fill="#9DE3FF"/>
<path d="M77.2553 2.92773H62.362C61.6956 2.92773 61.1553 3.46679 61.1553 4.13176V4.13392C61.1553 4.79889 61.6956 5.33795 62.362 5.33795H77.2553C77.9218 5.33795 78.4621 4.79889 78.4621 4.13392V4.13176C78.4621 3.46679 77.9218 2.92773 77.2553 2.92773Z" fill="white"/>
<path d="M97.6831 21.3411H44.0373C42.286 21.3411 40.8663 22.7576 40.8663 24.5049V36.0947C40.8663 37.8421 42.286 39.2586 44.0373 39.2586H97.6831C99.4344 39.2586 100.854 37.8421 100.854 36.0947V24.5049C100.854 22.7576 99.4344 21.3411 97.6831 21.3411Z" fill="#CEF1FF"/>
<path d="M50.0081 36.6253C53.5778 36.6253 56.4716 33.738 56.4716 30.1764C56.4716 26.6147 53.5778 23.7275 50.0081 23.7275C46.4385 23.7275 43.5447 26.6147 43.5447 30.1764C43.5447 33.738 46.4385 36.6253 50.0081 36.6253Z" fill="#6EC7EB"/>
<path d="M94.6685 24.2927H61.1943C60.4368 24.2927 59.8226 24.9055 59.8226 25.6613C59.8226 26.4172 60.4368 27.0299 61.1943 27.0299H94.6685C95.426 27.0299 96.0401 26.4172 96.0401 25.6613C96.0401 24.9055 95.426 24.2927 94.6685 24.2927Z" fill="#6EC7EB"/>
<path d="M86.9852 28.8403H61.1943C60.4368 28.8403 59.8226 29.453 59.8226 30.2089C59.8226 30.9647 60.4368 31.5775 61.1943 31.5775H86.9852C87.7428 31.5775 88.3569 30.9647 88.3569 30.2089C88.3569 29.453 87.7428 28.8403 86.9852 28.8403Z" fill="#6EC7EB"/>
<path d="M67.2628 33.8859H61.1943C60.4368 33.8859 59.8226 34.4987 59.8226 35.2545C59.8226 36.0104 60.4368 36.6231 61.1943 36.6231H67.2628C68.0203 36.6231 68.6345 36.0104 68.6345 35.2545C68.6345 34.4987 68.0203 33.8859 67.2628 33.8859Z" fill="#6EC7EB"/>
<path d="M97.6831 67.5661H44.0373C42.286 67.5661 40.8663 68.9826 40.8663 70.7299V82.3197C40.8663 84.067 42.286 85.4835 44.0373 85.4835H97.6831C99.4344 85.4835 100.854 84.067 100.854 82.3197V70.7299C100.854 68.9826 99.4344 67.5661 97.6831 67.5661Z" fill="#CEF1FF"/>
<path d="M50.0081 82.8503C53.5778 82.8503 56.4716 79.963 56.4716 76.4014C56.4716 72.8398 53.5778 69.9525 50.0081 69.9525C46.4385 69.9525 43.5447 72.8398 43.5447 76.4014C43.5447 79.963 46.4385 82.8503 50.0081 82.8503Z" fill="#6EC7EB"/>
<path d="M94.6685 70.5198H61.1943C60.4368 70.5198 59.8226 71.1326 59.8226 71.8884C59.8226 72.6443 60.4368 73.257 61.1943 73.257H94.6685C95.426 73.257 96.0401 72.6443 96.0401 71.8884C96.0401 71.1326 95.426 70.5198 94.6685 70.5198Z" fill="#6EC7EB"/>
<path d="M86.9852 75.0674H61.1943C60.4368 75.0674 59.8226 75.6802 59.8226 76.436C59.8226 77.1919 60.4368 77.8046 61.1943 77.8046H86.9852C87.7428 77.8046 88.3569 77.1919 88.3569 76.436C88.3569 75.6802 87.7428 75.0674 86.9852 75.0674Z" fill="#6EC7EB"/>
<path d="M67.2628 80.1131H61.1943C60.4368 80.1131 59.8226 80.7258 59.8226 81.4817C59.8226 82.2376 60.4368 82.8503 61.1943 82.8503H67.2628C68.0203 82.8503 68.6345 82.2376 68.6345 81.4817C68.6345 80.7258 68.0203 80.1131 67.2628 80.1131Z" fill="#6EC7EB"/>
<path d="M97.6831 89.4897H44.0373C42.286 89.4897 40.8663 90.9062 40.8663 92.6535V104.243C40.8663 105.991 42.286 107.407 44.0373 107.407H97.6831C99.4344 107.407 100.854 105.991 100.854 104.243V92.6535C100.854 90.9062 99.4344 89.4897 97.6831 89.4897Z" fill="#CEF1FF"/>
<path d="M50.0081 104.772C53.5778 104.772 56.4716 101.884 56.4716 98.3228C56.4716 94.7612 53.5778 91.8739 50.0081 91.8739C46.4385 91.8739 43.5447 94.7612 43.5447 98.3228C43.5447 101.884 46.4385 104.772 50.0081 104.772Z" fill="#6EC7EB"/>
<path d="M94.6685 92.4413H61.1943C60.4368 92.4413 59.8226 93.054 59.8226 93.8099C59.8226 94.5657 60.4368 95.1785 61.1943 95.1785H94.6685C95.426 95.1785 96.0401 94.5657 96.0401 93.8099C96.0401 93.054 95.426 92.4413 94.6685 92.4413Z" fill="#6EC7EB"/>
<path d="M86.9852 96.9889H61.1943C60.4368 96.9889 59.8226 97.6016 59.8226 98.3575C59.8226 99.1133 60.4368 99.7261 61.1943 99.7261H86.9852C87.7428 99.7261 88.3569 99.1133 88.3569 98.3575C88.3569 97.6016 87.7428 96.9889 86.9852 96.9889Z" fill="#6EC7EB"/>
<path d="M67.2628 102.035H61.1943C60.4368 102.035 59.8226 102.647 59.8226 103.403C59.8226 104.159 60.4368 104.772 61.1943 104.772H67.2628C68.0203 104.772 68.6345 104.159 68.6345 103.403C68.6345 102.647 68.0203 102.035 67.2628 102.035Z" fill="#6EC7EB"/>
<path d="M83.6342 46.1578H29.9883C28.2371 46.1578 26.8174 47.5743 26.8174 49.3216V60.9115C26.8174 62.6588 28.2371 64.0753 29.9883 64.0753H83.6342C85.3855 64.0753 86.8052 62.6588 86.8052 60.9115V49.3216C86.8052 47.5743 85.3855 46.1578 83.6342 46.1578Z" fill="#CEF1FF"/>
<path d="M81.0296 43.1261H27.3837C25.6325 43.1261 24.2128 44.5426 24.2128 46.2899V57.8797C24.2128 59.627 25.6325 61.0435 27.3837 61.0435H81.0296C82.7808 61.0435 84.2005 59.627 84.2005 57.8797V46.2899C84.2005 44.5426 82.7808 43.1261 81.0296 43.1261Z" fill="#6EC7EB"/>
<path d="M33.3546 58.4103C36.9242 58.4103 39.818 55.523 39.818 51.9614C39.818 48.3998 36.9242 45.5125 33.3546 45.5125C29.7849 45.5125 26.8911 48.3998 26.8911 51.9614C26.8911 55.523 29.7849 58.4103 33.3546 58.4103Z" fill="white"/>
<path d="M78.015 46.0778H44.5409C43.7833 46.0778 43.1692 46.6905 43.1692 47.4464C43.1692 48.2022 43.7833 48.815 44.5409 48.815H78.015C78.7726 48.815 79.3867 48.2022 79.3867 47.4464C79.3867 46.6905 78.7726 46.0778 78.015 46.0778Z" fill="white"/>
<path d="M70.3318 50.6253H44.5409C43.7833 50.6253 43.1692 51.2381 43.1692 51.9939C43.1692 52.7498 43.7833 53.3625 44.5409 53.3625H70.3318C71.0894 53.3625 71.7035 52.7498 71.7035 51.9939C71.7035 51.2381 71.0894 50.6253 70.3318 50.6253Z" fill="white"/>
<path d="M50.6093 55.671H44.5409C43.7833 55.671 43.1692 56.2837 43.1692 57.0396C43.1692 57.7954 43.7833 58.4082 44.5409 58.4082H50.6093C51.3669 58.4082 51.981 57.7954 51.981 57.0396C51.981 56.2837 51.3669 55.671 50.6093 55.671Z" fill="white"/>
<path d="M62.4533 172C61.9592 172.016 61.4731 171.872 61.0673 171.591C60.6614 171.309 60.3574 170.904 60.2004 170.437C59.9269 169.568 59.939 168.634 60.2351 167.773C60.8558 165.872 62.59 161.543 63.6774 158.767C63.8748 158.292 64.2089 157.886 64.6373 157.601C65.0657 157.316 65.5693 157.164 66.0843 157.164L125.176 156.514C125.176 156.514 128.525 156.172 128.67 159.438C128.816 162.703 128.768 168.533 128.768 168.533C128.768 168.533 129.215 170.764 126.081 170.815C124.012 170.846 71.5668 171.829 62.4533 172Z" fill="#6EC7EB"/>
<path d="M62.8286 169.614C62.281 169.629 61.7377 169.513 61.2442 169.276C60.4998 168.903 59.725 168.154 60.2111 166.69C60.8275 164.789 63.0023 159.158 64.0831 156.382C64.2765 155.909 64.6069 155.503 65.032 155.217C65.4572 154.932 65.9579 154.779 66.4706 154.778L125.187 154.141C125.187 154.141 128.514 153.799 128.659 157.064C128.805 160.33 128.759 166.16 128.759 166.16C128.759 166.16 129.193 168.39 126.087 168.442C123.952 168.466 68.5845 169.505 62.8286 169.614Z" fill="#CEF1FF"/>
<path d="M72.3435 167.715C76.7747 167.667 80.3393 165.076 80.3051 161.927C80.271 158.778 76.6511 156.264 72.2198 156.312C67.7885 156.36 64.224 158.952 64.2581 162.1C64.2923 165.249 67.9122 167.763 72.3435 167.715Z" fill="white"/>
<path d="M123.002 156.49L84.6446 156.904C84.0273 156.911 83.5323 157.415 83.539 158.031C83.5456 158.647 84.0515 159.141 84.6687 159.134L123.026 158.72C123.643 158.714 124.138 158.209 124.132 157.593C124.125 156.977 123.619 156.483 123.002 156.49Z" fill="white"/>
<path d="M112.922 160.481L83.8386 160.795C83.3124 160.801 82.8905 161.231 82.8962 161.756C82.9019 162.281 83.333 162.702 83.8592 162.697L112.943 162.383C113.469 162.377 113.891 161.947 113.886 161.422C113.88 160.897 113.449 160.476 112.922 160.481Z" fill="white"/>
<path d="M93.7587 165.355L83.1287 165.469C82.6984 165.474 82.3534 165.826 82.358 166.255C82.3627 166.685 82.7153 167.029 83.1456 167.024L93.7756 166.909C94.2059 166.905 94.551 166.553 94.5463 166.124C94.5416 165.694 94.189 165.35 93.7587 165.355Z" fill="white"/>
<path d="M59.6316 165.937C59.1375 165.952 58.6515 165.809 58.2456 165.527C57.8398 165.245 57.5358 164.841 57.3787 164.373C57.1052 163.504 57.1174 162.571 57.4134 161.71C58.0342 159.808 59.7683 155.479 60.8557 152.703C61.0531 152.228 61.3872 151.823 61.8156 151.538C62.2441 151.252 62.7476 151.1 63.2627 151.101L122.354 150.451C122.354 150.451 125.703 150.109 125.848 153.374C125.994 156.64 125.946 162.47 125.946 162.47C125.946 162.47 126.393 164.7 123.259 164.752C121.191 164.782 68.7451 165.766 59.6316 165.937Z" fill="#6EC7EB"/>
<path d="M60.0071 163.55C59.4595 163.566 58.9161 163.45 58.4227 163.212C57.6783 162.84 56.9034 162.091 57.3896 160.627C58.006 158.725 60.1807 153.095 61.2616 150.319C61.455 149.845 61.7853 149.44 62.2105 149.154C62.6356 148.868 63.1364 148.715 63.649 148.714L122.365 148.078C122.365 148.078 125.692 147.735 125.838 151.001C125.983 154.267 125.937 160.096 125.937 160.096C125.937 160.096 126.371 162.327 123.266 162.379C121.13 162.402 65.763 163.442 60.0071 163.55Z" fill="#CEF1FF"/>
<path d="M69.5236 161.652C73.9549 161.604 77.5195 159.013 77.4853 155.864C77.4512 152.715 73.8312 150.201 69.4 150.249C64.9687 150.297 61.4042 152.889 61.4383 156.037C61.4725 159.186 65.0924 161.7 69.5236 161.652Z" fill="white"/>
<path d="M120.182 150.427L81.8247 150.841C81.2074 150.848 80.7124 151.353 80.7191 151.968C80.7258 152.584 81.2316 153.078 81.8489 153.072L120.206 152.657C120.824 152.651 121.319 152.146 121.312 151.53C121.305 150.914 120.799 150.42 120.182 150.427Z" fill="white"/>
<path d="M110.103 154.418L81.0188 154.732C80.4926 154.738 80.0707 155.168 80.0764 155.693C80.082 156.218 80.5132 156.639 81.0394 156.634L110.123 156.32C110.649 156.314 111.071 155.884 111.066 155.359C111.06 154.834 110.629 154.413 110.103 154.418Z" fill="white"/>
<path d="M90.9366 159.292L80.3066 159.407C79.8763 159.411 79.5312 159.763 79.5359 160.192C79.5406 160.622 79.8932 160.966 80.3235 160.961L90.9535 160.846C91.3838 160.842 91.7288 160.49 91.7242 160.061C91.7195 159.631 91.3669 159.287 90.9366 159.292Z" fill="white"/>
<path d="M65.4027 160.705C64.923 160.713 64.4535 160.565 64.0659 160.283C63.6783 160.001 63.394 159.6 63.2562 159.141C62.9961 158.271 63.0074 157.343 63.2888 156.48C63.8791 154.578 65.5286 150.25 66.5617 147.473C66.7376 147.007 67.0508 146.604 67.4602 146.318C67.8696 146.032 68.3561 145.876 68.8559 145.871L125.132 145.26C125.132 145.26 128.321 144.918 128.459 148.186C128.598 151.454 128.559 157.281 128.559 157.281C128.559 157.281 128.993 159.514 126 159.561C124.034 159.583 74.08 160.538 65.4027 160.705Z" fill="#6EC7EB"/>
<path d="M65.7587 158.31C65.2314 158.328 64.7083 158.211 64.2394 157.97C63.5318 157.597 62.8026 156.85 63.254 155.386C63.84 153.485 65.9084 147.855 66.9437 145.078C67.1162 144.613 67.4265 144.21 67.8335 143.924C68.2405 143.638 68.725 143.483 69.2226 143.478L125.137 142.87C125.137 142.87 128.305 142.527 128.444 145.795C128.583 149.063 128.544 154.89 128.544 154.89C128.544 154.89 128.978 157.123 126.003 157.171C123.967 157.201 71.2411 158.212 65.7587 158.31Z" fill="#CEF1FF"/>
<path d="M74.8211 156.426C79.0414 156.381 82.435 153.791 82.4008 150.642C82.3667 147.493 78.9178 144.978 74.6975 145.023C70.4771 145.069 67.0836 147.658 67.1177 150.807C67.1519 153.956 70.6008 156.472 74.8211 156.426Z" fill="white"/>
<path d="M123.006 145.228L86.584 145.621C85.9667 145.628 85.4717 146.132 85.4784 146.748C85.4851 147.364 85.9909 147.858 86.6082 147.851L123.03 147.458C123.647 147.451 124.142 146.947 124.135 146.331C124.129 145.715 123.623 145.221 123.006 145.228Z" fill="white"/>
<path d="M113.283 149.431L85.6756 149.706C85.1494 149.711 84.727 150.141 84.7323 150.666C84.7376 151.191 85.1684 151.613 85.6946 151.607L113.302 151.332C113.828 151.327 114.251 150.897 114.245 150.372C114.24 149.847 113.809 149.425 113.283 149.431Z" fill="white"/>
<path d="M95.1772 154.075L85.1267 154.184C84.6964 154.188 84.3513 154.54 84.356 154.969C84.3606 155.399 84.7132 155.743 85.1435 155.738L95.1941 155.63C95.6244 155.625 95.9694 155.273 95.9648 154.844C95.9601 154.415 95.6075 154.07 95.1772 154.075Z" fill="white"/>
<path d="M57.7108 154.96C57.2311 154.964 56.7633 154.811 56.3788 154.525C55.9943 154.238 55.7143 153.834 55.5816 153.374C55.3315 152.501 55.3527 151.572 55.6424 150.711C56.2545 148.818 57.9495 144.507 59.0152 141.743C59.1952 141.278 59.5125 140.878 59.9252 140.596C60.3379 140.314 60.8266 140.164 61.3267 140.165H117.605C117.605 140.165 120.798 139.859 120.9 143.127C121.002 146.395 120.9 152.222 120.9 152.222C120.9 152.222 121.304 154.457 118.317 154.474C116.344 154.477 66.3902 154.888 57.7108 154.96Z" fill="#6EC7EB"/>
<path d="M58.0929 152.577C57.5687 152.588 57.0504 152.466 56.5866 152.222C55.8812 151.841 55.1607 151.085 55.6273 149.624C56.235 147.731 58.3663 142.122 59.4233 139.359C59.6009 138.895 59.9155 138.496 60.3255 138.214C60.7355 137.932 61.2217 137.781 61.7196 137.781H117.638C117.638 137.781 120.811 137.475 120.913 140.743C121.015 144.011 120.913 149.838 120.913 149.838C120.913 149.838 121.312 152.073 118.348 152.09C116.31 152.095 63.5753 152.532 58.0929 152.577Z" fill="#CEF1FF"/>
<path d="M67.189 150.767C71.4095 150.767 74.831 148.214 74.831 145.065C74.831 141.916 71.4095 139.364 67.189 139.364C62.9684 139.364 59.547 141.916 59.547 145.065C59.547 148.214 62.9684 150.767 67.189 150.767Z" fill="white"/>
<path d="M115.491 140.089H79.0676C78.4503 140.089 77.9498 140.588 77.9498 141.204C77.9498 141.82 78.4503 142.32 79.0676 142.32H115.491C116.109 142.32 116.609 141.82 116.609 141.204C116.609 140.588 116.109 140.089 115.491 140.089Z" fill="white"/>
<path d="M105.859 143.972H78.2515C77.7253 143.972 77.2987 144.397 77.2987 144.922C77.2987 145.447 77.7253 145.873 78.2515 145.873H105.859C106.385 145.873 106.812 145.447 106.812 144.922C106.812 144.397 106.385 143.972 105.859 143.972Z" fill="white"/>
<path d="M87.5691 148.638H77.5179C77.0876 148.638 76.7388 148.987 76.7388 149.416C76.7388 149.845 77.0876 150.193 77.5179 150.193H87.5691C87.9994 150.193 88.3483 149.845 88.3483 149.416C88.3483 148.987 87.9994 148.638 87.5691 148.638Z" fill="white"/>
</g>
<defs>
<clipPath id="clip0">
<rect width="149" height="172" fill="white"/>
</clipPath>
</defs>
</svg>
