<svg width="24" height="27" viewBox="0 0 24 27" fill="none" xmlns="http://www.w3.org/2000/svg">
<path d="M21.4286 1.6875H2.57143C1.15179 1.6875 0 2.82129 0 4.21875V22.7812C0 24.1787 1.15179 25.3125 2.57143 25.3125H21.4286C22.8482 25.3125 24 24.1787 24 22.7812V4.21875C24 2.82129 22.8482 1.6875 21.4286 1.6875ZM14.8554 21.9217C14.4054 22.0008 14.2393 21.7266 14.2393 21.4998C14.2393 21.215 14.25 19.7596 14.25 18.5836C14.25 17.7609 13.9714 17.2389 13.6446 16.9646C15.6268 16.7484 17.7161 16.4795 17.7161 13.1098C17.7161 12.15 17.3679 11.6701 16.8 11.0531C16.8911 10.8264 17.1964 9.89297 16.7089 8.68008C15.9643 8.45332 14.2607 9.62402 14.2607 9.62402C13.5536 9.42891 12.7875 9.32871 12.0321 9.32871C11.2768 9.32871 10.5107 9.42891 9.80357 9.62402C9.80357 9.62402 8.1 8.45332 7.35536 8.68008C6.86786 9.8877 7.16786 10.8211 7.26429 11.0531C6.69643 11.6701 6.42857 12.15 6.42857 13.1098C6.42857 16.4637 8.42679 16.7484 10.4089 16.9646C10.1518 17.1914 9.92143 17.5816 9.84107 18.1406C9.33214 18.3674 8.03036 18.7576 7.25357 17.4076C6.76607 16.5744 5.8875 16.5059 5.8875 16.5059C5.01964 16.4953 5.82857 17.0438 5.82857 17.0438C6.40714 17.3074 6.81429 18.3199 6.81429 18.3199C7.33393 19.8861 9.81964 19.3588 9.81964 19.3588C9.81964 20.0918 9.83036 21.2836 9.83036 21.4998C9.83036 21.7266 9.66964 22.0008 9.21429 21.9217C5.67857 20.7563 3.20357 17.4445 3.20357 13.5738C3.20357 8.73281 6.96429 5.05723 11.8821 5.05723C16.8 5.05723 20.7857 8.73281 20.7857 13.5738C20.7911 17.4445 18.3911 20.7615 14.8554 21.9217ZM9.6 18.6996C9.49821 18.7207 9.40179 18.6785 9.39107 18.61C9.38036 18.5309 9.45 18.4623 9.55179 18.4412C9.65357 18.4307 9.75 18.4729 9.76071 18.5414C9.77679 18.61 9.70714 18.6785 9.6 18.6996ZM9.09107 18.6521C9.09107 18.7207 9.01071 18.7787 8.90357 18.7787C8.78571 18.7893 8.70536 18.7313 8.70536 18.6521C8.70536 18.5836 8.78571 18.5256 8.89286 18.5256C8.99464 18.515 9.09107 18.573 9.09107 18.6521ZM8.35714 18.5941C8.33571 18.6627 8.22857 18.6943 8.1375 18.6627C8.03571 18.6416 7.96607 18.5625 7.9875 18.4939C8.00893 18.4254 8.11607 18.3938 8.20714 18.4148C8.31429 18.4465 8.38393 18.5256 8.35714 18.5941ZM7.69821 18.3094C7.65 18.3674 7.54821 18.3568 7.46786 18.2777C7.3875 18.2092 7.36607 18.109 7.41964 18.0615C7.46786 18.0035 7.56964 18.0141 7.65 18.0932C7.71964 18.1617 7.74643 18.2672 7.69821 18.3094ZM7.21071 17.8295C7.1625 17.8611 7.07143 17.8295 7.0125 17.7504C6.95357 17.6713 6.95357 17.5816 7.0125 17.5447C7.07143 17.4973 7.1625 17.5342 7.21071 17.6133C7.26964 17.6924 7.26964 17.7873 7.21071 17.8295V17.8295ZM6.8625 17.318C6.81429 17.3654 6.73393 17.3391 6.675 17.2863C6.61607 17.2178 6.60536 17.1387 6.65357 17.1018C6.70179 17.0543 6.78214 17.0807 6.84107 17.1334C6.9 17.202 6.91071 17.2811 6.8625 17.318ZM6.50357 16.9277C6.48214 16.9752 6.4125 16.9857 6.35357 16.9488C6.28393 16.9172 6.25179 16.8592 6.27321 16.8117C6.29464 16.7801 6.35357 16.7643 6.42321 16.7906C6.49286 16.8275 6.525 16.8855 6.50357 16.9277Z" fill="white"/>
</svg>
