<svg width="12" height="13" viewBox="0 0 12 13" fill="none" xmlns="http://www.w3.org/2000/svg">
<path d="M0 6.40143V1.21875C0 0.545645 0.503672 0 1.125 0H5.90902C6.20738 1.69019e-06 6.49353 0.128406 6.70451 0.356967L11.6705 5.73678C12.1098 6.21273 12.1098 6.9844 11.6705 7.46035L6.88648 12.643C6.44714 13.119 5.73483 13.119 5.29549 12.643L0.329508 7.26322C0.118529 7.03466 1.56018e-06 6.72467 0 6.40143H0ZM2.625 1.625C2.00367 1.625 1.5 2.17064 1.5 2.84375C1.5 3.51686 2.00367 4.0625 2.625 4.0625C3.24633 4.0625 3.75 3.51686 3.75 2.84375C3.75 2.17064 3.24633 1.625 2.625 1.625Z" fill="black" fill-opacity="0.6"/>
</svg>
