<svg width="23" height="23" viewBox="0 0 23 23" fill="none" xmlns="http://www.w3.org/2000/svg">
<path d="M0.673828 10.7364L8.2207 3.18948C8.89453 2.51565 10.0625 2.98733 10.0625 3.95315V8.26565H16.1719C16.7693 8.26565 17.25 8.74631 17.25 9.34377V13.6563C17.25 14.2537 16.7693 14.7344 16.1719 14.7344H10.0625V19.0469C10.0625 20.0082 8.89902 20.4844 8.2207 19.8106L0.673828 12.2637C0.256055 11.8414 0.256055 11.1586 0.673828 10.7364ZM14.375 3.41409V5.21096C14.375 5.50745 14.6176 5.75002 14.9141 5.75002H18.6875C19.4826 5.75002 20.125 6.39241 20.125 7.18752V15.8125C20.125 16.6076 19.4826 17.25 18.6875 17.25H14.9141C14.6176 17.25 14.375 17.4926 14.375 17.7891V19.586C14.375 19.8824 14.6176 20.125 14.9141 20.125H18.6875C21.0684 20.125 23 18.1934 23 15.8125V7.18752C23 4.80666 21.0684 2.87502 18.6875 2.87502H14.9141C14.6176 2.87502 14.375 3.1176 14.375 3.41409Z" fill="white"/>
</svg>
