<svg width="7" height="8" viewBox="0 0 7 8" fill="none" xmlns="http://www.w3.org/2000/svg">
<path d="M6.125 1H4.66667C4.66667 0.448438 4.14349 0 3.5 0C2.85651 0 2.33333 0.448438 2.33333 1H0.875C0.391927 1 0 1.33594 0 1.75V7.25C0 7.66406 0.391927 8 0.875 8H6.125C6.60807 8 7 7.66406 7 7.25V1.75C7 1.33594 6.60807 1 6.125 1ZM3.5 0.625C3.74245 0.625 3.9375 0.792187 3.9375 1C3.9375 1.20781 3.74245 1.375 3.5 1.375C3.25755 1.375 3.0625 1.20781 3.0625 1C3.0625 0.792187 3.25755 0.625 3.5 0.625ZM5.70938 4.24687L3.1026 6.4625C3.01693 6.53594 2.87839 6.53437 2.79271 6.46094L1.28698 5.15938C1.2013 5.08594 1.20312 4.96719 1.2888 4.89375L1.80651 4.45312C1.89219 4.37969 2.03073 4.38125 2.11641 4.45469L2.95495 5.17969L4.88724 3.53594C4.97292 3.4625 5.11146 3.46406 5.19714 3.5375L5.7112 3.98125C5.79687 4.05625 5.79505 4.17344 5.70938 4.24687Z" fill="black"/>
</svg>
