<svg width="363" height="394" viewBox="0 0 363 394" fill="none" xmlns="http://www.w3.org/2000/svg">
<g clip-path="url(#clip0)">
<path opacity="0.18" d="M130.234 74.1271C123.674 89.0318 122.288 105.952 113.229 119.634C99.4866 140.395 72.0369 148.419 51.98 163.919C32.0421 179.339 19.3779 203.656 21.366 227.92C23.3542 252.184 41.192 275.291 65.8973 282.218C74.4592 284.624 83.749 285.225 91.4568 289.489C108.643 298.993 111.241 322.358 126.628 334.295C140.392 344.97 160.623 343.648 177.649 338.73C194.675 333.813 211.035 325.828 228.81 324.817C239.409 324.216 250.071 326.139 260.628 325.101C274.083 323.779 286.447 317.738 298.278 311.538C318.853 300.751 340.982 286.329 344.405 264.346C348.326 239.017 325.279 216.049 325.643 190.45C325.811 178.553 331.104 167.098 331.594 155.181C332.294 138.743 322.969 122.265 308.142 113.633C296.009 106.56 281.224 104.736 268.546 98.5827C251.359 90.2413 239.535 74.788 224.953 62.8378C198.567 41.2177 145.523 39.3604 130.234 74.1271Z" fill="#6EC7EB"/>
<path d="M242.125 149.873C244.338 146.892 248.993 146.397 252.626 147.633C256.26 148.869 259.172 151.42 262.189 153.687C265.207 155.954 268.679 158.056 272.536 158.116C274.076 158.116 275.638 157.825 277.157 158.076C278.554 158.354 279.807 159.081 280.7 160.133C281.594 161.185 282.073 162.498 282.057 163.846C270.98 163.247 259.88 164.591 249.322 167.812C244.121 169.398 238.121 171.361 233.521 168.546C231.806 167.488 230.483 165.836 228.565 165.168C224.61 163.793 220.164 167.151 216.153 165.888C214.424 165.333 213.136 163.998 211.609 163.04C206.562 159.874 199.554 161.215 194.22 158.499C193.767 158.316 193.36 158.045 193.026 157.703C192.692 157.361 192.438 156.957 192.281 156.516C192.001 155.26 193.177 154.057 194.486 153.694C195.795 153.33 197.188 153.542 198.546 153.634C202.032 153.854 205.518 153.197 208.648 151.731C209.964 151.109 211.329 150.323 212.785 150.521C215.677 150.911 217.805 154.963 220.402 153.72C218.505 154.626 219.212 148.598 219.548 148.016C220.64 146.159 224.197 144.85 226.248 144.354C232.058 142.933 238.828 145.055 242.125 149.873Z" fill="#6EC7EB"/>
<path d="M242.125 149.873C244.338 146.892 248.993 146.397 252.626 147.633C256.26 148.869 259.172 151.42 262.189 153.687C265.207 155.954 268.679 158.056 272.536 158.116C274.076 158.116 275.638 157.825 277.157 158.076C278.554 158.354 279.807 159.081 280.7 160.133C281.594 161.185 282.073 162.498 282.057 163.846C270.98 163.247 259.88 164.591 249.322 167.812C244.121 169.398 238.121 171.361 233.521 168.546C231.806 167.488 230.483 165.836 228.565 165.168C224.61 163.793 220.164 167.151 216.153 165.888C214.424 165.333 213.136 163.998 211.609 163.04C206.562 159.874 199.554 161.215 194.22 158.499C193.767 158.316 193.36 158.045 193.026 157.703C192.692 157.361 192.438 156.957 192.281 156.516C192.001 155.26 193.177 154.057 194.486 153.694C195.795 153.33 197.188 153.542 198.546 153.634C202.032 153.854 205.518 153.197 208.648 151.731C209.964 151.109 211.329 150.323 212.785 150.521C215.677 150.911 217.805 154.963 220.402 153.72C218.505 154.626 219.212 148.598 219.548 148.016C220.64 146.159 224.197 144.85 226.248 144.354C232.058 142.933 238.828 145.055 242.125 149.873Z" fill="url(#paint0_linear)"/>
<path d="M201.794 0L126.796 75.4357H161.373V149.655H237.512V74.8276H270.317L201.794 0Z" fill="#6EC7EB"/>
<path d="M36.5225 144.255L82.804 96.2957L130.612 143.317H101.251V203.867H60.4928V144.255H36.5225Z" fill="#6EC7EB"/>
<path d="M268.189 119.872L314.47 71.9128L362.278 118.934H332.917V179.485H292.159V119.872H268.189Z" fill="#6EC7EB"/>
<path d="M190.747 209.856C190.747 209.856 190.803 269.019 188.017 274.557C185.826 278.913 166.658 285.325 158.572 287.869C156.381 288.563 154.995 288.966 154.995 288.966L156.549 260.73C155.913 264.552 154.915 268.313 153.567 271.966C151.684 276.798 148.848 281.094 144.872 279.898C136.52 277.393 134.168 275.932 134.168 275.932L130.612 264.035C130.612 264.035 143.983 258.337 144.235 251.417C144.487 244.497 148.764 223.782 160.378 219.208L162.773 218.263L171.993 214.635C171.993 214.635 179.693 192.208 178.027 173.384C176.361 154.56 178.027 151.737 178.027 151.737H189.76C189.76 151.737 190.544 171.018 190.747 176.398C190.95 181.778 190.747 209.856 190.747 209.856Z" fill="#3F3D56"/>
<path d="M182.074 199.551C180.778 204.449 178.734 209.135 176.697 213.802C175.647 215.785 175.017 220.12 172.875 221.403C170.592 222.771 166.385 219.863 164.236 218.951C163.753 218.739 163.256 218.521 162.773 218.29L171.993 214.661C171.993 214.661 179.693 192.234 178.027 173.41C176.361 154.586 178.027 151.764 178.027 151.764H179.217C179.407 151.851 179.584 151.962 179.742 152.094C180.897 153.026 181.065 154.626 181.142 156.06C181.408 160.184 181.668 164.362 180.82 168.413C180.298 170.308 179.884 172.227 179.581 174.164C179.399 176.114 179.763 178.215 181.135 179.683C181.78 180.344 182.634 180.899 183.096 181.705C183.453 182.42 183.633 183.202 183.621 183.992C183.93 189.222 183.408 194.467 182.074 199.551Z" fill="#25233A"/>
<path d="M162.192 281.907C161.614 282.786 161.144 283.724 160.791 284.703C160.696 285.158 160.548 285.601 160.35 286.025C160.142 286.362 159.88 286.668 159.573 286.931L158.565 287.896C156.374 288.59 154.988 288.993 154.988 288.993L156.542 260.756C155.906 264.579 154.908 268.339 153.56 271.993C154.085 267.075 155.856 259.943 155.926 257.055C156.045 252.912 156.807 248.808 158.187 244.874C159.314 245.62 159.685 247.008 159.895 248.284C160.721 253.241 160.441 258.384 161.996 263.182C163.011 266.322 164.796 269.296 165.027 272.581C165.258 275.866 163.872 279.032 162.192 281.907Z" fill="#25233A"/>
<path d="M161.141 266.15L155.45 271.312C155.156 271.579 154.777 271.749 154.372 271.795L120.118 275.76C119.679 275.814 119.234 275.72 118.863 275.494C118.491 275.267 118.216 274.924 118.087 274.524L110.226 250.366C110.146 250.116 110.125 249.853 110.165 249.594C110.205 249.336 110.304 249.089 110.455 248.87C110.606 248.652 110.806 248.467 111.041 248.329C111.276 248.192 111.54 248.104 111.815 248.073L143.598 244.655C144.034 244.608 144.474 244.706 144.841 244.933C145.208 245.16 145.479 245.502 145.607 245.898L150.794 261.834C151.033 262.581 151.229 263.09 151.229 263.09H159.853C160.228 263.093 160.592 263.201 160.901 263.401C161.21 263.601 161.449 263.883 161.587 264.211C161.725 264.539 161.757 264.899 161.677 265.245C161.598 265.59 161.411 265.905 161.141 266.15Z" fill="#6EC7EB"/>
<path d="M177.607 146.562C177.564 146.349 177.575 146.129 177.639 145.921C177.704 145.713 177.82 145.523 177.978 145.365C178.16 145.258 178.373 145.208 178.587 145.223C178.801 145.237 179.004 145.315 179.168 145.445C179.499 145.705 179.762 146.033 179.938 146.403L180.855 147.97C181.069 148.406 181.382 148.792 181.772 149.1C182.439 149.444 183.205 149.574 183.957 149.47L187.695 149.318C187.855 149.301 188.018 149.326 188.164 149.391C188.263 149.471 188.339 149.574 188.383 149.69C188.427 149.805 188.439 149.93 188.416 150.052C188.403 150.626 188.254 151.19 187.982 151.704L183.782 151.85C182.627 151.889 180.82 152.286 179.721 151.955C178.055 151.433 177.684 147.963 177.607 146.562Z" fill="url(#paint1_linear)"/>
<path d="M189.368 340.297C188.976 342.524 185.168 352.815 185.168 352.815L182.298 351.057L178.538 348.757C178.538 348.757 185.378 319.212 184.769 316.191C184.16 313.171 179.399 305.365 179.399 305.365L176.137 376.465L167.736 379.525C167.736 379.525 154.211 302.814 154.974 288.973L187.996 274.564C187.996 274.564 197.797 301.802 198.973 307.559C200.149 313.316 189.767 338.069 189.368 340.297Z" fill="#6EC7EB"/>
<path d="M177.04 356.662L191.741 365.427C191.741 365.427 193.471 362.743 190.74 359.359C188.01 355.975 185.14 352.815 185.14 352.815L178.496 348.757L177.04 356.662Z" fill="#3F3D56"/>
<path d="M167.757 379.525C167.757 379.525 163.046 387.873 164.81 392.321C166.574 396.769 170.557 391.33 172.868 388.058C174.828 385.269 177.026 379.525 177.026 379.525L176.137 376.465L167.757 379.525Z" fill="#3F3D56"/>
<path d="M192.266 312.199L182.298 351.057L178.538 348.757C178.538 348.757 185.378 319.212 184.769 316.192C184.16 313.171 179.399 305.365 179.399 305.365C179.399 305.365 183.278 298.874 184.657 300.262C186.036 301.65 192.266 312.199 192.266 312.199Z" fill="url(#paint2_linear)"/>
<path d="M160.658 286.494L169.493 378.89L167.757 379.551C167.757 379.551 154.253 302.49 154.995 288.999L160.658 286.494Z" fill="url(#paint3_linear)"/>
<path d="M159.839 263.063L153.21 268.84L150.794 261.834C151.033 262.581 151.229 263.09 151.229 263.09L159.839 263.063Z" fill="url(#paint4_linear)"/>
<path d="M110.226 250.392L141.806 247.134C142.341 247.079 142.88 247.196 143.335 247.468C143.79 247.739 144.135 248.148 144.312 248.628L153 271.953L120.097 275.787L110.226 250.392Z" fill="url(#paint5_linear)"/>
<path d="M170.921 208.805C170.109 210.51 171.993 214.661 171.993 214.661C171.993 214.661 174.03 218.342 173.344 222.057C173.344 222.236 173.267 222.421 173.225 222.599C172.203 226.492 159.111 222.374 159.51 216.935C159.909 211.495 153.539 197.628 153.539 197.628C157.277 182.049 169.528 186.986 170.62 187.819C171.713 188.652 175.787 200.966 174.674 203.762C174.358 204.572 173.901 205.327 173.323 205.996C172.413 207.08 171.454 207.688 170.921 208.805Z" fill="url(#paint6_linear)"/>
<path d="M170.62 187.833C170.62 187.833 172.455 183.523 170.62 181.99C168.786 180.456 165.72 180.046 162.255 179.908C158.789 179.769 157.704 179.207 154.995 181.99C152.286 184.772 151.376 189.128 149.695 189.875C148.015 190.622 146.545 193.133 147.427 195.612C148.309 198.091 150.521 202.037 150.963 202.169C151.404 202.301 154.428 205.361 154.575 207.172C154.722 208.983 158.621 209.856 158.621 209.856L158.404 202.717C158.404 202.717 157.963 204.595 156.122 202.995C154.281 201.396 157.004 199.518 157.221 199.591C157.438 199.664 155.121 195.929 155.856 194.105C156.591 192.281 160.812 182.426 170.62 187.833Z" fill="#3F3D56"/>
<path d="M173.344 222.084C173.227 222.362 173.051 222.614 172.826 222.824C172.476 223.101 172.053 223.285 171.602 223.354C171.151 223.424 170.689 223.378 170.263 223.22C169.42 222.887 168.681 222.357 168.114 221.68C166.831 220.278 165.903 218.619 165.399 216.828C164.896 215.037 164.831 213.161 165.209 211.343C165.328 210.681 165.585 210.047 165.965 209.479C166.889 208.21 168.618 207.754 170.13 207.166C171.643 206.577 172.749 205.619 173.323 206.022C172.413 207.093 171.454 207.701 170.921 208.818C170.109 210.523 171.993 214.674 171.993 214.674C171.993 214.674 174.03 218.343 173.344 222.084Z" fill="url(#paint7_linear)"/>
<path d="M242.279 190.027C240.879 195.975 244.688 202.585 250.722 204.667C255.798 206.419 261.412 205.143 266.824 205.15C276.289 205.15 285.284 209.195 294.728 209.776C300.981 210.154 307.232 209.016 312.888 206.472C316.157 204.998 319.301 203.041 322.892 202.612C325.902 202.248 329.046 203.002 331.958 202.182C336.907 200.794 339.379 194.852 337.593 190.285C335.808 185.717 330.705 182.789 325.559 182.353C320.561 181.956 315.394 183.569 310.592 182.208C305.222 180.687 301.54 175.783 296.206 174.144C288.393 171.751 280.489 177.026 274.167 181.983C273.492 180.193 272.263 178.636 270.641 177.512C269.019 176.388 267.077 175.749 265.066 175.677C260.936 175.598 256.855 178.837 253.102 180.304C248.104 182.327 243.609 184.495 242.279 190.027Z" fill="#6EC7EB"/>
<path d="M242.279 190.027C240.879 195.975 244.688 202.585 250.722 204.667C255.798 206.419 261.412 205.143 266.824 205.15C276.289 205.15 285.284 209.195 294.728 209.776C300.981 210.154 307.232 209.016 312.888 206.472C316.157 204.998 319.301 203.041 322.892 202.612C325.902 202.248 329.046 203.002 331.958 202.182C336.907 200.794 339.379 194.852 337.593 190.285C335.808 185.717 330.705 182.789 325.559 182.353C320.561 181.956 315.394 183.569 310.592 182.208C305.222 180.687 301.54 175.783 296.206 174.144C288.393 171.751 280.489 177.026 274.167 181.983C273.492 180.193 272.263 178.636 270.641 177.512C269.019 176.388 267.077 175.749 265.066 175.677C260.936 175.598 256.855 178.837 253.102 180.304C248.104 182.327 243.609 184.495 242.279 190.027Z" fill="url(#paint8_linear)"/>
<path d="M0.280576 199.822C-1.11956 205.771 2.68881 212.381 8.7304 214.463C13.8059 216.214 19.4134 214.932 24.8319 214.945C34.2899 214.945 43.2857 218.984 52.7296 219.572C58.9845 219.95 65.2379 218.812 70.8964 216.267C74.1657 214.8 77.302 212.837 80.9003 212.407C83.9106 212.05 87.0539 212.804 89.9662 211.984C94.9087 210.596 97.3869 204.647 95.6018 200.087C93.8166 195.526 88.7061 192.585 83.5676 192.155C78.5691 191.752 73.4026 193.365 68.6002 192.01C63.2236 190.49 59.5413 185.579 54.2138 183.946C46.401 181.547 38.4973 186.828 32.1756 191.778C31.4987 189.99 30.27 188.435 28.6479 187.312C27.0258 186.189 25.0846 185.551 23.0748 185.479C18.9444 185.4 14.863 188.632 11.1106 190.106C6.10514 192.122 1.62471 194.323 0.280576 199.822Z" fill="#6EC7EB"/>
<path d="M0.280576 199.822C-1.11956 205.771 2.68881 212.381 8.7304 214.463C13.8059 216.214 19.4134 214.932 24.8319 214.945C34.2899 214.945 43.2857 218.984 52.7296 219.572C58.9845 219.95 65.2379 218.812 70.8964 216.267C74.1657 214.8 77.302 212.837 80.9003 212.407C83.9106 212.05 87.0539 212.804 89.9662 211.984C94.9087 210.596 97.3869 204.647 95.6018 200.087C93.8166 195.526 88.7061 192.585 83.5676 192.155C78.5691 191.752 73.4026 193.365 68.6002 192.01C63.2236 190.49 59.5413 185.579 54.2138 183.946C46.401 181.547 38.4973 186.828 32.1756 191.778C31.4987 189.99 30.27 188.435 28.6479 187.312C27.0258 186.189 25.0846 185.551 23.0748 185.479C18.9444 185.4 14.863 188.632 11.1106 190.106C6.10514 192.122 1.62471 194.323 0.280576 199.822Z" fill="url(#paint9_linear)"/>
<path d="M131.627 275.721C132.339 275.857 133.069 275.882 133.79 275.793L137.689 275.536C138.192 275.518 138.691 275.44 139.173 275.304C139.602 275.156 139.985 274.911 140.29 274.59C140.595 274.27 140.812 273.884 140.924 273.467C140.962 273.344 140.962 273.213 140.924 273.09C140.791 272.713 140.223 272.74 139.852 272.964C139.481 273.189 139.229 273.539 138.816 273.625C138.594 273.644 138.37 273.619 138.158 273.553L135.953 273.024C135.829 272.985 135.698 272.971 135.568 272.984C135.085 273.057 135.043 273.691 135.12 274.147C134.971 273.961 134.78 273.808 134.561 273.699C134.342 273.591 134.1 273.529 133.853 273.52C133.605 273.521 133.367 273.615 133.192 273.781C133.016 273.947 132.917 274.171 132.915 274.405L132.047 273.744C131.928 273.658 131.767 273.566 131.634 273.639C131.57 273.687 131.526 273.755 131.508 273.83L131.214 274.537C131.291 274.352 130.107 273.876 130.03 274.537C129.988 275.106 131.228 275.621 131.627 275.721Z" fill="url(#paint10_linear)"/>
</g>
<defs>
<linearGradient id="paint0_linear" x1="242.279" y1="141.658" x2="234.278" y2="173.677" gradientUnits="userSpaceOnUse">
<stop stop-color="white" stop-opacity="0"/>
<stop offset="0.06" stop-color="white" stop-opacity="0.13"/>
<stop offset="0.16" stop-color="white" stop-opacity="0.33"/>
<stop offset="0.26" stop-color="white" stop-opacity="0.51"/>
<stop offset="0.37" stop-color="white" stop-opacity="0.66"/>
<stop offset="0.48" stop-color="white" stop-opacity="0.79"/>
<stop offset="0.59" stop-color="white" stop-opacity="0.88"/>
<stop offset="0.71" stop-color="white" stop-opacity="0.95"/>
<stop offset="0.84" stop-color="white" stop-opacity="0.99"/>
<stop offset="1" stop-color="white"/>
</linearGradient>
<linearGradient id="paint1_linear" x1="177.6" y1="148.644" x2="188.416" y2="148.644" gradientUnits="userSpaceOnUse">
<stop stop-color="#ECC4D7"/>
<stop offset="0.42" stop-color="#EFD4D1"/>
<stop offset="1" stop-color="#F2EAC9"/>
</linearGradient>
<linearGradient id="paint2_linear" x1="208.564" y1="314.552" x2="76.7851" y2="378.44" gradientUnits="userSpaceOnUse">
<stop stop-opacity="0.07"/>
<stop offset="0.08" stop-opacity="0.25"/>
<stop offset="1"/>
</linearGradient>
<linearGradient id="paint3_linear" x1="5379.93" y1="47527.8" x2="8254.25" y2="47463" gradientUnits="userSpaceOnUse">
<stop stop-opacity="0.07"/>
<stop offset="0.08" stop-opacity="0.25"/>
<stop offset="1"/>
</linearGradient>
<linearGradient id="paint4_linear" x1="3572.29" y1="3016.68" x2="3240.38" y2="3386.54" gradientUnits="userSpaceOnUse">
<stop stop-opacity="0.07"/>
<stop offset="0.08" stop-opacity="0.25"/>
<stop offset="1"/>
</linearGradient>
<linearGradient id="paint5_linear" x1="134.147" y1="271.98" x2="144.283" y2="320.496" gradientUnits="userSpaceOnUse">
<stop stop-opacity="0.07"/>
<stop offset="0.52" stop-opacity="0.83"/>
<stop offset="0.56" stop-opacity="0.87"/>
<stop offset="1"/>
</linearGradient>
<linearGradient id="paint6_linear" x1="8063.72" y1="11899.1" x2="8713.3" y2="11899.1" gradientUnits="userSpaceOnUse">
<stop stop-color="#ECC4D7"/>
<stop offset="0.42" stop-color="#EFD4D1"/>
<stop offset="1" stop-color="#F2EAC9"/>
</linearGradient>
<linearGradient id="paint7_linear" x1="3454.93" y1="5608.22" x2="4293.27" y2="6241.27" gradientUnits="userSpaceOnUse">
<stop stop-color="#ECC4D7"/>
<stop offset="0.42" stop-color="#EFD4D1"/>
<stop offset="1" stop-color="#F2EAC9"/>
</linearGradient>
<linearGradient id="paint8_linear" x1="294.266" y1="171.89" x2="284.814" y2="225.077" gradientUnits="userSpaceOnUse">
<stop offset="0.02" stop-color="white" stop-opacity="0"/>
<stop offset="0.06" stop-color="white" stop-opacity="0.13"/>
<stop offset="0.13" stop-color="white" stop-opacity="0.33"/>
<stop offset="0.2" stop-color="white" stop-opacity="0.51"/>
<stop offset="0.27" stop-color="white" stop-opacity="0.66"/>
<stop offset="0.35" stop-color="white" stop-opacity="0.79"/>
<stop offset="0.43" stop-color="white" stop-opacity="0.88"/>
<stop offset="0.51" stop-color="white" stop-opacity="0.95"/>
<stop offset="0.6" stop-color="white" stop-opacity="0.99"/>
<stop offset="0.71" stop-color="white"/>
</linearGradient>
<linearGradient id="paint9_linear" x1="21146.3" y1="10048" x2="21159.7" y2="12745.8" gradientUnits="userSpaceOnUse">
<stop stop-color="white" stop-opacity="0"/>
<stop offset="0.06" stop-color="white" stop-opacity="0.13"/>
<stop offset="0.16" stop-color="white" stop-opacity="0.33"/>
<stop offset="0.26" stop-color="white" stop-opacity="0.51"/>
<stop offset="0.37" stop-color="white" stop-opacity="0.66"/>
<stop offset="0.48" stop-color="white" stop-opacity="0.79"/>
<stop offset="0.59" stop-color="white" stop-opacity="0.88"/>
<stop offset="0.71" stop-color="white" stop-opacity="0.95"/>
<stop offset="0.84" stop-color="white" stop-opacity="0.99"/>
<stop offset="1" stop-color="white"/>
</linearGradient>
<linearGradient id="paint10_linear" x1="3815.06" y1="1536.66" x2="3985.35" y2="1536.66" gradientUnits="userSpaceOnUse">
<stop stop-color="#ECC4D7"/>
<stop offset="0.42" stop-color="#EFD4D1"/>
<stop offset="1" stop-color="#F2EAC9"/>
</linearGradient>
<clipPath id="clip0">
<rect width="362.278" height="394" fill="white"/>
</clipPath>
</defs>
</svg>
