<svg width="626" height="442" viewBox="0 0 626 442" fill="none" xmlns="http://www.w3.org/2000/svg">
<g clip-path="url(#clip0)">
<path opacity="0.18" d="M554.281 310.7C551.575 334.464 541.263 356.753 526.798 375.945C522.945 381.042 518.821 385.927 514.443 390.579C513.577 391.499 512.697 392.405 511.818 393.284C478.083 427.76 430.477 445.045 382.357 441.528C316.341 436.723 250.804 426.751 186.347 411.706C152.761 403.875 118.998 396.449 84.5596 394.907C56.5213 393.663 39.2275 386.008 28.3343 375.499C6.75078 354.684 10.3367 322.683 5.47877 307.197C-2.87045 280.607 0.0659853 251.988 3.01595 224.275C4.93749 206.53 7.17026 187.892 17.6711 173.448C25.6143 162.519 37.4819 155.175 49.3629 148.737C100.203 121.214 157.7 104.47 201.787 67.0998C234.9 39.0217 265.536 4.04584 308.798 0.434641C352.059 -3.17656 396.62 15.461 424.455 48.7733C445.403 73.8624 456.689 105.673 476.229 131.858C487.352 146.736 500.965 159.639 512.291 174.354C530.925 198.604 542.955 227.48 549.87 257.263C553.916 274.764 556.27 292.861 554.281 310.7Z" fill="#6EC7EB"/>
<path d="M346.148 305.085H207.337V375.943H346.148V305.085Z" fill="#6EC7EB"/>
<path d="M346.148 305.085H207.337V375.943H346.148V305.085Z" fill="url(#paint0_linear)"/>
<path opacity="0.54" d="M526.799 375.497V375.944C522.947 381.04 518.823 385.925 514.445 390.578C513.579 391.497 512.699 392.404 511.819 393.283C478.084 427.758 430.479 445.043 382.359 441.527C316.343 436.721 250.805 426.749 186.349 411.704C168.148 407.457 149.907 403.332 131.531 400.208C115.999 397.473 100.312 395.703 84.5612 394.906C67.9575 394.175 55.1157 391.186 45.1562 386.682L44.2766 386.277C40.8833 384.717 37.644 382.842 34.6012 380.677C32.3809 379.116 30.2861 377.384 28.3359 375.497H526.799Z" fill="#6EC7EB"/>
<path d="M465.445 73.9688H81.5977C70.0736 73.9688 60.7315 83.3062 60.7315 94.8244V311.537C60.7315 323.055 70.0736 332.393 81.5977 332.393H465.445C476.97 332.393 486.312 323.055 486.312 311.537V94.8244C486.312 83.3062 476.97 73.9688 465.445 73.9688Z" fill="#6EC7EB"/>
<path d="M486.352 94.8245V264.794H60.7315V94.8245C60.7315 89.2932 62.9299 83.9885 66.843 80.0773C70.7562 76.1661 76.0637 73.9688 81.5977 73.9688H465.445C468.189 73.9652 470.906 74.5019 473.441 75.5483C475.977 76.5946 478.281 78.1301 480.222 80.0669C482.164 82.0037 483.705 84.3039 484.756 86.8361C485.808 89.3682 486.351 92.0827 486.352 94.8245V94.8245Z" fill="url(#paint1_linear)"/>
<path d="M441.142 86.5606H105.549V139.308H441.142V86.5606Z" fill="url(#paint2_linear)"/>
<path d="M258.461 147.423H105.549V254.272H258.461V147.423Z" fill="url(#paint3_linear)"/>
<path d="M438.436 147.423H269.286V182.589H438.436V147.423Z" fill="url(#paint4_linear)"/>
<path d="M438.436 189.351H269.286V225.869H438.436V189.351Z" fill="url(#paint5_linear)"/>
<path d="M486.352 264.794V311.537C486.352 317.068 484.154 322.373 480.241 326.284C476.328 330.195 471.02 332.393 465.486 332.393H81.5977C76.0637 332.393 70.7562 330.195 66.843 326.284C62.9299 322.373 60.7315 317.068 60.7315 311.537V264.794H486.352Z" fill="#6EC7EB"/>
<path d="M223.67 392.119C223.67 394.272 222.814 396.336 221.292 397.858C219.769 399.38 217.704 400.235 215.551 400.235H131.531C115.999 397.5 100.312 395.73 84.5613 394.933C67.9575 394.202 55.1157 391.213 45.1562 386.709L44.2766 386.304C45.786 384.864 47.7921 384.06 49.8788 384.058H215.578C217.717 384.066 219.767 384.916 221.282 386.426C222.798 387.935 223.656 389.981 223.67 392.119Z" fill="url(#paint6_linear)"/>
<path d="M270.382 305.586C278.297 305.586 284.713 299.173 284.713 291.263C284.713 283.352 278.297 276.94 270.382 276.94C262.468 276.94 256.052 283.352 256.052 291.263C256.052 299.173 262.468 305.586 270.382 305.586Z" fill="url(#paint7_linear)"/>
</g>
<path opacity="0.18" d="M448.762 199.315C435.372 207.776 426.35 221.553 418.333 235.226C412.414 245.309 406.763 255.669 399.336 264.756C396.129 268.683 392.289 273.66 387.809 276.027C383.328 278.394 377.911 279.304 373.3 281.931C355.1 292.283 342.1 311.972 341.077 333.032C340.875 339.738 341.369 346.447 342.55 353.051C344.743 366.975 348.418 381.124 356.972 392.335C367.702 406.397 383.727 411.937 398.07 421.015C413.098 430.552 433.76 429.685 450.938 427.743C470.872 425.445 490.519 420.443 510.574 420.261C530.846 420.07 552.123 424.656 570.757 416.663C578.063 413.524 584.45 408.617 590.751 403.762C601.931 395.144 613.484 386.084 619.672 373.417C623.382 365.822 624.924 357.342 625.609 348.924C628.252 316.533 617.41 282.061 592.623 261.062C583.298 253.138 572.291 247.286 563.572 238.746C553.354 228.697 546.698 215.337 535.838 206.016C516.502 189.439 470.326 185.685 448.762 199.315Z" fill="#6EC7EB"/>
<path d="M529.434 210.178H452.845C444.311 210.178 437.392 217.099 437.392 225.637V402.643C437.392 411.181 444.311 418.102 452.845 418.102H529.434C537.969 418.102 544.887 411.181 544.887 402.643V225.637C544.887 217.099 537.969 210.178 529.434 210.178Z" fill="#6EC7EB"/>
<path d="M527.822 212.796H454.457C446.205 212.796 439.516 219.488 439.516 227.743V400.198C439.516 408.453 446.205 415.145 454.457 415.145H527.822C536.074 415.145 542.764 408.453 542.764 400.198V227.743C542.764 219.488 536.074 212.796 527.822 212.796Z" fill="#473F47"/>
<path d="M539.956 229.434V396.427C539.917 400.213 538.377 403.828 535.674 406.478C532.971 409.128 529.327 410.596 525.543 410.559H456.806C454.295 410.567 451.825 409.921 449.639 408.686C447.446 407.475 445.617 405.7 444.34 403.545C443.063 401.39 442.385 398.932 442.376 396.427V229.434C442.426 225.652 443.973 222.044 446.678 219.402C449.383 216.759 453.025 215.297 456.806 215.337H468.463V217.391C468.492 218.74 468.92 220.049 469.691 221.155C470.462 222.261 471.542 223.114 472.796 223.608C473.638 223.94 474.535 224.11 475.44 224.111H507.368C509.189 224.111 510.937 223.394 512.235 222.116C513.532 220.838 514.275 219.1 514.302 217.279V215.337H525.569C529.266 215.328 532.827 216.73 535.527 219.255C536.922 220.559 538.035 222.135 538.796 223.885C539.558 225.636 539.953 227.525 539.956 229.434V229.434Z" fill="white"/>
<path opacity="0.41" d="M537.772 344.017H444.803V400.796H537.772V344.017Z" fill="#6EC7EB"/>
<path d="M457.526 365.414C461.613 365.414 464.927 362.099 464.927 358.01C464.927 353.921 461.613 350.606 457.526 350.606C453.438 350.606 450.124 353.921 450.124 358.01C450.124 362.099 453.438 365.414 457.526 365.414Z" fill="#6EC7EB"/>
<path d="M524.39 351.508H473.386C472.309 351.508 471.436 352.381 471.436 353.458C471.436 354.536 472.309 355.409 473.386 355.409H524.39C525.467 355.409 526.34 354.536 526.34 353.458C526.34 352.381 525.467 351.508 524.39 351.508Z" fill="#6EC7EB"/>
<path d="M502.333 360.29H473.386C472.309 360.29 471.436 361.164 471.436 362.241C471.436 363.318 472.309 364.192 473.386 364.192H502.333C503.41 364.192 504.283 363.318 504.283 362.241C504.283 361.164 503.41 360.29 502.333 360.29Z" fill="#6EC7EB"/>
<path opacity="0.41" d="M537.772 279.555H444.803V340.271H537.772V279.555Z" fill="#6EC7EB"/>
<path d="M457.526 300.953C461.613 300.953 464.927 297.638 464.927 293.549C464.927 289.459 461.613 286.145 457.526 286.145C453.438 286.145 450.124 289.459 450.124 293.549C450.124 297.638 453.438 300.953 457.526 300.953Z" fill="#6EC7EB"/>
<path d="M524.39 287.046H473.386C472.309 287.046 471.436 287.92 471.436 288.997C471.436 290.074 472.309 290.948 473.386 290.948H524.39C525.467 290.948 526.34 290.074 526.34 288.997C526.34 287.92 525.467 287.046 524.39 287.046Z" fill="#6EC7EB"/>
<path d="M502.333 295.829H473.386C472.309 295.829 471.436 296.702 471.436 297.78C471.436 298.857 472.309 299.73 473.386 299.73H502.333C503.41 299.73 504.283 298.857 504.283 297.78C504.283 296.702 503.41 295.829 502.333 295.829Z" fill="#6EC7EB"/>
<path d="M539.956 229.434V243.081H442.376V229.434C442.426 225.652 443.973 222.044 446.678 219.402C449.383 216.759 453.025 215.297 456.806 215.337H468.463V217.391C468.492 218.74 468.92 220.049 469.691 221.155C470.462 222.261 471.542 223.114 472.796 223.608C473.638 223.94 474.535 224.11 475.44 224.111H507.368C509.189 224.111 510.937 223.394 512.235 222.116C513.532 220.838 514.275 219.1 514.302 217.279V215.337H525.569C529.266 215.328 532.827 216.73 535.527 219.255C536.922 220.559 538.035 222.135 538.796 223.885C539.558 225.636 539.953 227.525 539.956 229.434V229.434Z" fill="#6EC7EB"/>
<path d="M539.956 229.434V243.081H442.376V229.434C442.426 225.652 443.973 222.044 446.678 219.402C449.383 216.759 453.025 215.297 456.806 215.337H468.463V217.391C468.492 218.74 468.92 220.049 469.691 221.155C470.462 222.261 471.542 223.114 472.796 223.608C473.638 223.94 474.535 224.11 475.44 224.111H507.368C509.189 224.111 510.937 223.394 512.235 222.116C513.532 220.838 514.275 219.1 514.302 217.279V215.337H525.569C529.266 215.328 532.827 216.73 535.527 219.255C536.922 220.559 538.035 222.135 538.796 223.885C539.558 225.636 539.953 227.525 539.956 229.434V229.434Z" fill="url(#paint8_linear)"/>
<path d="M494.126 232.365H448.737V240.419H494.126V232.365Z" fill="#6EC7EB"/>
<path d="M529.634 234.549H511.685C510.804 234.549 510.09 235.264 510.09 236.145C510.09 237.026 510.804 237.74 511.685 237.74H529.634C530.514 237.74 531.228 237.026 531.228 236.145C531.228 235.264 530.514 234.549 529.634 234.549Z" fill="#6EC7EB"/>
<path d="M503.364 240.904C505.992 240.904 508.122 238.773 508.122 236.145C508.122 233.516 505.992 231.385 503.364 231.385C500.737 231.385 498.606 233.516 498.606 236.145C498.606 238.773 500.737 240.904 503.364 240.904Z" fill="#6EC7EB"/>
<path opacity="0.41" d="M537.772 248.959H444.803V275.81H537.772V248.959Z" fill="#6EC7EB"/>
<path d="M457.526 270.365C461.613 270.365 464.927 267.05 464.927 262.961C464.927 258.872 461.613 255.557 457.526 255.557C453.438 255.557 450.124 258.872 450.124 262.961C450.124 267.05 453.438 270.365 457.526 270.365Z" fill="#6EC7EB"/>
<path d="M524.39 256.45H473.386C472.309 256.45 471.436 257.323 471.436 258.401C471.436 259.478 472.309 260.351 473.386 260.351H524.39C525.467 260.351 526.34 259.478 526.34 258.401C526.34 257.323 525.467 256.45 524.39 256.45Z" fill="#6EC7EB"/>
<path d="M502.333 265.232H473.386C472.309 265.232 471.436 266.106 471.436 267.183C471.436 268.261 472.309 269.134 473.386 269.134H502.333C503.41 269.134 504.283 268.261 504.283 267.183C504.283 266.106 503.41 265.232 502.333 265.232Z" fill="#6EC7EB"/>
<defs>
<linearGradient id="paint0_linear" x1="272.791" y1="269.366" x2="285.863" y2="504.703" gradientUnits="userSpaceOnUse">
<stop offset="0.01"/>
<stop offset="0.13" stop-opacity="0.69"/>
<stop offset="1" stop-opacity="0"/>
</linearGradient>
<linearGradient id="paint1_linear" x1="84606.1" y1="-1876.27" x2="87772.5" y2="86061.8" gradientUnits="userSpaceOnUse">
<stop offset="0.01"/>
<stop offset="0.13" stop-opacity="0.69"/>
<stop offset="1" stop-opacity="0"/>
</linearGradient>
<linearGradient id="paint2_linear" x1="117352" y1="3835.48" x2="117502" y2="-37695.3" gradientUnits="userSpaceOnUse">
<stop offset="0.02" stop-color="white" stop-opacity="0"/>
<stop offset="1" stop-color="white"/>
</linearGradient>
<linearGradient id="paint3_linear" x1="35269" y1="16336.9" x2="36620" y2="-67769" gradientUnits="userSpaceOnUse">
<stop offset="0.02" stop-color="white" stop-opacity="0"/>
<stop offset="1" stop-color="white"/>
</linearGradient>
<linearGradient id="paint4_linear" x1="77335.5" y1="4948.44" x2="77467.8" y2="-22738.5" gradientUnits="userSpaceOnUse">
<stop offset="0.02" stop-color="white" stop-opacity="0"/>
<stop offset="1" stop-color="white"/>
</linearGradient>
<linearGradient id="paint5_linear" x1="77271.2" y1="8246.55" x2="77413.9" y2="-20505.2" gradientUnits="userSpaceOnUse">
<stop offset="0.02" stop-color="white" stop-opacity="0"/>
<stop offset="1" stop-color="white"/>
</linearGradient>
<linearGradient id="paint6_linear" x1="19650.2" y1="6367.1" x2="19651" y2="4835.65" gradientUnits="userSpaceOnUse">
<stop offset="0.01"/>
<stop offset="0.13" stop-opacity="0.69"/>
<stop offset="1" stop-opacity="0"/>
</linearGradient>
<linearGradient id="paint7_linear" x1="5661.75" y1="5167.99" x2="6360.12" y2="7950.27" gradientUnits="userSpaceOnUse">
<stop offset="0.01"/>
<stop offset="0.13" stop-opacity="0.69"/>
<stop offset="1" stop-opacity="0"/>
</linearGradient>
<linearGradient id="paint8_linear" x1="21440.6" y1="-540.431" x2="21440.6" y2="18207.8" gradientUnits="userSpaceOnUse">
<stop offset="0.01"/>
<stop offset="0.08" stop-opacity="0.69"/>
<stop offset="0.21" stop-opacity="0.32"/>
<stop offset="1" stop-opacity="0"/>
</linearGradient>
<clipPath id="clip0">
<rect width="555" height="442" fill="white"/>
</clipPath>
</defs>
</svg>
