<svg width="24" height="21" viewBox="0 0 24 21" fill="none" xmlns="http://www.w3.org/2000/svg">
<g clip-path="url(#clip0)">
<path d="M16.775 3.41304L20.5333 7.11265C20.6917 7.26851 20.6917 7.5228 20.5333 7.67866L11.4333 16.6365L7.56667 17.0589C7.05 17.1164 6.6125 16.6857 6.67083 16.1771L7.1 12.3708L16.2 3.41304C16.3583 3.25718 16.6167 3.25718 16.775 3.41304ZM23.525 2.47378L21.4917 0.472217C20.8583 -0.151221 19.8292 -0.151221 19.1917 0.472217L17.7167 1.92417C17.5583 2.08003 17.5583 2.33433 17.7167 2.49019L21.475 6.18979C21.6333 6.34565 21.8917 6.34565 22.05 6.18979L23.525 4.73784C24.1583 4.1103 24.1583 3.09722 23.525 2.47378V2.47378ZM16 14.2001V18.3755H2.66667V5.25054H12.2417C12.375 5.25054 12.5 5.19722 12.5958 5.10698L14.2625 3.46636C14.5792 3.15464 14.3542 2.62554 13.9083 2.62554H2C0.895833 2.62554 0 3.50737 0 4.59429V19.0318C0 20.1187 0.895833 21.0005 2 21.0005H16.6667C17.7708 21.0005 18.6667 20.1187 18.6667 19.0318V12.5595C18.6667 12.1207 18.1292 11.9033 17.8125 12.2109L16.1458 13.8515C16.0542 13.9458 16 14.0689 16 14.2001Z" fill="white"/>
</g>
<defs>
<clipPath id="clip0">
<rect width="24" height="21" fill="white"/>
</clipPath>
</defs>
</svg>
