<svg width="11" height="15" viewBox="0 0 11 15" fill="none" xmlns="http://www.w3.org/2000/svg">
<g clip-path="url(#clip0)">
<path d="M7.39545 7.5L10.2384 4.56826C10.5872 4.2085 10.5872 3.6252 10.2384 3.26514L9.60653 2.61357C9.25767 2.25381 8.69205 2.25381 8.3429 2.61357L5.5 5.54531L2.6571 2.61357C2.30824 2.25381 1.74261 2.25381 1.39347 2.61357L0.761648 3.26514C0.412784 3.6249 0.412784 4.2082 0.761648 4.56826L3.60455 7.5L0.761648 10.4317C0.412784 10.7915 0.412784 11.3748 0.761648 11.7349L1.39347 12.3864C1.74233 12.7462 2.30824 12.7462 2.6571 12.3864L5.5 9.45469L8.3429 12.3864C8.69176 12.7462 9.25767 12.7462 9.60653 12.3864L10.2384 11.7349C10.5872 11.3751 10.5872 10.7918 10.2384 10.4317L7.39545 7.5Z" fill="white"/>
</g>
<defs>
<clipPath id="clip0">
<rect width="10" height="15" fill="white" transform="translate(0.5)"/>
</clipPath>
</defs>
</svg>
