<svg width="423" height="382" viewBox="0 0 423 382" fill="none" xmlns="http://www.w3.org/2000/svg">
<g clip-path="url(#clip0)">
<path opacity="0.18" d="M417.418 243.808C414.766 257.144 349.585 326.1 290.821 359.456C279.167 366.061 267.772 371.27 257.163 374.358C218.156 385.687 163.067 382.249 125.869 377.819C109.394 375.858 96.4254 373.704 89.9073 372.532C86.963 372.013 85.3447 371.698 85.3447 371.698C68.4876 369.534 53.7658 358.779 43.1458 345.534C32.5259 332.288 25.4571 316.585 18.5008 301.074C12.0839 286.735 5.61076 272.25 2.54277 256.84C0.238975 245.229 -0.064453 233.325 -0.00826276 221.5C0.137832 193.814 2.9024 164.335 19.8157 142.466C38.9203 117.824 71.7242 108.175 93.7732 86.1814C106.191 73.7813 114.665 57.9995 126.195 44.7765C140.096 28.8368 158.156 17.023 177.193 7.84696C186.521 3.33786 196.568 -0.641428 206.895 0.0800287C210.145 0.347471 213.356 0.971193 216.47 1.94003C236.362 7.82442 250.915 24.6434 255.129 45.0245C260.108 69.1595 279.167 101.039 339.729 122.344C448.749 160.706 420.598 227.824 417.418 243.808Z" fill="#6EC7EB"/>
<path opacity="0.18" d="M383.892 83.069H323.937C317.55 83.069 312.373 88.2623 312.373 94.6686V164.424C312.373 170.831 317.55 176.024 323.937 176.024H383.892C390.278 176.024 395.456 170.831 395.456 164.424V94.6686C395.456 88.2623 390.278 83.069 383.892 83.069Z" fill="#6EC7EB"/>
<path opacity="0.18" d="M107.076 88.277H47.1211C40.7345 88.277 35.5572 93.4703 35.5572 99.8767V169.632C35.5572 176.039 40.7345 181.232 47.1211 181.232H107.076C113.463 181.232 118.64 176.039 118.64 169.632V99.8767C118.64 93.4703 113.463 88.277 107.076 88.277Z" fill="#6EC7EB"/>
<path d="M312.294 161.663C315.317 156.184 318.497 150.536 323.532 146.828C329.207 142.634 336.512 141.462 343.536 141.011C353.6 140.361 363.706 140.94 373.631 142.736C375.524 143.032 377.386 143.5 379.194 144.134C383.611 145.791 387.218 149.071 390.432 152.577C391.665 153.835 392.669 155.3 393.399 156.906C394.18 159.393 394.319 162.038 393.804 164.594C393.466 167.231 392.972 169.982 391.365 172.101C388.746 175.596 383.937 176.486 379.587 176.678C371.047 177.05 362.506 175.72 353.965 176.159C350.784 176.317 347.604 176.723 344.424 176.926C337.979 177.174 331.526 176.993 325.105 176.385C322.296 176.182 319.34 175.923 317.003 174.333C315.85 173.462 314.881 172.37 314.154 171.12C313.427 169.869 312.955 168.486 312.766 167.051C312.397 164.183 312.416 161.279 312.822 158.416" fill="#6EC7EB"/>
<path d="M347.739 132.105C347.504 134.09 346.873 136.007 345.884 137.742C345.03 139.196 343.884 140.571 343.805 142.398C343.816 143.482 344.049 144.553 344.491 145.543C345.563 148.872 347.244 151.972 349.447 154.685C350.784 156.291 352.561 157.468 354.559 158.069C356.557 158.671 358.688 158.67 360.685 158.067C361.695 157.753 362.621 157.213 363.393 156.488C365.877 154.076 364.079 149.296 362.989 145.396C361.573 140.335 363.809 132.883 362.989 129.783C362.722 128.42 362.08 127.158 361.135 126.142C360.594 125.685 359.958 125.355 359.273 125.178C358.588 125 357.873 124.979 357.179 125.116C352.807 125.669 348.75 129.377 346.84 134.563" fill="url(#paint0_linear)"/>
<path d="M357.235 142.6C358.876 142.848 360.809 142.544 361.73 141.158C362.184 140.314 362.408 139.365 362.382 138.407L362.708 132.94C361.698 133.566 360.522 133.869 359.336 133.808C357.415 133.875 355.482 133.898 353.56 133.875C352.29 133.875 349.672 133.244 348.582 134.112C346.772 135.566 351.526 139.918 352.684 140.74C354.039 141.702 355.596 142.338 357.235 142.6Z" fill="url(#paint1_linear)"/>
<path d="M339.681 121.881C340.081 123.833 340.723 125.726 341.592 127.517C342.517 129.16 343.65 130.676 344.963 132.027C346.316 133.613 347.956 134.928 349.795 135.904C352.113 136.838 354.607 137.246 357.1 137.099C358.786 137.155 360.47 136.923 362.079 136.412C365.562 135.138 367.788 131.711 369.327 128.318C371.414 123.871 372.562 119.039 372.699 114.125C372.817 109.198 371.556 104.335 369.057 100.091C367.79 97.8542 365.961 95.9889 363.753 94.6799C361.126 93.3987 358.22 92.8017 355.302 92.9439C353.484 92.8897 351.667 93.0985 349.908 93.5639C347.14 94.4955 344.651 96.1123 342.671 98.2647C341.458 99.4309 340.441 100.786 339.659 102.278C336.58 108.331 338.22 115.602 339.681 121.881Z" fill="url(#paint2_linear)"/>
<path d="M340.726 112.649C340.863 115.914 340.533 119.183 339.749 122.355C337.983 120.058 336.678 117.439 335.905 114.644C335.33 113.145 334.9 111.593 334.624 110.011C334.463 108.638 334.414 107.255 334.478 105.874C334.46 104.884 334.562 103.896 334.781 102.932C335.018 101.96 335.602 101.11 336.422 100.542C336.75 100.389 337.05 100.184 337.31 99.9331C337.523 99.593 337.65 99.2061 337.681 98.8058C338.04 96.1792 339.4 93.5076 341.816 92.4367C343.121 91.7669 344.482 91.2161 345.885 90.7909C351.379 89.3871 357.12 89.2522 362.674 90.3963C365.641 91.0163 368.687 92.0985 370.642 94.4207C372.063 96.3103 373 98.5203 373.373 100.857C373.513 101.223 373.569 101.616 373.535 102.007C373.502 102.397 373.381 102.775 373.182 103.112C372.93 103.338 372.701 103.587 372.496 103.856C372.322 104.263 372.298 104.718 372.429 105.141C373.238 109.876 372.979 115.084 370.181 118.995C370.152 114.91 369.817 110.833 369.181 106.798C369.14 106.241 368.963 105.703 368.664 105.231C367.832 104.104 366.124 104.307 364.731 104.521C359.564 105.337 354.273 104.583 349.537 102.357C348.696 101.876 347.78 101.541 346.829 101.365C346.353 101.286 345.865 101.352 345.427 101.553C344.989 101.753 344.62 102.08 344.367 102.492C344.177 103.176 344.038 103.873 343.952 104.577C343.522 105.49 342.923 106.312 342.187 107.001C341.09 108.669 340.576 110.656 340.726 112.649Z" fill="#3E3E54"/>
<path d="M383.139 152.475C382.955 151.184 383.286 149.872 384.06 148.823C384.903 148.164 385.948 147.822 387.016 147.854C389.153 147.715 391.298 147.733 393.433 147.91C393.79 147.912 394.141 148.013 394.444 148.203C394.784 148.554 394.977 149.022 394.984 149.511C395.455 153.037 395.613 156.598 395.456 160.152C395.48 163.754 394.623 167.308 392.961 170.501C391.825 172.396 390.243 173.983 388.353 175.122C386.926 176.002 383.858 177.602 382.15 176.813C380.149 175.9 381.397 172.733 381.666 171.177C382.161 168.284 382.536 165.368 382.79 162.429C383.06 159.16 383.172 155.778 383.139 152.475Z" fill="#6EC7EB"/>
<path d="M386.24 141.033C385.494 139.541 384.528 138.169 383.375 136.964C382.258 135.631 381.251 134.21 380.363 132.714C380.163 132.471 380.023 132.184 379.954 131.877C379.886 131.569 379.891 131.25 379.97 130.944C380.329 130.144 381.509 130.167 382.217 130.572C383.341 131.204 384.465 132.466 385.723 132.038C386.982 131.609 387.083 130.043 386.903 128.803C386.308 124.654 384.015 120.416 385.499 116.493C387.141 118.644 388.458 121.025 389.41 123.561C389.689 123.45 389.928 123.257 390.096 123.008C390.265 122.758 390.354 122.464 390.354 122.163C390.328 121.561 390.218 120.965 390.028 120.393C389.601 118.603 389.703 116.727 390.32 114.993C391.548 115.923 392.433 117.236 392.837 118.725C395.579 126.277 395.163 134.563 394.725 142.589C394.687 144.141 394.495 145.686 394.152 147.2C393.947 148.339 393.365 149.376 392.5 150.142C391.163 151.145 387.454 151.607 386.769 149.691C386.353 148.564 386.881 146.535 386.892 145.306C386.969 143.852 386.747 142.398 386.24 141.033Z" fill="url(#paint3_linear)"/>
<path d="M88.3985 101.669C86.1511 100.329 83.7311 99.3052 81.2061 98.6254C77.9722 97.9416 74.6274 97.9842 71.4118 98.7502C68.1962 99.5161 65.1894 100.986 62.6071 103.056C57.4591 107.27 53.8504 113.078 52.3468 119.57C50.6836 126.221 50.9196 133.289 48.8855 139.861C47.5369 144.179 45.2556 148.135 43.7272 152.385C42.1989 156.635 41.4796 161.482 43.3227 165.608C45.1657 169.734 49.2114 172.372 53.5043 173.657C57.7973 174.942 62.3262 174.874 66.7877 174.841L77.6437 174.75C84.5326 174.75 92.2531 174.333 97.0181 169.396C100.929 165.394 101.895 159.307 101.513 153.715C101.131 148.124 99.7264 142.612 99.6478 137.009C99.5129 123.674 101.772 109.199 88.3985 101.669Z" fill="#3E3E54"/>
<path d="M45.9523 162.362C49.2451 159.431 53.9201 158.687 58.3142 158.54C65.2005 158.497 72.0765 159.082 78.8573 160.287C81.5569 160.62 84.2252 161.17 86.8363 161.933C95.602 164.729 102.232 171.808 108.436 178.617C108.851 178.995 109.134 179.497 109.245 180.048C109.335 181.379 107.582 181.897 106.256 181.942C89.747 182.585 73.1934 180.815 56.6959 181.717C51.6837 181.987 41.8954 183.16 39.2545 177.309C37.2541 172.856 42.8731 165.112 45.9523 162.362Z" fill="#6EC7EB"/>
<path d="M74.0587 125.962C72.5712 126.694 70.9963 127.232 69.3724 127.563C66.6753 128.014 63.9107 127.382 61.1799 127.563C61.0161 127.559 60.8552 127.606 60.7191 127.698C60.5972 127.838 60.5329 128.019 60.5393 128.205C59.9179 133.064 59.7748 137.973 60.1123 142.86C60.2715 144.919 60.769 146.938 61.5845 148.834C62.8123 151.279 64.7459 153.297 67.1332 154.624C69.5206 155.951 72.2511 156.526 74.969 156.274C77.6785 155.942 80.254 154.903 82.4387 153.262C84.6234 151.62 86.3412 149.433 87.4207 146.918C88.528 144.031 89.1802 140.988 89.3537 137.9C89.7358 133.966 89.9605 130.009 90.0055 126.086C89.1697 125.558 88.463 124.848 87.9378 124.009C87.4125 123.17 87.0822 122.223 86.9712 121.239C86.7768 119.575 86.8299 117.892 87.1285 116.245C83.7571 120.833 79.3069 123.628 74.0587 125.962Z" fill="url(#paint4_linear)"/>
<path d="M77.2278 164.796C76.9552 165.759 76.4896 166.655 75.8597 167.43C75.2297 168.205 74.4486 168.844 73.5642 169.306C72.5391 169.695 71.4415 169.854 70.3484 169.772C69.2554 169.691 68.1934 169.37 67.2372 168.832C66.0935 168.325 65.1381 167.469 64.5064 166.386C64.1014 165.494 63.8943 164.525 63.8995 163.545C63.8091 161.703 63.9336 159.857 64.2704 158.044C64.7649 155.327 65.8325 152.554 68.0351 150.886C70.4738 149.037 75.9018 148.699 77.7223 151.698C79.5429 154.696 78.2393 161.82 77.2278 164.796Z" fill="url(#paint5_linear)"/>
<path opacity="0.18" d="M267.387 31.6427H207.432C201.045 31.6427 195.868 36.8361 195.868 43.2424V112.998C195.868 119.405 201.045 124.598 207.432 124.598H267.387C273.773 124.598 278.951 119.405 278.951 112.998V43.2424C278.951 36.8361 273.773 31.6427 267.387 31.6427Z" fill="#6EC7EB"/>
<path d="M206.263 105.727C209.556 102.796 214.231 102.052 218.625 101.917C225.083 101.777 231.54 102.283 237.898 103.428C244.034 104.476 250.406 104.363 256.643 104.622C258.891 104.713 261.397 104.916 262.97 106.539C263.725 107.426 264.302 108.452 264.667 109.56L266.252 113.517C267.376 116.312 271.556 123.121 268.005 125.049C266.117 126.075 262.161 125.409 260.048 125.421C257.228 125.421 254.429 125.421 251.575 125.342C240.056 125.094 228.526 124.406 217.007 125.049C211.994 125.331 202.206 126.492 199.565 120.652C197.565 116.222 203.184 108.433 206.263 105.727Z" fill="#6EC7EB"/>
<path d="M239.561 41.3146C241.232 40.2593 243.15 39.6641 245.123 39.5889C247.096 39.5137 249.054 39.9612 250.799 40.8863C252.009 41.501 253.051 42.4026 253.834 43.5128C254.882 45.3382 255.468 47.3934 255.542 49.4987C256.304 56.6574 256.443 63.8692 255.958 71.0522C255.519 77.6129 254.575 84.3315 256.295 90.6781C251.937 87.8215 248.353 83.925 245.866 79.3377C243.392 74.7652 241.385 69.9536 239.876 64.9762C238.359 60.3769 237.213 55.6649 235.212 51.2685C233.56 47.6499 236.538 43.2536 239.561 41.3146Z" fill="#3E3E54"/>
<path d="M244.315 107.035C244.225 108.023 243.935 108.982 243.464 109.854C242.992 110.726 242.349 111.493 241.573 112.108C240.642 112.691 239.595 113.061 238.505 113.191C237.415 113.322 236.31 113.21 235.268 112.863C234.049 112.588 232.948 111.933 232.122 110.992C231.567 110.189 231.184 109.279 230.998 108.32C230.563 106.53 230.333 104.695 230.312 102.853C230.313 100.091 230.807 97.2163 232.639 95.1083C234.695 92.8537 239.921 91.4446 242.303 93.981C244.686 96.5174 244.731 103.924 244.315 107.035Z" fill="url(#paint6_linear)"/>
<path d="M232.279 102.571C233.16 103.943 234.511 104.946 236.078 105.389C237.184 105.631 238.318 105.726 239.449 105.671C239.828 105.681 240.206 105.64 240.573 105.547C240.869 105.438 241.146 105.282 241.393 105.085C242.423 104.313 243.228 103.279 243.724 102.089C244.22 100.9 244.389 99.5984 244.214 98.321C244.214 98.073 239.618 97.7574 239.157 97.7123C237.443 97.5415 235.721 97.4663 233.999 97.4868C233.01 97.4868 231.56 97.3854 231.2 98.5577C230.841 99.7301 231.639 101.556 232.279 102.571Z" fill="url(#paint7_linear)"/>
<path d="M221.345 71.0634C221.271 75.6029 221.678 80.1374 222.558 84.5907C223.456 89.0713 225.667 93.181 228.908 96.3933C231.904 99.2083 235.872 100.748 239.977 100.688C242.01 100.641 244.007 100.136 245.82 99.2111C247.633 98.2863 249.215 96.9651 250.451 95.3449C252.541 92.5267 253.35 88.9758 253.822 85.5038C254.689 79.4793 254.776 73.3677 254.081 67.3208C253.968 65.6175 253.55 63.9485 252.845 62.3947C251.373 59.9529 249.094 58.106 246.405 57.1754C242.152 55.5731 237.529 55.2326 233.088 56.1946C223.075 58.0885 222.154 65.2917 221.513 65.675C221.312 67.4637 221.256 69.2657 221.345 71.0634Z" fill="url(#paint8_linear)"/>
<path d="M216.804 62.5074C216.945 60.0047 217.662 57.5687 218.898 55.3901C220.134 53.2115 221.856 51.3494 223.929 49.9496C228.076 47.2892 233.234 46.8947 238.145 46.8157C243.315 46.7256 248.765 46.9623 253.159 49.7016C255.528 51.2847 257.461 53.4403 258.781 55.9698C260.101 58.4993 260.765 61.3213 260.711 64.1758C260.673 66.7558 260.118 69.3017 259.079 71.6623C258.041 74.0229 256.54 76.15 254.665 77.9173C253.766 76.6435 253.541 75.0315 252.912 73.6111C252.252 72.25 251.413 70.9838 250.417 69.846L246.091 64.4689C245.932 64.2474 245.738 64.0533 245.518 63.894C245.041 63.6806 244.508 63.6292 244 63.7474C239.28 64.3091 234.526 64.5501 229.773 64.4689C227.93 64.4689 225.873 64.4689 224.525 65.6863C222.817 67.3096 223.615 74.3664 220.412 73.8929C218.838 73.6675 218.029 70.4434 217.636 69.1696C216.955 67.0185 216.673 64.7605 216.804 62.5074Z" fill="#3E3E54"/>
<path d="M230.74 84.0046C233.309 84.0046 235.392 81.9152 235.392 79.3377C235.392 76.7602 233.309 74.6708 230.74 74.6708C228.17 74.6708 226.087 76.7602 226.087 79.3377C226.087 81.9152 228.17 84.0046 230.74 84.0046Z" stroke="white" stroke-width="0.84" stroke-miterlimit="10"/>
<path d="M244.81 84.0046C247.379 84.0046 249.462 81.9152 249.462 79.3377C249.462 76.7602 247.379 74.6708 244.81 74.6708C242.24 74.6708 240.157 76.7602 240.157 79.3377C240.157 81.9152 242.24 84.0046 244.81 84.0046Z" stroke="white" stroke-width="0.84" stroke-miterlimit="10"/>
<path d="M194.148 200.058H192.519V164.785H243.652V126.334H245.282V166.42H194.148V200.058Z" fill="#6EC7EB"/>
<path d="M210.534 197.656H208.893V190.025H343.603V176.971H345.233V191.671H210.534V197.656Z" fill="#6EC7EB"/>
<path d="M178.966 199.663H177.336V193.666H73.4856V182.032H75.1151V192.031H178.966V199.663Z" fill="#6EC7EB"/>
<path d="M155.006 198.062H233.83C235.44 198.056 237.035 198.369 238.525 198.983C240.014 199.596 241.368 200.499 242.509 201.638C243.65 202.777 244.556 204.131 245.174 205.622C245.793 207.113 246.112 208.712 246.113 210.327V324.047C246.113 327.001 244.943 329.833 242.861 331.922C240.779 334.011 237.955 335.184 235.01 335.184H154.635C151.551 335.184 148.591 333.957 146.407 331.772C144.222 329.587 142.991 326.623 142.982 323.528V210.124C142.982 208.54 143.293 206.972 143.897 205.508C144.501 204.045 145.387 202.715 146.504 201.595C147.62 200.475 148.946 199.587 150.405 198.981C151.864 198.374 153.427 198.062 155.006 198.062Z" fill="#6EC7EB"/>
<path d="M155.006 198.062H233.83C235.44 198.056 237.035 198.369 238.525 198.983C240.014 199.596 241.368 200.499 242.509 201.638C243.65 202.777 244.556 204.131 245.174 205.622C245.793 207.113 246.112 208.712 246.113 210.327V324.047C246.113 327.001 244.943 329.833 242.861 331.922C240.779 334.011 237.955 335.184 235.01 335.184H154.635C151.551 335.184 148.591 333.957 146.407 331.772C144.222 329.587 142.991 326.623 142.982 323.528V210.124C142.982 208.54 143.293 206.972 143.897 205.508C144.501 204.045 145.387 202.715 146.504 201.595C147.62 200.475 148.946 199.587 150.405 198.981C151.864 198.374 153.427 198.062 155.006 198.062Z" fill="url(#paint9_linear)"/>
<path d="M241.27 208.873H147.803V318.625H241.27V208.873Z" fill="white"/>
<path d="M155.175 292.257L165.739 286.215C169.43 283.93 173.352 282.041 177.437 280.579C183.607 278.606 190.215 278.629 196.677 278.843C206.881 279.181 217.411 280.072 226.424 284.885C235.437 289.699 242.573 299.371 241.472 309.55C241.121 312.119 240.473 314.639 239.539 317.058C239.383 317.672 239.041 318.223 238.561 318.636C238.036 318.922 237.437 319.044 236.842 318.985C213.624 319.132 190.406 320.406 167.166 319.211C161.052 318.895 154.961 319.74 148.837 320.011C148.039 320.011 147.983 302.459 148.084 301.084C148.5 296.44 151.219 294.523 155.175 292.257Z" fill="#6EC7EB"/>
<path d="M229.975 278.832C231.158 282.176 231.914 285.657 232.223 289.192C232.717 293.182 233.178 297.184 233.347 301.208C233.594 306.585 233.347 312.008 234.302 317.317C235.257 322.627 237.471 327.936 241.719 331.228C241.968 331.48 242.273 331.669 242.609 331.781C242.945 331.893 243.302 331.923 243.652 331.87C244.382 331.645 244.708 330.799 244.911 330.055C247.439 320.462 244.686 310.396 243.36 300.566C242.947 296.237 242.314 291.933 241.461 287.67C240.756 284.731 239.719 281.883 238.37 279.181C237.347 276.964 235.922 274.957 234.167 273.263C233.122 272.316 228.975 269.363 227.66 270.941C226.345 272.519 229.38 277.344 229.975 278.832Z" fill="url(#paint10_linear)"/>
<path d="M159.153 296.271C158.844 298.912 158.709 301.57 158.749 304.229V316.629C158.835 318.901 158.627 321.175 158.131 323.393C157.516 325.414 156.503 327.29 155.151 328.911C153.8 330.532 152.138 331.864 150.264 332.828C149.798 333.116 149.27 333.287 148.724 333.324C147.387 333.324 146.477 331.915 146.027 330.664C143.218 323.663 142.903 315.942 143.06 308.411C143.218 300.881 143.824 293.295 142.712 285.866C142.457 284.858 142.492 283.799 142.813 282.811C143.381 281.856 144.24 281.109 145.263 280.68L156.872 274.48C159.198 273.229 164.514 264.977 166.11 268.72C167.312 271.516 163.334 282.044 162.39 284.693C160.927 288.434 159.843 292.313 159.153 296.271Z" fill="url(#paint11_linear)"/>
<path d="M138.307 338.713C144.842 334.05 149.78 327.475 152.444 319.887C157.04 306.743 154.546 291.39 161.569 279.373C163.255 276.487 165.491 273.827 166.289 270.58C167.087 267.334 165.795 263.185 162.558 262.362C159.322 261.539 156.265 264.448 154.085 267.097L142.925 280.624C142.791 279.497 142.791 268.686 142.925 265.09C131.451 265.654 121.36 274.988 118.516 286.159C117.585 290.3 117.163 294.54 117.258 298.784C117.258 303.181 117.393 307.589 117.651 311.985C117.893 314.82 117.893 317.672 117.651 320.507C116.718 328.5 111.672 335.387 109.548 343.143C109.436 343.46 109.436 343.806 109.548 344.124C109.709 344.399 109.953 344.617 110.245 344.744C113.538 346.502 117.381 346.84 121.112 346.998C124.843 347.156 128.867 347.291 132.755 347.257C133.497 347.313 134.242 347.185 134.924 346.885C136.273 346.164 136.576 344.383 136.722 342.85" fill="url(#paint12_linear)"/>
<path d="M242.393 327.045C234.875 312.808 238.966 294.591 231.605 280.275C229.728 276.634 227.11 273.083 227.11 269.002C227.038 268.52 227.094 268.028 227.272 267.574C227.451 267.121 227.745 266.723 228.126 266.42C228.506 266.117 228.96 265.92 229.44 265.849C229.921 265.778 230.412 265.835 230.863 266.015C237.055 267.007 240.427 273.906 246.023 276.746L245.607 266.082C252.161 266.947 258.279 269.848 263.105 274.379C265.312 276.36 267.081 278.783 268.297 281.492C269.407 284.418 270.004 287.515 270.061 290.646C270.477 298.097 269.87 305.593 270.387 313.033C270.904 320.473 272.635 328.116 277.254 334.001C279.737 337.191 283.176 340.347 282.873 344.372C282.88 344.681 282.78 344.983 282.592 345.228C282.435 345.355 282.256 345.449 282.063 345.505C281.87 345.561 281.668 345.578 281.468 345.555C277.048 345.6 272.631 345.567 268.218 345.454C264.555 345.352 257.666 346.356 254.351 344.823C251.979 343.695 250.563 339.186 248.934 336.841C246.568 333.705 244.384 330.434 242.393 327.045Z" fill="url(#paint13_linear)"/>
<path d="M185.192 286.542C185.786 289.032 186.9 291.367 188.459 293.393C190.019 295.42 191.988 297.092 194.238 298.3C196.98 299.72 200.127 300.318 202.925 299.066C206.982 297.251 209.455 291.874 209.994 286.531C210.534 281.188 209.5 275.822 208.466 270.603C208.32 269.087 207.756 267.643 206.836 266.432C206.168 265.82 205.343 265.406 204.454 265.237C199.689 263.974 189.9 262.723 186.08 267.694C183.169 271.448 184.124 282.123 185.192 286.542Z" fill="url(#paint14_linear)"/>
<path d="M174.909 235.556V267.457C174.909 267.457 175.122 281.627 197.643 283.408C220.165 285.19 217.962 256.602 217.962 256.602L218.411 232.929C218.411 232.929 180.427 227.36 174.909 235.556Z" fill="url(#paint15_linear)"/>
<path d="M178.224 242.748C177.909 243.165 177.291 243.165 176.797 243.334C175.415 243.796 174.92 245.476 174.673 246.919C174.074 250.495 173.698 254.106 173.549 257.729L169.717 247.414C168.757 245.173 168.124 242.804 167.84 240.38C167.698 239.165 167.815 237.932 168.185 236.766C168.556 235.6 169.17 234.526 169.987 233.617C170.489 233.195 170.934 232.71 171.313 232.174C171.628 231.462 171.807 230.697 171.841 229.919C172.389 227.14 173.942 224.663 176.201 222.964C178.457 221.294 180.986 220.031 183.675 219.233C193.565 215.835 204.292 215.776 214.22 219.064C217.49 220.191 220.828 221.961 222.356 225.072C223.091 226.749 223.474 228.56 223.48 230.393C223.793 237.943 221.999 245.431 218.299 252.014C218.657 247.095 218.12 242.152 216.714 237.427C217.288 239.332 195.845 240.008 193.969 239.783C190.125 239.343 186.597 237.9 182.843 237.269C181.449 237.032 180.595 236.886 179.618 237.99C178.303 239.332 179.168 241.541 178.224 242.748Z" fill="#B7A451"/>
<path d="M183.573 265.71C184.507 264.412 185.714 263.335 187.108 262.556C188.503 261.777 190.05 261.314 191.642 261.201C194.819 260.993 198.009 261.267 201.105 262.013C203.521 262.475 206.139 263.05 207.679 264.966C208.803 266.364 209.151 268.235 210.084 269.768C211.017 271.301 213.107 272.485 214.579 271.437C214.826 274.131 212.736 276.374 211.084 278.505C209.432 280.635 208.084 283.07 205.78 284.412C204.112 285.262 202.278 285.735 200.408 285.798C196.134 286.282 191.807 285.765 187.765 284.288C185.866 283.534 184.11 282.458 182.573 281.109C181.539 280.196 178.719 277.603 178.809 276.059C178.809 275.393 179.809 274.695 180.202 274.075C180.712 273.192 181.119 272.254 181.416 271.279C181.906 269.342 182.631 267.471 183.573 265.71Z" fill="#B7A451"/>
<path d="M190.092 268.641C190.773 267.992 191.68 267.636 192.62 267.649C195.326 267.356 198.052 267.3 200.768 267.48C201.688 267.482 202.597 267.686 203.431 268.077C205.42 269.205 205.802 271.809 205.96 274.063C206.152 275.211 205.992 276.391 205.499 277.445C205.084 277.988 204.563 278.44 203.968 278.773C203.373 279.107 202.716 279.315 202.038 279.384C198.385 280.117 193.485 279.959 190.193 277.964C189.659 277.66 189.233 277.198 188.973 276.64C188.713 276.083 188.633 275.458 188.743 274.852C188.867 273.195 189.024 269.971 190.092 268.641Z" fill="url(#paint16_linear)"/>
<path d="M126.383 375.676C126.226 376.375 126.068 377.108 125.855 377.818C109.38 375.856 96.4112 373.703 89.8931 372.531C90.0195 370.265 90.5564 368.042 91.4777 365.97C93.9368 359.915 96.8054 354.036 100.064 348.373C100.785 346.798 101.959 345.475 103.435 344.574C104.989 344.022 106.665 343.909 108.279 344.247C114.785 345.025 131.159 344.777 134.194 352.364C136.576 358.192 127.732 369.386 126.383 375.676Z" fill="#6EC7EB"/>
<path d="M291.785 357.561C291.633 358.262 291.3 358.912 290.818 359.443C279.164 366.049 267.769 371.257 257.16 374.346C256.737 373.854 256.44 373.265 256.295 372.632C253.905 365.034 251.515 357.429 249.125 349.816C248.327 347.246 247.585 344.18 249.125 342.027C250.665 339.874 254.07 339.569 256.89 339.637C263.982 339.637 275.636 337.946 282.277 340.347C288.301 342.534 289.099 349.241 291.268 355.002C291.658 355.795 291.836 356.677 291.785 357.561Z" fill="#6EC7EB"/>
</g>
<defs>
<linearGradient id="paint0_linear" x1="343.794" y1="141.732" x2="364.63" y2="141.732" gradientUnits="userSpaceOnUse">
<stop stop-color="#E5C5D5"/>
<stop offset="0.42" stop-color="#EAD4D1"/>
<stop offset="1" stop-color="#F0E9CB"/>
</linearGradient>
<linearGradient id="paint1_linear" x1="355.381" y1="129.919" x2="355.449" y2="158.292" gradientUnits="userSpaceOnUse">
<stop stop-opacity="0"/>
<stop offset="0.99"/>
</linearGradient>
<linearGradient id="paint2_linear" x1="12808.3" y1="5256.1" x2="13883.7" y2="5256.1" gradientUnits="userSpaceOnUse">
<stop stop-color="#E5C5D5"/>
<stop offset="0.42" stop-color="#EAD4D1"/>
<stop offset="1" stop-color="#F0E9CB"/>
</linearGradient>
<linearGradient id="paint3_linear" x1="6370.72" y1="4898.17" x2="6575.68" y2="4898.17" gradientUnits="userSpaceOnUse">
<stop stop-color="#E5C5D5"/>
<stop offset="0.42" stop-color="#EAD4D1"/>
<stop offset="1" stop-color="#F0E9CB"/>
</linearGradient>
<linearGradient id="paint4_linear" x1="3399.02" y1="5554.1" x2="4204.63" y2="5554.1" gradientUnits="userSpaceOnUse">
<stop stop-color="#E5C5D5"/>
<stop offset="0.42" stop-color="#EAD4D1"/>
<stop offset="1" stop-color="#F0E9CB"/>
</linearGradient>
<linearGradient id="paint5_linear" x1="1755.19" y1="3328.28" x2="1948.88" y2="3328.28" gradientUnits="userSpaceOnUse">
<stop stop-color="#E5C5D5"/>
<stop offset="0.42" stop-color="#EAD4D1"/>
<stop offset="1" stop-color="#F0E9CB"/>
</linearGradient>
<linearGradient id="paint6_linear" x1="230.224" y1="104.47" x2="244.688" y2="101.657" gradientUnits="userSpaceOnUse">
<stop stop-color="#867580"/>
<stop offset="0.57" stop-color="#9B8F8E"/>
</linearGradient>
<linearGradient id="paint7_linear" x1="3775.39" y1="870.981" x2="3778.4" y2="1118.18" gradientUnits="userSpaceOnUse">
<stop stop-opacity="0"/>
<stop offset="0.99"/>
</linearGradient>
<linearGradient id="paint8_linear" x1="8686.75" y1="3846.3" x2="9670.35" y2="3846.3" gradientUnits="userSpaceOnUse">
<stop stop-color="#867580"/>
<stop offset="0.57" stop-color="#9B8F8E"/>
</linearGradient>
<linearGradient id="paint9_linear" x1="193.845" y1="357.561" x2="196.514" y2="2.67175" gradientUnits="userSpaceOnUse">
<stop offset="0.02" stop-color="white" stop-opacity="0"/>
<stop offset="0.32" stop-color="white" stop-opacity="0.39"/>
<stop offset="0.68" stop-color="white" stop-opacity="0.68"/>
<stop offset="1" stop-color="white"/>
</linearGradient>
<linearGradient id="paint10_linear" x1="5109.66" y1="18059.2" x2="6198.01" y2="17585.1" gradientUnits="userSpaceOnUse">
<stop stop-opacity="0"/>
<stop offset="0.99"/>
</linearGradient>
<linearGradient id="paint11_linear" x1="5214.14" y1="19291" x2="3942.2" y2="19039.9" gradientUnits="userSpaceOnUse">
<stop stop-opacity="0"/>
<stop offset="0.99"/>
</linearGradient>
<linearGradient id="paint12_linear" x1="8960.34" y1="24515.9" x2="11858.1" y2="24515.9" gradientUnits="userSpaceOnUse">
<stop stop-color="#E5C5D5"/>
<stop offset="0.42" stop-color="#EAD4D1"/>
<stop offset="1" stop-color="#F0E9CB"/>
</linearGradient>
<linearGradient id="paint13_linear" x1="14727.7" y1="23112.5" x2="17498.7" y2="23112.5" gradientUnits="userSpaceOnUse">
<stop stop-color="#E5C5D5"/>
<stop offset="0.42" stop-color="#EAD4D1"/>
<stop offset="1" stop-color="#F0E9CB"/>
</linearGradient>
<linearGradient id="paint14_linear" x1="5945.37" y1="9704.86" x2="6546.71" y2="9704.86" gradientUnits="userSpaceOnUse">
<stop stop-color="#E5C5D5"/>
<stop offset="0.42" stop-color="#EAD4D1"/>
<stop offset="1" stop-color="#F0E9CB"/>
</linearGradient>
<linearGradient id="paint15_linear" x1="9457.47" y1="12968.2" x2="11141.4" y2="12968.2" gradientUnits="userSpaceOnUse">
<stop stop-color="#E5C5D5"/>
<stop offset="0.42" stop-color="#EAD4D1"/>
<stop offset="1" stop-color="#F0E9CB"/>
</linearGradient>
<linearGradient id="paint16_linear" x1="4102.88" y1="3462.58" x2="4369.46" y2="3462.58" gradientUnits="userSpaceOnUse">
<stop stop-color="#E5C5D5"/>
<stop offset="0.42" stop-color="#EAD4D1"/>
<stop offset="1" stop-color="#F0E9CB"/>
</linearGradient>
<clipPath id="clip0">
<rect width="423" height="382" fill="white"/>
</clipPath>
</defs>
</svg>
