<svg width="12" height="12" viewBox="0 0 12 12" fill="none" xmlns="http://www.w3.org/2000/svg">
<path d="M10.875 6H9V4.5C9 3.67266 9.67266 3 10.5 3H10.6875C10.9992 3 11.25 2.74922 11.25 2.4375V1.3125C11.25 1.00078 10.9992 0.75 10.6875 0.75H10.5C8.42812 0.75 6.75 2.42812 6.75 4.5V10.125C6.75 10.7461 7.25391 11.25 7.875 11.25H10.875C11.4961 11.25 12 10.7461 12 10.125V7.125C12 6.50391 11.4961 6 10.875 6ZM4.125 6H2.25V4.5C2.25 3.67266 2.92266 3 3.75 3H3.9375C4.24922 3 4.5 2.74922 4.5 2.4375V1.3125C4.5 1.00078 4.24922 0.75 3.9375 0.75H3.75C1.67812 0.75 0 2.42812 0 4.5V10.125C0 10.7461 0.503906 11.25 1.125 11.25H4.125C4.74609 11.25 5.25 10.7461 5.25 10.125V7.125C5.25 6.50391 4.74609 6 4.125 6Z" fill="black" fill-opacity="0.6"/>
</svg>
