<svg width="8" height="12" viewBox="0 0 8 12" fill="none" xmlns="http://www.w3.org/2000/svg">
<g clip-path="url(#clip0)">
<path d="M5.51636 6L7.79068 3.65461C8.06977 3.3668 8.06977 2.90016 7.79068 2.61211L7.28523 2.09086C7.00614 1.80305 6.55364 1.80305 6.27432 2.09086L4 4.43625L1.72568 2.09086C1.44659 1.80305 0.994091 1.80305 0.714773 2.09086L0.209318 2.61211C-0.0697727 2.89992 -0.0697727 3.36656 0.209318 3.65461L2.48364 6L0.209318 8.34539C-0.0697727 8.6332 -0.0697727 9.09984 0.209318 9.38789L0.714773 9.90914C0.993864 10.197 1.44659 10.197 1.72568 9.90914L4 7.56375L6.27432 9.90914C6.55341 10.197 7.00614 10.197 7.28523 9.90914L7.79068 9.38789C8.06977 9.10008 8.06977 8.63344 7.79068 8.34539L5.51636 6Z" fill="#6EC7EB"/>
</g>
<defs>
<clipPath id="clip0">
<rect width="8" height="12" fill="white"/>
</clipPath>
</defs>
</svg>
