<svg width="17" height="20" viewBox="0 0 17 20" fill="none" xmlns="http://www.w3.org/2000/svg">
<g clip-path="url(#clip0)">
<path d="M16.3929 1.24976H11.8393L11.4826 0.519294C11.407 0.363128 11.2906 0.231764 11.1465 0.139981C11.0024 0.048198 10.8362 -0.00036242 10.6667 -0.000237292H6.32946C6.16037 -0.000906453 5.99451 0.0474729 5.85089 0.139358C5.70726 0.231243 5.59169 0.362917 5.51741 0.519294L5.16071 1.24976H0.607143C0.446119 1.24976 0.291689 1.31561 0.177828 1.43282C0.0639667 1.55003 0 1.709 0 1.87476L0 3.12476C0 3.29052 0.0639667 3.44949 0.177828 3.5667C0.291689 3.68391 0.446119 3.74976 0.607143 3.74976H16.3929C16.5539 3.74976 16.7083 3.68391 16.8222 3.5667C16.936 3.44949 17 3.29052 17 3.12476V1.87476C17 1.709 16.936 1.55003 16.8222 1.43282C16.7083 1.31561 16.5539 1.24976 16.3929 1.24976V1.24976ZM2.01875 18.2419C2.04771 18.718 2.2518 19.1647 2.58949 19.4913C2.92717 19.8179 3.37306 19.9997 3.83638 19.9998H13.1636C13.6269 19.9997 14.0728 19.8179 14.4105 19.4913C14.7482 19.1647 14.9523 18.718 14.9812 18.2419L15.7857 4.99976H1.21429L2.01875 18.2419Z" fill="white"/>
</g>
<defs>
<clipPath id="clip0">
<rect width="17" height="20" fill="white"/>
</clipPath>
</defs>
</svg>
