<svg width="452" height="341" viewBox="0 0 452 341" fill="none" xmlns="http://www.w3.org/2000/svg">
<path opacity="0.24" d="M436.919 304.301C435.228 313.485 431.42 321.98 424.885 328.427C406.741 346.327 377.819 341.156 353.157 336.739C309.796 328.934 265.628 327.121 221.807 331.348C172.306 336.123 120.795 348.356 74.0833 330.705C60.2687 325.624 48.1999 316.442 39.3794 304.301C38.547 303.217 37.7678 302.106 37.0771 300.995C30.2231 290.709 25.4589 278.733 22.1825 265.802C21.8371 264.387 21.5095 262.946 21.1907 261.495C11.4499 217.329 19.1008 163.162 26.8492 126.252C30.2496 110.042 34.7216 93.9517 42.2574 79.3033C61.5531 41.6492 99.5511 17.0729 139.462 6.86954C179.373 -3.33382 221.311 -0.688846 262.019 5.25317C294.606 9.9829 328.699 17.7066 352.874 40.8593C375.304 62.3222 385.754 94.0068 392.067 125.003C398.381 155.998 401.454 187.986 412.815 217.366C419.997 235.908 430.393 253.183 435.405 272.469C436.158 275.349 436.75 278.271 437.176 281.222C438.345 288.875 438.258 296.678 436.919 304.301Z" fill="#6EC7EB"/>
<path opacity="0.26" d="M436.92 304.301H38.4762L37.0859 300.995L22.1825 265.802L20.4114 261.522H21.2173L424.832 252.127L437.159 281.176C438.338 288.843 438.257 296.662 436.92 304.301Z" fill="url(#paint0_linear)"/>
<path d="M107.955 77.3564H18.109C14.0792 77.3564 10.8123 80.7425 10.8123 84.9194C10.8123 89.0963 14.0792 92.4824 18.109 92.4824H107.955C111.985 92.4824 115.251 89.0963 115.251 84.9194C115.251 80.7425 111.985 77.3564 107.955 77.3564Z" stroke="#6EC7EB" stroke-width="0.68" stroke-miterlimit="10"/>
<path d="M215.484 77.3564H125.639C121.609 77.3564 118.342 80.7425 118.342 84.9194C118.342 89.0963 121.609 92.4824 125.639 92.4824H215.484C219.514 92.4824 222.781 89.0963 222.781 84.9194C222.781 80.7425 219.514 77.3564 215.484 77.3564Z" stroke="#6EC7EB" stroke-width="0.68" stroke-miterlimit="10"/>
<path d="M323.014 77.3564H233.168C229.138 77.3564 225.872 80.7425 225.872 84.9194C225.872 89.0963 229.138 92.4824 233.168 92.4824H323.014C327.044 92.4824 330.311 89.0963 330.311 84.9194C330.311 80.7425 327.044 77.3564 323.014 77.3564Z" stroke="#6EC7EB" stroke-width="0.68" stroke-miterlimit="10"/>
<path d="M430.544 77.3564H340.698C336.668 77.3564 333.401 80.7425 333.401 84.9194C333.401 89.0963 336.668 92.4824 340.698 92.4824H430.544C434.574 92.4824 437.84 89.0963 437.84 84.9194C437.84 80.7425 434.574 77.3564 430.544 77.3564Z" stroke="#6EC7EB" stroke-width="0.68" stroke-miterlimit="10"/>
<path d="M438.797 59.6222H13.2032C5.91128 59.6222 0 65.7529 0 73.3155V259.575C0 267.138 5.91128 273.268 13.2032 273.268H438.797C446.089 273.268 452 267.138 452 259.575V73.3155C452 65.7529 446.089 59.6222 438.797 59.6222Z" fill="#6EC7EB"/>
<path d="M438.797 52.5781H13.2032C5.91128 52.5781 0 58.7088 0 66.2714V252.531C0 260.094 5.91128 266.224 13.2032 266.224H438.797C446.089 266.224 452 260.094 452 252.531V66.2714C452 58.7088 446.089 52.5781 438.797 52.5781Z" fill="url(#paint1_linear)"/>
<path opacity="0.26" d="M349.713 244.725C349.641 242.271 349.105 239.856 348.136 237.616C344.895 231.233 336.421 230.526 330.736 226.366C326.166 223.014 323.536 217.384 322.518 211.672C321.5 205.959 321.907 200.1 322.323 194.314C322.438 192.67 322.607 190.888 323.678 189.667C325.998 186.994 330.213 188.905 333.074 190.934L340.689 196.334C342.301 197.473 344.515 198.612 346.002 197.363C347.012 196.536 347.18 195.049 347.277 193.689L348.721 172.842C349.119 167.084 350.076 160.379 354.92 157.606C359.763 154.832 366.086 157.799 369.141 162.528C372.196 167.258 372.772 173.209 373.17 178.885C375.218 208.728 374.788 238.698 371.886 268.465C371.771 269.641 371.567 270.963 370.629 271.634C369.892 272.035 369.054 272.189 368.229 272.075C362.916 271.9 353.308 273.985 350.704 268.19C348.101 262.395 350.262 251.135 349.713 244.725Z" fill="url(#paint2_linear)"/>
<path d="M320.703 184.634L342.398 178.573L353.529 205.381L349.845 212.81L334.942 211.929L320.703 184.634Z" fill="url(#paint3_linear)"/>
<path d="M324.626 204.784C324.313 202.433 324.363 200.046 324.776 197.712C324.812 197.346 324.924 196.992 325.104 196.674C325.75 195.701 327.291 196.086 328.035 196.968C328.779 197.85 329.106 199.053 329.806 199.962C330.399 200.706 331.223 201.211 331.878 201.9C332.926 203.146 333.629 204.663 333.915 206.29C334.025 206.702 334.07 207.13 334.048 207.557C333.928 208.152 333.68 208.711 333.322 209.192C332.162 211.029 330.178 213.563 328.008 211.819C326.034 210.248 324.998 207.217 324.626 204.784Z" fill="url(#paint4_linear)"/>
<path opacity="0.68" d="M437.681 80.4882H345.56C343.535 80.4882 341.893 82.1904 341.893 84.2903V92.3355C341.893 94.4353 343.535 96.1376 345.56 96.1376H437.681C439.706 96.1376 441.347 94.4353 441.347 92.3355V84.2903C441.347 82.1904 439.706 80.4882 437.681 80.4882Z" fill="#6EC7EB"/>
<path d="M103.731 101.023H19.0211C15.3238 101.023 12.3266 104.132 12.3266 107.967V244.146C12.3266 247.981 15.3238 251.089 19.0211 251.089H103.731C107.428 251.089 110.425 247.981 110.425 244.146V107.967C110.425 104.132 107.428 101.023 103.731 101.023Z" fill="white"/>
<path d="M213.049 100.84H130.049C125.046 100.84 120.99 105.046 120.99 110.235V139.44C120.99 144.629 125.046 148.835 130.049 148.835H213.049C218.052 148.835 222.108 144.629 222.108 139.44V110.235C222.108 105.046 218.052 100.84 213.049 100.84Z" fill="white"/>
<path d="M212.881 156.008H130.217C125.121 156.008 120.99 160.292 120.99 165.577V196.224C120.99 201.509 125.121 205.794 130.217 205.794H212.881C217.977 205.794 222.108 201.509 222.108 196.224V165.577C222.108 160.292 217.977 156.008 212.881 156.008Z" fill="white"/>
<path d="M213.049 211.699H130.049C125.046 211.699 120.99 215.906 120.99 221.094V250.299C120.99 255.488 125.046 259.695 130.049 259.695H213.049C218.052 259.695 222.108 255.488 222.108 250.299V221.094C222.108 215.906 218.052 211.699 213.049 211.699Z" fill="white"/>
<path d="M324.696 102.401H240.74C236.001 102.401 232.159 106.385 232.159 111.3V113.008C232.159 117.923 236.001 121.908 240.74 121.908H324.696C329.436 121.908 333.277 117.923 333.277 113.008V111.3C333.277 106.385 329.436 102.401 324.696 102.401Z" fill="white"/>
<path d="M436.122 103.962H345.63C342.696 103.962 340.317 106.429 340.317 109.473V114.965C340.317 118.008 342.696 120.475 345.63 120.475H436.122C439.057 120.475 441.436 118.008 441.436 114.965V109.473C441.436 106.429 439.057 103.962 436.122 103.962Z" fill="white"/>
<path opacity="0.68" d="M107.264 80.4882H15.479C13.4592 80.4882 11.8218 82.1863 11.8218 84.2811V92.3446C11.8218 94.4394 13.4592 96.1376 15.479 96.1376H107.264C109.284 96.1376 110.921 94.4394 110.921 92.3446V84.2811C110.921 82.1863 109.284 80.4882 107.264 80.4882Z" fill="#6EC7EB"/>
<path opacity="0.93" d="M216.99 80.4882H125.205C123.185 80.4882 121.548 82.1863 121.548 84.2811V92.3446C121.548 94.4394 123.185 96.1376 125.205 96.1376H216.99C219.01 96.1376 220.647 94.4394 220.647 92.3446V84.2811C220.647 82.1863 219.01 80.4882 216.99 80.4882Z" fill="#6EC7EB"/>
<path opacity="0.68" d="M328.265 80.4882H236.144C234.119 80.4882 232.478 82.1904 232.478 84.2903V92.3355C232.478 94.4353 234.119 96.1376 236.144 96.1376H328.265C330.29 96.1376 331.931 94.4353 331.931 92.3355V84.2903C331.931 82.1904 330.29 80.4882 328.265 80.4882Z" fill="#6EC7EB"/>
<path opacity="0.26" d="M328.265 80.4882H236.144C234.119 80.4882 232.478 82.1904 232.478 84.2903V92.3355C232.478 94.4353 234.119 96.1376 236.144 96.1376H328.265C330.29 96.1376 331.931 94.4353 331.931 92.3355V84.2903C331.931 82.1904 330.29 80.4882 328.265 80.4882Z" fill="url(#paint5_linear)"/>
<path opacity="0.26" d="M438.434 80.4882H346.312C344.288 80.4882 342.646 82.1904 342.646 84.2903V92.3355C342.646 94.4353 344.288 96.1376 346.312 96.1376H438.434C440.458 96.1376 442.1 94.4353 442.1 92.3355V84.2903C442.1 82.1904 440.458 80.4882 438.434 80.4882Z" fill="url(#paint6_linear)"/>
<path opacity="0.26" d="M131.961 119.483C134.93 119.483 137.337 116.987 137.337 113.909C137.337 110.83 134.93 108.334 131.961 108.334C128.993 108.334 126.586 110.83 126.586 113.909C126.586 116.987 128.993 119.483 131.961 119.483Z" fill="url(#paint7_linear)"/>
<path opacity="0.26" d="M131.961 136.51C134.93 136.51 137.337 134.014 137.337 130.936C137.337 127.857 134.93 125.361 131.961 125.361C128.993 125.361 126.586 127.857 126.586 130.936C126.586 134.014 128.993 136.51 131.961 136.51Z" fill="url(#paint8_linear)"/>
<path opacity="0.68" d="M60.5878 111.273H22.6341C21.5239 111.273 20.6239 112.206 20.6239 113.357C20.6239 114.509 21.5239 115.442 22.6341 115.442H60.5878C61.698 115.442 62.598 114.509 62.598 113.357C62.598 112.206 61.698 111.273 60.5878 111.273Z" fill="#6EC7EB"/>
<path opacity="0.68" d="M57.6036 123.79H22.6341C21.5239 123.79 20.6239 124.724 20.6239 125.875C20.6239 127.027 21.5239 127.96 22.6341 127.96H57.6036C58.7138 127.96 59.6137 127.027 59.6137 125.875C59.6137 124.724 58.7138 123.79 57.6036 123.79Z" fill="#6EC7EB"/>
<path opacity="0.68" d="M57.6036 150.92H22.6341C21.5239 150.92 20.6239 151.853 20.6239 153.005C20.6239 154.156 21.5239 155.089 22.6341 155.089H57.6036C58.7138 155.089 59.6137 154.156 59.6137 153.005C59.6137 151.853 58.7138 150.92 57.6036 150.92Z" fill="#6EC7EB"/>
<path opacity="0.68" d="M89.1815 161.353H22.6341C21.5239 161.353 20.6239 162.286 20.6239 163.438C20.6239 164.589 21.5239 165.522 22.6341 165.522H89.1815C90.2917 165.522 91.1917 164.589 91.1917 163.438C91.1917 162.286 90.2917 161.353 89.1815 161.353Z" fill="#6EC7EB"/>
<path opacity="0.68" d="M211.429 110.492H144.881C143.771 110.492 142.871 111.425 142.871 112.577C142.871 113.728 143.771 114.662 144.881 114.662H211.429C212.539 114.662 213.439 113.728 213.439 112.577C213.439 111.425 212.539 110.492 211.429 110.492Z" fill="#6EC7EB"/>
<path opacity="0.26" d="M243.131 118.51C246.099 118.51 248.506 116.014 248.506 112.935C248.506 109.856 246.099 107.36 243.131 107.36C240.162 107.36 237.755 109.856 237.755 112.935C237.755 116.014 240.162 118.51 243.131 118.51Z" fill="url(#paint9_linear)"/>
<path opacity="0.68" d="M322.607 109.509H256.059C254.949 109.509 254.049 110.443 254.049 111.594C254.049 112.746 254.949 113.679 256.059 113.679H322.607C323.717 113.679 324.617 112.746 324.617 111.594C324.617 110.443 323.717 109.509 322.607 109.509Z" fill="#6EC7EB"/>
<path opacity="0.26" d="M354.433 118.51C357.401 118.51 359.808 116.014 359.808 112.935C359.808 109.856 357.401 107.36 354.433 107.36C351.464 107.36 349.057 109.856 349.057 112.935C349.057 116.014 351.464 118.51 354.433 118.51Z" fill="url(#paint10_linear)"/>
<path opacity="0.68" d="M433.909 109.509H367.361C366.251 109.509 365.351 110.443 365.351 111.594C365.351 112.746 366.251 113.679 367.361 113.679H433.909C435.019 113.679 435.919 112.746 435.919 111.594C435.919 110.443 435.019 109.509 433.909 109.509Z" fill="#6EC7EB"/>
<path d="M324.696 125.489H240.74C236.001 125.489 232.159 129.474 232.159 134.389V136.097C232.159 141.012 236.001 144.996 240.74 144.996H324.696C329.436 144.996 333.277 141.012 333.277 136.097V134.389C333.277 129.474 329.436 125.489 324.696 125.489Z" fill="white"/>
<path opacity="0.26" d="M243.131 141.598C246.099 141.598 248.506 139.102 248.506 136.023C248.506 132.945 246.099 130.449 243.131 130.449C240.162 130.449 237.755 132.945 237.755 136.023C237.755 139.102 240.162 141.598 243.131 141.598Z" fill="url(#paint11_linear)"/>
<path opacity="0.68" d="M322.607 132.598H256.059C254.949 132.598 254.049 133.531 254.049 134.683C254.049 135.834 254.949 136.767 256.059 136.767H322.607C323.717 136.767 324.617 135.834 324.617 134.683C324.617 133.531 323.717 132.598 322.607 132.598Z" fill="#6EC7EB"/>
<path d="M324.696 148.578H240.74C236.001 148.578 232.159 152.562 232.159 157.477V159.185C232.159 164.1 236.001 168.085 240.74 168.085H324.696C329.436 168.085 333.277 164.1 333.277 159.185V157.477C333.277 152.562 329.436 148.578 324.696 148.578Z" fill="white"/>
<path opacity="0.26" d="M243.131 164.677C246.099 164.677 248.506 162.182 248.506 159.103C248.506 156.024 246.099 153.528 243.131 153.528C240.162 153.528 237.755 156.024 237.755 159.103C237.755 162.182 240.162 164.677 243.131 164.677Z" fill="url(#paint12_linear)"/>
<path opacity="0.68" d="M322.607 155.686H256.059C254.949 155.686 254.049 156.62 254.049 157.771C254.049 158.922 254.949 159.856 256.059 159.856H322.607C323.717 159.856 324.617 158.922 324.617 157.771C324.617 156.62 323.717 155.686 322.607 155.686Z" fill="#6EC7EB"/>
<path opacity="0.68" d="M199.828 128.226H144.704C143.692 128.226 142.871 129.077 142.871 130.127V130.495C142.871 131.545 143.692 132.396 144.704 132.396H199.828C200.841 132.396 201.661 131.545 201.661 130.495V130.127C201.661 129.077 200.841 128.226 199.828 128.226Z" fill="#6EC7EB"/>
<path opacity="0.26" d="M131.961 171.721C134.93 171.721 137.337 169.226 137.337 166.147C137.337 163.068 134.93 160.572 131.961 160.572C128.993 160.572 126.586 163.068 126.586 166.147C126.586 169.226 128.993 171.721 131.961 171.721Z" fill="url(#paint13_linear)"/>
<path opacity="0.68" d="M199.828 163.447H144.704C143.692 163.447 142.871 164.298 142.871 165.348V165.715C142.871 166.765 143.692 167.616 144.704 167.616H199.828C200.841 167.616 201.661 166.765 201.661 165.715V165.348C201.661 164.298 200.841 163.447 199.828 163.447Z" fill="#6EC7EB"/>
<path opacity="0.26" d="M131.961 186.59C134.93 186.59 137.337 184.094 137.337 181.016C137.337 177.937 134.93 175.441 131.961 175.441C128.993 175.441 126.586 177.937 126.586 181.016C126.586 184.094 128.993 186.59 131.961 186.59Z" fill="url(#paint14_linear)"/>
<path opacity="0.68" d="M199.828 178.316H144.704C143.692 178.316 142.871 179.167 142.871 180.217V180.584C142.871 181.634 143.692 182.485 144.704 182.485H199.828C200.841 182.485 201.661 181.634 201.661 180.584V180.217C201.661 179.167 200.841 178.316 199.828 178.316Z" fill="#6EC7EB"/>
<path opacity="0.26" d="M131.961 201.459C134.93 201.459 137.337 198.963 137.337 195.884C137.337 192.806 134.93 190.31 131.961 190.31C128.993 190.31 126.586 192.806 126.586 195.884C126.586 198.963 128.993 201.459 131.961 201.459Z" fill="url(#paint15_linear)"/>
<path opacity="0.68" d="M199.828 193.184H144.704C143.692 193.184 142.871 194.036 142.871 195.086V195.453C142.871 196.503 143.692 197.354 144.704 197.354H199.828C200.841 197.354 201.661 196.503 201.661 195.453V195.086C201.661 194.036 200.841 193.184 199.828 193.184Z" fill="#6EC7EB"/>
<path opacity="0.26" d="M131.961 228.46C134.93 228.46 137.337 225.964 137.337 222.885C137.337 219.806 134.93 217.311 131.961 217.311C128.993 217.311 126.586 219.806 126.586 222.885C126.586 225.964 128.993 228.46 131.961 228.46Z" fill="url(#paint16_linear)"/>
<path opacity="0.68" d="M199.828 220.185H144.704C143.692 220.185 142.871 221.036 142.871 222.086V222.454C142.871 223.504 143.692 224.355 144.704 224.355H199.828C200.841 224.355 201.661 223.504 201.661 222.454V222.086C201.661 221.036 200.841 220.185 199.828 220.185Z" fill="#6EC7EB"/>
<path opacity="0.26" d="M131.961 254.579C134.93 254.579 137.337 252.083 137.337 249.004C137.337 245.926 134.93 243.43 131.961 243.43C128.993 243.43 126.586 245.926 126.586 249.004C126.586 252.083 128.993 254.579 131.961 254.579Z" fill="url(#paint17_linear)"/>
<path opacity="0.68" d="M199.828 234.136H144.704C143.692 234.136 142.871 234.987 142.871 236.037V236.404C142.871 237.454 143.692 238.305 144.704 238.305H199.828C200.841 238.305 201.661 237.454 201.661 236.404V236.037C201.661 234.987 200.841 234.136 199.828 234.136Z" fill="#6EC7EB"/>
<path opacity="0.68" d="M199.828 247.7H144.704C143.692 247.7 142.871 248.551 142.871 249.601V249.969C142.871 251.019 143.692 251.87 144.704 251.87H199.828C200.841 251.87 201.661 251.019 201.661 249.969V249.601C201.661 248.551 200.841 247.7 199.828 247.7Z" fill="#6EC7EB"/>
<path opacity="0.68" d="M57.6036 194.746H22.6341C21.5239 194.746 20.6239 195.679 20.6239 196.83C20.6239 197.982 21.5239 198.915 22.6341 198.915H57.6036C58.7138 198.915 59.6137 197.982 59.6137 196.83C59.6137 195.679 58.7138 194.746 57.6036 194.746Z" fill="#6EC7EB"/>
<path opacity="0.68" d="M89.1815 205.179H22.6341C21.5239 205.179 20.6239 206.112 20.6239 207.263C20.6239 208.415 21.5239 209.348 22.6341 209.348H89.1815C90.2917 209.348 91.1917 208.415 91.1917 207.263C91.1917 206.112 90.2917 205.179 89.1815 205.179Z" fill="#6EC7EB"/>
<path d="M145.067 85.9618H143.34V85.3097H147.547V85.9618H145.776V91.2058H145.032L145.067 85.9618Z" fill="white"/>
<path d="M149.876 91.2059L149.814 90.6732C149.668 90.8729 149.479 91.0337 149.262 91.1423C149.045 91.2509 148.806 91.3042 148.565 91.2977C148.405 91.3104 148.243 91.2885 148.092 91.2331C147.94 91.1778 147.801 91.0904 147.684 90.9764C147.566 90.8624 147.473 90.7243 147.41 90.5709C147.346 90.4176 147.315 90.2522 147.316 90.0854C147.316 89.066 148.202 88.5058 149.778 88.515V88.4231C149.786 88.294 149.767 88.1647 149.723 88.0436C149.679 87.9225 149.611 87.8124 149.523 87.7205C149.436 87.6286 149.33 87.5569 149.214 87.5102C149.097 87.4636 148.973 87.4429 148.848 87.4496C148.473 87.4493 148.105 87.5574 147.786 87.7619L147.617 87.2568C148.02 87.0029 148.484 86.8724 148.955 86.8802C150.203 86.8802 150.504 87.7986 150.504 88.6068V90.1956C150.498 90.5339 150.522 90.872 150.575 91.2059H149.876ZM149.76 89.0476C148.955 89.0476 147.989 89.1762 147.989 89.966C147.982 90.0638 147.994 90.1622 148.026 90.2544C148.059 90.3467 148.11 90.4306 148.176 90.5004C148.243 90.5702 148.323 90.6242 148.411 90.6588C148.5 90.6934 148.595 90.7077 148.689 90.7007C148.905 90.706 149.117 90.6405 149.295 90.5136C149.473 90.3866 149.608 90.2047 149.681 89.9936C149.693 89.9114 149.693 89.8278 149.681 89.7456L149.76 89.0476Z" fill="white"/>
<path d="M151.576 90.416C151.869 90.6063 152.205 90.7139 152.55 90.7282C153.09 90.7282 153.347 90.4435 153.347 90.0945C153.347 89.7455 153.134 89.5251 152.585 89.3139C151.85 89.0475 151.505 88.6251 151.505 88.12C151.512 87.9402 151.555 87.7639 151.631 87.6023C151.708 87.4406 151.815 87.2971 151.947 87.1806C152.08 87.0642 152.234 86.9773 152.4 86.9256C152.566 86.8739 152.741 86.8584 152.913 86.8801C153.265 86.8763 153.612 86.9647 153.922 87.1373L153.737 87.6975C153.485 87.5421 153.197 87.4597 152.904 87.4587C152.461 87.4587 152.213 87.7159 152.213 88.0281C152.213 88.3404 152.461 88.5424 152.993 88.7445C153.701 89.0292 154.064 89.3965 154.064 90.0302C154.064 90.6639 153.506 91.2976 152.541 91.2976C152.139 91.3043 151.743 91.203 151.39 91.0037L151.576 90.416Z" fill="white"/>
<path d="M155.747 88.919C155.853 88.7628 155.995 88.5792 156.11 88.4322L157.305 86.972H158.191L156.614 88.7169L158.386 91.2058H157.5L156.127 89.1853L155.747 89.6261V91.2149H155.012V85.0066H155.747V88.919Z" fill="white"/>
<path d="M161.582 85.7873C161.585 85.8511 161.575 85.9148 161.552 85.9742C161.529 86.0335 161.494 86.0871 161.45 86.1314C161.405 86.1758 161.352 86.2098 161.294 86.2312C161.236 86.2526 161.174 86.2609 161.113 86.2557C161.053 86.2569 160.994 86.2456 160.939 86.2225C160.883 86.1995 160.833 86.165 160.791 86.1213C160.749 86.0775 160.715 86.0254 160.693 85.968C160.671 85.9106 160.66 85.8491 160.661 85.7873C160.66 85.723 160.671 85.6592 160.695 85.5995C160.718 85.5399 160.752 85.4858 160.796 85.4403C160.84 85.3949 160.892 85.3591 160.95 85.335C161.007 85.311 161.069 85.2993 161.131 85.3005C161.192 85.2991 161.253 85.3109 161.309 85.3351C161.366 85.3594 161.417 85.3955 161.459 85.4412C161.502 85.487 161.535 85.5413 161.556 85.6009C161.577 85.6604 161.586 85.7239 161.582 85.7873ZM160.759 91.2058V86.972H161.494V91.2058H160.759Z" fill="white"/>
<path d="M162.716 88.1199C162.716 87.6791 162.716 87.3209 162.716 86.9719H163.38L163.424 87.6699C163.561 87.4242 163.759 87.2212 163.997 87.0823C164.236 86.9433 164.506 86.8734 164.779 86.8801C165.346 86.8801 166.222 87.2291 166.222 88.7169V91.2425H165.479V88.7995C165.479 88.1199 165.231 87.5505 164.531 87.5505C164.306 87.5536 164.087 87.6322 163.909 87.7746C163.73 87.9169 163.6 88.1154 163.539 88.3403C163.502 88.4556 163.484 88.5768 163.486 88.6985V91.2425H162.716V88.1199Z" fill="white"/>
<path d="M169.216 85.3831C169.681 85.305 170.152 85.2681 170.624 85.2729C171.194 85.2281 171.761 85.4012 172.217 85.7597C172.382 85.9149 172.511 86.1055 172.597 86.3181C172.682 86.5307 172.722 86.7601 172.713 86.9903C172.724 87.2193 172.692 87.4483 172.617 87.6642C172.543 87.8801 172.428 88.0787 172.279 88.2485C172.043 88.4779 171.764 88.6543 171.46 88.7665C171.155 88.8787 170.831 88.9244 170.508 88.9006C170.309 88.9077 170.11 88.8892 169.915 88.8455V91.2058H169.18L169.216 85.3831ZM169.951 88.221C170.151 88.27 170.356 88.2916 170.562 88.2853C171.447 88.2853 171.987 87.8353 171.987 87.0271C171.987 86.2189 171.456 85.8699 170.641 85.8699C170.409 85.8628 170.177 85.8844 169.951 85.9342V88.221Z" fill="white"/>
<path d="M173.546 88.2669C173.546 87.771 173.546 87.3485 173.546 86.9444H174.192V87.7802C174.263 87.5239 174.409 87.2972 174.611 87.1324C174.813 86.9675 175.06 86.8728 175.317 86.8618C175.387 86.8517 175.459 86.8517 175.529 86.8618V87.5873C175.447 87.5768 175.364 87.5768 175.281 87.5873C175.027 87.5954 174.785 87.6999 174.601 87.8811C174.416 88.0623 174.302 88.3075 174.281 88.57C174.271 88.6892 174.271 88.809 174.281 88.9282V91.1874H173.555L173.546 88.2669Z" fill="white"/>
<path d="M179.904 89.0567C179.927 89.3455 179.892 89.6363 179.801 89.91C179.709 90.1838 179.563 90.4345 179.371 90.6458C179.18 90.8572 178.948 91.0244 178.691 91.1367C178.433 91.249 178.155 91.3038 177.876 91.2976C177.606 91.3011 177.338 91.2461 177.09 91.1359C176.841 91.0258 176.618 90.8631 176.433 90.6582C176.249 90.4533 176.108 90.2107 176.02 89.946C175.931 89.6812 175.897 89.4003 175.919 89.121C175.894 88.8327 175.928 88.5422 176.019 88.2684C176.109 87.9946 176.255 87.7438 176.445 87.5323C176.636 87.3208 176.867 87.1534 177.124 87.041C177.382 86.9286 177.659 86.8738 177.938 86.8801C178.209 86.8739 178.479 86.927 178.729 87.0361C178.979 87.1451 179.204 87.3077 179.39 87.513C179.575 87.7184 179.717 87.9621 179.805 88.228C179.894 88.494 179.928 88.7764 179.904 89.0567ZM176.672 89.0567C176.672 89.9751 177.185 90.6823 177.911 90.6823C178.638 90.6823 179.151 89.9843 179.151 89.0384C179.151 88.322 178.806 87.4128 177.929 87.4128C177.052 87.4128 176.672 88.2669 176.672 89.1027V89.0567Z" fill="white"/>
<path d="M184.358 86.972C184.358 87.275 184.358 87.624 184.358 88.1383V90.5904C184.401 90.938 184.371 91.2911 184.27 91.6256C184.169 91.96 184 92.2679 183.774 92.5282C183.36 92.8837 182.831 93.0641 182.295 93.0334C181.821 93.0471 181.353 92.9264 180.94 92.6844L181.117 92.0966C181.482 92.3173 181.899 92.4316 182.321 92.4272C183.074 92.4272 183.632 92.0231 183.632 90.9486V90.4802C183.497 90.7068 183.305 90.8918 183.078 91.0161C182.851 91.1404 182.596 91.1995 182.339 91.1874C182.089 91.1823 181.842 91.1236 181.615 91.0149C181.387 90.9062 181.184 90.7499 181.018 90.5558C180.852 90.3618 180.726 90.1341 180.648 89.8872C180.571 89.6403 180.544 89.3794 180.568 89.121C180.539 88.8475 180.564 88.5707 180.641 88.3076C180.719 88.0444 180.847 87.8005 181.019 87.5907C181.19 87.3808 181.401 87.2096 181.639 87.0874C181.877 86.9652 182.136 86.8947 182.401 86.8801C182.659 86.8648 182.916 86.9257 183.141 87.0558C183.367 87.1859 183.553 87.3797 183.676 87.6148V86.972H184.358ZM183.588 88.6434C183.607 88.5279 183.607 88.4099 183.588 88.2944C183.527 88.0583 183.392 87.8499 183.204 87.702C183.017 87.554 182.787 87.4749 182.552 87.4771C181.843 87.4771 181.338 88.1016 181.338 89.0843C181.338 89.9108 181.746 90.5996 182.543 90.5996C182.773 90.5996 182.997 90.5241 183.183 90.3839C183.369 90.2437 183.508 90.0459 183.579 89.819C183.613 89.6841 183.631 89.5452 183.632 89.4057L183.588 88.6434Z" fill="white"/>
<path d="M185.5 88.2669C185.5 87.771 185.5 87.3485 185.5 86.9444H186.156V87.7802C186.228 87.5232 186.376 87.2962 186.58 87.1314C186.783 86.9666 187.031 86.8723 187.289 86.8618C187.36 86.8517 187.431 86.8517 187.502 86.8618V87.5873C187.416 87.5768 187.33 87.5768 187.245 87.5873C186.992 87.5956 186.751 87.7005 186.568 87.8818C186.385 88.0632 186.273 88.3083 186.253 88.57C186.243 88.6892 186.243 88.809 186.253 88.9282V91.1874H185.518L185.5 88.2669Z" fill="white"/>
<path d="M188.591 89.2312C188.574 89.4271 188.598 89.6246 188.662 89.8098C188.725 89.995 188.828 90.1635 188.961 90.3034C189.094 90.4434 189.255 90.5515 189.433 90.6201C189.611 90.6887 189.801 90.7162 189.99 90.7007C190.376 90.7128 190.76 90.6376 191.115 90.4802L191.239 91.0313C190.81 91.2185 190.348 91.3092 189.884 91.2976C189.611 91.3147 189.339 91.2704 189.084 91.168C188.83 91.0656 188.599 90.9074 188.409 90.7042C188.219 90.501 188.074 90.2576 187.983 89.9907C187.892 89.7238 187.858 89.4397 187.882 89.1578C187.852 88.8755 187.878 88.5897 187.959 88.3185C188.041 88.0473 188.176 87.7966 188.356 87.5824C188.535 87.3682 188.756 87.1952 189.004 87.0743C189.252 86.9534 189.521 86.8872 189.795 86.8801C190.033 86.8916 190.267 86.9528 190.482 87.0602C190.697 87.1676 190.889 87.3189 191.046 87.505C191.203 87.6911 191.322 87.9082 191.396 88.1433C191.471 88.3784 191.498 88.6266 191.478 88.8731C191.485 88.9923 191.485 89.112 191.478 89.2312H188.591ZM190.76 88.6802C190.782 88.5264 190.771 88.3697 190.73 88.2205C190.688 88.0712 190.616 87.9329 190.519 87.8147C190.422 87.6965 190.302 87.6012 190.166 87.535C190.031 87.4689 189.883 87.4335 189.733 87.4312C189.428 87.4542 189.142 87.5953 188.932 87.8266C188.722 88.0579 188.603 88.3626 188.6 88.6802H190.76Z" fill="white"/>
<path d="M192.292 90.4159C192.588 90.6078 192.927 90.7155 193.275 90.7282C193.815 90.7282 194.063 90.4435 194.063 90.0945C194.063 89.7455 193.86 89.5251 193.311 89.3139C192.576 89.0475 192.23 88.6251 192.23 88.12C192.238 87.9402 192.281 87.7639 192.357 87.6023C192.433 87.4406 192.541 87.2971 192.673 87.1806C192.805 87.0642 192.959 86.9773 193.125 86.9256C193.291 86.8739 193.466 86.8584 193.638 86.8801C193.987 86.8774 194.332 86.9659 194.639 87.1373L194.453 87.6975C194.202 87.5408 193.914 87.4583 193.621 87.4587C193.178 87.4587 192.939 87.7159 192.939 88.0281C192.939 88.3404 193.178 88.5424 193.709 88.7445C194.418 89.0292 194.781 89.3965 194.781 90.0302C194.781 90.6639 194.223 91.2976 193.258 91.2976C192.856 91.303 192.46 91.2019 192.106 91.0037L192.292 90.4159Z" fill="white"/>
<path d="M195.631 90.416C195.926 90.6078 196.265 90.7155 196.614 90.7282C197.154 90.7282 197.402 90.4435 197.402 90.0945C197.402 89.7455 197.189 89.5251 196.649 89.3139C195.914 89.0475 195.569 88.6251 195.569 88.12C195.576 87.9402 195.619 87.764 195.695 87.6023C195.771 87.4406 195.879 87.2971 196.011 87.1806C196.144 87.0642 196.298 86.9773 196.464 86.9256C196.63 86.8739 196.805 86.8584 196.977 86.8801C197.326 86.8774 197.67 86.9659 197.977 87.1373L197.791 87.6975C197.54 87.5408 197.252 87.4583 196.959 87.4587C196.516 87.4587 196.277 87.7159 196.277 88.0281C196.277 88.3404 196.516 88.5424 197.048 88.7445C197.756 89.0292 198.119 89.3965 198.119 90.0302C198.119 90.6639 197.561 91.2976 196.596 91.2976C196.208 91.3025 195.825 91.2079 195.48 91.0221L195.631 90.416Z" fill="white"/>
<path d="M35.5628 85.3097V88.7996C35.5628 90.1221 36.1207 90.6364 36.8822 90.6364C37.6438 90.6364 38.2637 90.0578 38.2637 88.7996V85.3097H39.0075V88.7445C39.0075 90.5813 38.122 91.2976 36.8557 91.2976C35.5894 91.2976 34.819 90.6088 34.819 88.7812V85.3097H35.5628Z" fill="white"/>
<path d="M40.1056 90.416C40.3972 90.6091 40.7338 90.717 41.0796 90.7282C41.6198 90.7282 41.8766 90.4435 41.8766 90.0945C41.8766 89.7455 41.6641 89.5251 41.1151 89.3139C40.3801 89.0475 40.0347 88.6251 40.0347 88.12C40.042 87.9402 40.0851 87.7639 40.1612 87.6023C40.2374 87.4406 40.345 87.2971 40.4772 87.1806C40.6094 87.0642 40.7635 86.9773 40.9296 86.9256C41.0958 86.8739 41.2705 86.8584 41.4427 86.8801C41.7921 86.8746 42.1369 86.9632 42.4434 87.1373L42.2574 87.6975C42.006 87.5408 41.7182 87.4583 41.425 87.4587C40.9911 87.4587 40.7431 87.7159 40.7431 88.0281C40.7431 88.3404 40.9911 88.5424 41.5224 88.7445C42.2308 89.0292 42.5939 89.3965 42.5939 90.0302C42.5939 90.6639 42.036 91.2976 41.0619 91.2976C40.6631 91.3035 40.2695 91.2023 39.9196 91.0037L40.1056 90.416Z" fill="white"/>
<path d="M43.9576 89.2313C43.9418 89.4268 43.967 89.6236 44.0314 89.808C44.0959 89.9925 44.1981 90.1603 44.3311 90.3C44.464 90.4396 44.6245 90.5477 44.8016 90.6169C44.9786 90.686 45.168 90.7146 45.3567 90.7007C45.7426 90.7128 46.1264 90.6376 46.4814 90.4803L46.6142 91.0313C46.1823 91.2171 45.7179 91.3078 45.2505 91.2976C44.9804 91.3142 44.7101 91.2706 44.4577 91.1698C44.2053 91.069 43.9766 90.9133 43.787 90.7132C43.5974 90.5131 43.4513 90.2732 43.3585 90.0097C43.2658 89.7461 43.2285 89.4651 43.2492 89.1853C43.2184 88.9031 43.2446 88.6173 43.326 88.3461C43.4074 88.0749 43.5424 87.8242 43.7223 87.61C43.9022 87.3958 44.1231 87.2227 44.3709 87.1018C44.6187 86.9809 44.8881 86.9148 45.1619 86.9077C45.4002 86.9192 45.6338 86.9804 45.8486 87.0878C46.0635 87.1952 46.2553 87.3464 46.4124 87.5326C46.5695 87.7187 46.6888 87.9358 46.763 88.1709C46.8373 88.406 46.865 88.6542 46.8444 88.9006C46.8517 89.0199 46.8517 89.1395 46.8444 89.2588L43.9576 89.2313ZM46.1271 88.6802C46.1486 88.5265 46.1381 88.3697 46.0965 88.2205C46.0549 88.0713 45.9831 87.9329 45.8859 87.8147C45.7887 87.6965 45.6684 87.6012 45.5328 87.5351C45.3973 87.4689 45.2497 87.4335 45.0999 87.4312C44.7945 87.4542 44.5084 87.5953 44.2985 87.8266C44.0886 88.058 43.9701 88.3626 43.9665 88.6802H46.1271Z" fill="white"/>
<path d="M47.7654 88.2669C47.7654 87.771 47.7654 87.3485 47.7654 86.9444H48.4118V87.7802C48.4828 87.5224 48.6308 87.2947 48.8345 87.1297C49.0381 86.9647 49.287 86.8709 49.5453 86.8618C49.6128 86.8516 49.6814 86.8516 49.749 86.8618V87.5873C49.6666 87.5767 49.5833 87.5767 49.501 87.5873C49.248 87.5956 49.0068 87.7004 48.8238 87.8818C48.6408 88.0632 48.5287 88.3082 48.5092 88.57C48.4996 88.6892 48.4996 88.809 48.5092 88.9282V91.1874H47.7742L47.7654 88.2669Z" fill="white"/>
<path d="M52.2284 90.2782C52.6271 90.5267 53.0827 90.6599 53.5479 90.6639C54.3006 90.6639 54.7345 90.2506 54.7345 89.6537C54.7345 89.0567 54.4334 88.7904 53.663 88.4873C52.7775 88.1475 52.1665 87.6516 52.1665 86.8158C52.1769 86.5828 52.2337 86.3545 52.3334 86.1454C52.4331 85.9362 52.5735 85.7508 52.7457 85.6006C52.9179 85.4505 53.1182 85.339 53.3339 85.2731C53.5497 85.2072 53.7763 85.1884 53.9995 85.2178C54.4351 85.2013 54.8676 85.2992 55.257 85.5025L55.0533 86.127C54.7231 85.9366 54.3508 85.8385 53.9729 85.8423C53.2025 85.8423 52.9103 86.3291 52.9103 86.7607C52.9103 87.3026 53.2557 87.5781 54.0349 87.8904C55.0001 88.2761 55.4872 88.8088 55.4872 89.6261C55.4872 90.4435 54.8408 91.3252 53.4948 91.3252C52.988 91.3269 52.4888 91.1975 52.0425 90.9486L52.2284 90.2782Z" fill="white"/>
<path d="M57.3379 85.7598V86.972H58.4006V87.5598H57.3379V89.8374C57.3379 90.3701 57.4796 90.664 57.8958 90.664C58.0422 90.6659 58.1881 90.6474 58.3297 90.6089V91.1875C58.1172 91.2679 57.8917 91.3053 57.6656 91.2977C57.5175 91.3061 57.3695 91.2808 57.2319 91.2237C57.0942 91.1666 56.9702 91.079 56.8686 90.9671C56.6379 90.6525 56.5332 90.2577 56.5764 89.865V87.5598H55.9476V86.972H56.5764V85.9618L57.3379 85.7598Z" fill="white"/>
<path d="M62.8725 89.0568C62.8958 89.3425 62.8616 89.6301 62.772 89.9013C62.6824 90.1725 62.5393 90.4214 62.3519 90.6321C62.1645 90.8429 61.9369 91.0109 61.6835 91.1255C61.4301 91.2401 61.1565 91.2987 60.88 91.2977C60.6099 91.3012 60.342 91.2461 60.0936 91.136C59.8452 91.0259 59.6217 90.8632 59.4374 90.6583C59.2532 90.4533 59.1122 90.2107 59.0237 89.946C58.9351 89.6813 58.9008 89.4003 58.923 89.1211C58.8999 88.8385 58.9331 88.554 59.0206 88.2853C59.1081 88.0166 59.248 87.7694 59.4316 87.5592C59.6152 87.349 59.8385 87.1802 60.0877 87.0634C60.3369 86.9466 60.6066 86.8842 60.88 86.8802C61.1535 86.87 61.426 86.9202 61.6793 87.0275C61.9326 87.1348 62.1611 87.2967 62.3495 87.5025C62.5379 87.7084 62.682 87.9534 62.7721 88.2214C62.8623 88.4893 62.8965 88.7741 62.8725 89.0568ZM59.6314 89.0568C59.6314 89.9752 60.1451 90.6824 60.8712 90.6824C61.5973 90.6824 62.1109 89.9844 62.1109 89.0384C62.1109 88.3221 61.7656 87.4129 60.8889 87.4129C60.0122 87.4129 59.6314 88.267 59.6314 89.1027V89.0568Z" fill="white"/>
<path d="M63.8023 88.2669C63.8023 87.771 63.8023 87.3485 63.8023 86.9444H64.4222V87.7802C64.4944 87.5232 64.6427 87.2962 64.8461 87.1314C65.0495 86.9666 65.2977 86.8723 65.5556 86.8618C65.6261 86.8517 65.6976 86.8517 65.7682 86.8618V87.5873C65.6829 87.5768 65.5967 87.5768 65.5114 87.5873C65.2583 87.5956 65.0172 87.7005 64.8341 87.8818C64.6511 88.0632 64.5391 88.3083 64.5196 88.57C64.51 88.6892 64.51 88.809 64.5196 88.9282V91.1874H63.8023V88.2669Z" fill="white"/>
<path d="M67.4241 85.7873C67.3966 85.8871 67.3385 85.9748 67.2586 86.0373C67.1787 86.0999 67.0814 86.1337 66.9813 86.1337C66.8813 86.1337 66.7839 86.0999 66.704 86.0373C66.6241 85.9748 66.566 85.8871 66.5386 85.7873C66.5361 85.7235 66.5463 85.6598 66.5685 85.6002C66.5906 85.5406 66.6243 85.4864 66.6675 85.4408C66.7106 85.3952 66.7623 85.3592 66.8193 85.3351C66.8763 85.311 66.9375 85.2992 66.999 85.3005C67.058 85.3028 67.1159 85.3174 67.1693 85.3432C67.2228 85.3691 67.2707 85.4058 67.3103 85.4511C67.3499 85.4965 67.3804 85.5496 67.3999 85.6073C67.4195 85.665 67.4277 85.7262 67.4241 85.7873ZM66.5917 91.2058V86.972H67.3355V91.2058H66.5917Z" fill="white"/>
<path d="M68.9826 89.2313C68.9668 89.4268 68.992 89.6236 69.0565 89.808C69.1209 89.9925 69.2232 90.1603 69.3561 90.3C69.489 90.4396 69.6495 90.5477 69.8266 90.6169C70.0036 90.686 70.193 90.7146 70.3818 90.7007C70.7676 90.7128 71.1514 90.6376 71.5064 90.4803L71.6392 91.0313C71.2073 91.2171 70.743 91.3078 70.2755 91.2976C70.0055 91.3142 69.7351 91.2706 69.4827 91.1698C69.2303 91.069 69.0016 90.9133 68.812 90.7132C68.6224 90.5131 68.4763 90.2732 68.3836 90.0097C68.2908 89.7461 68.2535 89.4651 68.2742 89.1853C68.2434 88.9031 68.2696 88.6173 68.351 88.3461C68.4325 88.0749 68.5674 87.8242 68.7473 87.61C68.9272 87.3958 69.1481 87.2227 69.3959 87.1018C69.6438 86.9809 69.9131 86.9148 70.1869 86.9077C70.4252 86.9192 70.6588 86.9804 70.8737 87.0878C71.0886 87.1952 71.2803 87.3464 71.4374 87.5326C71.5946 87.7187 71.7138 87.9358 71.7881 88.1709C71.8623 88.406 71.89 88.6542 71.8694 88.9006C71.8767 89.0199 71.8767 89.1395 71.8694 89.2588L68.9826 89.2313ZM71.1522 88.6802C71.1736 88.5265 71.1631 88.3697 71.1216 88.2205C71.08 88.0713 71.0082 87.9329 70.911 87.8147C70.8138 87.6965 70.6934 87.6012 70.5578 87.5351C70.4223 87.4689 70.2747 87.4335 70.125 87.4312C69.8195 87.4542 69.5335 87.5953 69.3235 87.8266C69.1136 88.058 68.9951 88.3626 68.9915 88.6802H71.1522Z" fill="white"/>
<path d="M72.6841 90.4159C72.9796 90.6078 73.3187 90.7155 73.6671 90.7282C74.2072 90.7282 74.4552 90.4435 74.4552 90.0945C74.4552 89.7455 74.2515 89.5251 73.7025 89.3139C72.9675 89.0475 72.6221 88.6251 72.6221 88.12C72.6294 87.9402 72.6725 87.7639 72.7486 87.6023C72.8248 87.4406 72.9324 87.2971 73.0646 87.1806C73.1969 87.0642 73.3509 86.9773 73.5171 86.9256C73.6832 86.8739 73.8579 86.8584 74.0301 86.8801C74.3794 86.8758 74.7239 86.9644 75.0308 87.1373L74.8448 87.6975C74.5934 87.5408 74.3057 87.4583 74.0124 87.4587C73.5697 87.4587 73.3306 87.7159 73.3306 88.0281C73.3306 88.3404 73.5697 88.5424 74.101 88.7445C74.8094 89.0292 75.1724 89.3965 75.1724 90.0302C75.1724 90.6639 74.6234 91.2976 73.6493 91.2976C73.2478 91.3022 72.8517 91.2011 72.4982 91.0037L72.6841 90.4159Z" fill="white"/>
<path d="M255.112 85.9618H253.385V85.3097H257.591V85.9618H255.82V91.2058H255.076L255.112 85.9618Z" fill="white"/>
<path d="M259.92 91.2059L259.858 90.6732C259.713 90.8729 259.524 91.0337 259.307 91.1423C259.09 91.2509 258.851 91.3042 258.61 91.2977C258.449 91.3104 258.288 91.2885 258.136 91.2331C257.985 91.1778 257.846 91.0904 257.728 90.9764C257.611 90.8624 257.517 90.7243 257.454 90.5709C257.391 90.4176 257.359 90.2522 257.361 90.0854C257.361 89.066 258.246 88.5058 259.814 88.515V88.4231C259.83 88.2961 259.819 88.1669 259.781 88.045C259.743 87.9231 259.679 87.8114 259.594 87.7182C259.509 87.625 259.406 87.5526 259.29 87.5061C259.175 87.4596 259.052 87.4404 258.928 87.4496C258.553 87.4493 258.185 87.5574 257.866 87.7619L257.697 87.2568C258.1 87.0029 258.564 86.8724 259.035 86.8802C260.283 86.8802 260.584 87.7986 260.584 88.6068V90.1956C260.578 90.5339 260.602 90.872 260.655 91.2059H259.92ZM259.805 89.0476C258.999 89.0476 258.078 89.1762 258.078 89.966C258.07 90.0638 258.083 90.1622 258.115 90.2544C258.147 90.3467 258.199 90.4306 258.265 90.5004C258.331 90.5702 258.412 90.6242 258.5 90.6588C258.589 90.6934 258.683 90.7077 258.778 90.7007C258.994 90.706 259.206 90.6405 259.384 90.5136C259.562 90.3866 259.697 90.2047 259.77 89.9936C259.778 89.9111 259.778 89.8281 259.77 89.7456L259.805 89.0476Z" fill="white"/>
<path d="M261.62 90.416C261.913 90.6063 262.249 90.7139 262.594 90.7282C263.135 90.7282 263.391 90.4435 263.391 90.0945C263.391 89.7455 263.179 89.5251 262.63 89.3139C261.895 89.0475 261.55 88.6251 261.55 88.12C261.557 87.9402 261.6 87.7639 261.676 87.6023C261.752 87.4406 261.86 87.2971 261.992 87.1806C262.124 87.0642 262.278 86.9773 262.444 86.9256C262.611 86.8739 262.785 86.8584 262.958 86.8801C263.31 86.8763 263.657 86.9647 263.967 87.1373L263.781 87.6975C263.526 87.5409 263.236 87.4585 262.94 87.4587C262.506 87.4587 262.258 87.7159 262.258 88.0281C262.258 88.3404 262.506 88.5424 263.037 88.7445C263.746 89.0292 264.109 89.3965 264.109 90.0302C264.109 90.6639 263.551 91.2976 262.577 91.2976C262.178 91.3035 261.784 91.2023 261.434 91.0037L261.62 90.416Z" fill="white"/>
<path d="M265.791 88.919C265.897 88.7628 266.039 88.5792 266.154 88.4322L267.35 86.972H268.235L266.659 88.7169L268.43 91.2058H267.545L266.172 89.1853L265.791 89.6261V91.2149H265.056V85.0066H265.791V88.919Z" fill="white"/>
<path d="M274.797 91.0222C274.32 91.2245 273.807 91.3215 273.292 91.3069C272.911 91.3307 272.53 91.2693 272.174 91.1267C271.818 90.9841 271.496 90.7637 271.23 90.4805C270.963 90.1973 270.759 89.8579 270.63 89.4855C270.502 89.113 270.452 88.7162 270.485 88.3221C270.462 87.911 270.522 87.4995 270.663 87.1144C270.804 86.7294 271.021 86.3794 271.301 86.0874C271.581 85.7954 271.917 85.5678 272.288 85.4196C272.658 85.2713 273.055 85.2057 273.451 85.2271C273.915 85.2085 274.378 85.2963 274.806 85.4842L274.629 86.1087C274.267 85.94 273.874 85.8553 273.478 85.8608C273.171 85.8442 272.865 85.8969 272.58 86.0153C272.295 86.1338 272.038 86.315 271.828 86.5465C271.617 86.7781 271.458 87.0543 271.36 87.3561C271.263 87.658 271.23 87.9782 271.264 88.2945C271.233 88.6006 271.266 88.9099 271.361 89.2015C271.456 89.4931 271.61 89.76 271.814 89.984C272.017 90.208 272.265 90.3839 272.54 90.4997C272.815 90.6154 273.11 90.6684 273.407 90.6548C273.821 90.6635 274.232 90.5789 274.611 90.4068L274.797 91.0222Z" fill="white"/>
<path d="M279.287 89.0567C279.31 89.3455 279.275 89.6363 279.183 89.91C279.092 90.1838 278.945 90.4345 278.754 90.6458C278.563 90.8572 278.331 91.0244 278.073 91.1367C277.816 91.249 277.538 91.3038 277.259 91.2976C276.989 91.3011 276.721 91.2461 276.472 91.1359C276.224 91.0258 276 90.8631 275.816 90.6582C275.632 90.4533 275.491 90.2107 275.402 89.946C275.314 89.6812 275.28 89.4003 275.302 89.121C275.277 88.8327 275.311 88.5422 275.401 88.2684C275.492 87.9946 275.638 87.7438 275.828 87.5323C276.019 87.3208 276.25 87.1534 276.507 87.041C276.765 86.9286 277.042 86.8738 277.321 86.8801C277.592 86.8739 277.862 86.927 278.112 87.0361C278.362 87.1451 278.587 87.3077 278.772 87.513C278.958 87.7184 279.1 87.9621 279.188 88.228C279.277 88.494 279.31 88.7764 279.287 89.0567ZM276.054 89.0567C276.054 89.9751 276.568 90.6823 277.285 90.6823C278.003 90.6823 278.534 89.9843 278.534 89.0384C278.534 88.322 278.18 87.4128 277.303 87.4128C276.426 87.4128 276.063 88.2669 276.063 89.1027L276.054 89.0567Z" fill="white"/>
<path d="M280.225 88.12C280.225 87.6791 280.225 87.321 280.225 86.972H280.872V87.6516C280.996 87.4125 281.182 87.2138 281.409 87.0776C281.635 86.9414 281.894 86.873 282.156 86.8801C282.409 86.879 282.656 86.9598 282.862 87.1113C283.068 87.2628 283.224 87.4774 283.307 87.7251C283.416 87.5091 283.571 87.3209 283.759 87.174C284.013 86.9742 284.325 86.8705 284.644 86.8801C285.184 86.8801 285.99 87.2475 285.99 88.7169V91.2057H285.264V88.8087C285.264 88.0006 284.972 87.5046 284.378 87.5046C284.179 87.512 283.988 87.5831 283.829 87.708C283.67 87.833 283.553 88.0057 283.493 88.2026C283.453 88.327 283.432 88.4572 283.431 88.5883V91.2057H282.705V88.671C282.705 88.0006 282.421 87.5046 281.819 87.5046C281.614 87.5261 281.42 87.6112 281.262 87.7488C281.104 87.8864 280.99 88.0702 280.934 88.2761C280.897 88.398 280.88 88.525 280.881 88.6526V91.2057H280.154L280.225 88.12Z" fill="white"/>
<path d="M287.256 88.3587C287.256 87.8169 287.256 87.3761 287.256 86.972H287.921V87.6975C288.067 87.4381 288.278 87.2249 288.533 87.0809C288.787 86.9368 289.074 86.8674 289.364 86.8801C289.62 86.8897 289.871 86.9542 290.102 87.0697C290.333 87.1853 290.538 87.3492 290.705 87.5512C290.871 87.7533 290.995 87.9889 291.069 88.2434C291.144 88.4978 291.166 88.7653 291.135 89.0292C291.171 89.3075 291.15 89.5905 291.074 89.8599C290.998 90.1294 290.868 90.3792 290.693 90.5931C290.517 90.807 290.3 90.9803 290.056 91.1017C289.812 91.2231 289.546 91.2898 289.275 91.2976C289.029 91.3099 288.783 91.2554 288.562 91.1395C288.342 91.0235 288.154 90.8502 288.018 90.6364V92.9415H287.292L287.256 88.3587ZM287.983 89.4792C287.973 89.5861 287.973 89.6937 287.983 89.8006C288.041 90.0621 288.183 90.2954 288.386 90.4623C288.588 90.6291 288.84 90.7196 289.098 90.719C289.878 90.719 290.338 90.0486 290.338 89.0843C290.338 88.12 289.904 87.5046 289.125 87.5046C288.815 87.5349 288.526 87.6794 288.309 87.9119C288.093 88.1444 287.965 88.4496 287.947 88.772L287.983 89.4792Z" fill="white"/>
<path d="M292.047 84.9974H292.791V91.2058H292.047V84.9974Z" fill="white"/>
<path d="M294.447 89.2313C294.431 89.4268 294.456 89.6236 294.521 89.808C294.585 89.9925 294.687 90.1603 294.82 90.2999C294.953 90.4396 295.114 90.5477 295.291 90.6169C295.468 90.686 295.657 90.7146 295.846 90.7007C296.235 90.7118 296.621 90.6367 296.979 90.4803L297.103 91.0313C296.675 91.2174 296.213 91.3082 295.749 91.2976C295.481 91.3087 295.214 91.2611 294.966 91.1579C294.717 91.0548 294.492 90.8985 294.306 90.6991C294.12 90.4998 293.976 90.2619 293.884 90.0011C293.793 89.7403 293.755 89.4623 293.774 89.1853C293.743 88.9023 293.769 88.6158 293.851 88.3439C293.933 88.0721 294.069 87.821 294.25 87.6067C294.431 87.3923 294.653 87.2195 294.902 87.0991C295.151 86.9788 295.421 86.9136 295.695 86.9077C295.934 86.9192 296.167 86.9804 296.382 87.0878C296.597 87.1952 296.789 87.3464 296.946 87.5326C297.103 87.7187 297.222 87.9358 297.297 88.1709C297.371 88.406 297.398 88.6542 297.378 88.9006C297.385 89.0199 297.385 89.1395 297.378 89.2588L294.447 89.2313ZM296.625 88.6802C296.647 88.5265 296.636 88.3697 296.595 88.2205C296.553 88.0713 296.481 87.9329 296.384 87.8147C296.287 87.6965 296.166 87.6012 296.031 87.5351C295.895 87.4689 295.748 87.4335 295.598 87.4312C295.292 87.4541 295.005 87.5949 294.793 87.826C294.582 88.0571 294.462 88.3617 294.456 88.6802H296.625Z" fill="white"/>
<path d="M299.158 85.7598V86.972H300.221V87.5598H299.158V89.8374C299.158 90.3701 299.3 90.664 299.707 90.664C299.853 90.6659 299.999 90.6474 300.141 90.6089V91.1875C299.928 91.2679 299.703 91.3053 299.477 91.2977C299.329 91.3061 299.181 91.2808 299.043 91.2237C298.905 91.1666 298.781 91.079 298.68 90.9671C298.453 90.6507 298.352 90.2564 298.396 89.865V87.5598H297.759V86.972H298.396V85.9618L299.158 85.7598Z" fill="white"/>
<path d="M301.416 89.2312C301.4 89.4268 301.425 89.6235 301.49 89.808C301.554 89.9925 301.656 90.1603 301.789 90.2999C301.922 90.4395 302.083 90.5477 302.26 90.6168C302.437 90.686 302.626 90.7146 302.815 90.7007C303.201 90.7128 303.585 90.6376 303.94 90.4802L304.073 91.0313C303.641 91.2171 303.176 91.3078 302.709 91.2976C302.436 91.3147 302.164 91.2704 301.909 91.168C301.655 91.0656 301.425 90.9074 301.235 90.7042C301.044 90.501 300.899 90.2576 300.808 89.9907C300.717 89.7238 300.683 89.4397 300.708 89.1578C300.677 88.8755 300.703 88.5897 300.784 88.3185C300.866 88.0473 301.001 87.7966 301.181 87.5824C301.361 87.3682 301.581 87.1952 301.829 87.0743C302.077 86.9534 302.346 86.8872 302.62 86.8801C302.859 86.8916 303.092 86.9528 303.307 87.0602C303.522 87.1676 303.714 87.3189 303.871 87.505C304.028 87.6911 304.147 87.9082 304.221 88.1433C304.296 88.3784 304.323 88.6266 304.303 88.8731C304.31 88.9923 304.31 89.112 304.303 89.2312H301.416ZM303.586 88.6802C303.607 88.5264 303.597 88.3697 303.555 88.2205C303.513 88.0712 303.442 87.9329 303.344 87.8147C303.247 87.6965 303.127 87.6012 302.991 87.535C302.856 87.4689 302.708 87.4335 302.558 87.4312C302.253 87.4542 301.967 87.5953 301.757 87.8266C301.547 88.0579 301.428 88.3626 301.425 88.6802H303.586Z" fill="white"/>
<path d="M308.748 84.9975V90.1037C308.748 90.4803 308.748 90.9119 308.748 91.1966H308.075V90.4619C307.941 90.7208 307.74 90.9354 307.494 91.0816C307.248 91.2277 306.968 91.2994 306.685 91.2885C306.429 91.2789 306.177 91.2144 305.947 91.0989C305.716 90.9833 305.511 90.8194 305.344 90.6174C305.178 90.4153 305.054 90.1797 304.979 89.9253C304.905 89.6708 304.883 89.4032 304.914 89.1394C304.881 88.8646 304.902 88.5855 304.977 88.3197C305.053 88.0539 305.18 87.807 305.351 87.5942C305.522 87.3815 305.733 87.2075 305.972 87.0831C306.211 86.9587 306.471 86.8865 306.738 86.871C306.98 86.8551 307.221 86.9063 307.438 87.0193C307.654 87.1323 307.837 87.303 307.969 87.5139V84.9883L308.748 84.9975ZM308.004 88.671C308.018 88.5644 308.018 88.4563 308.004 88.3496C307.957 88.091 307.824 87.8578 307.628 87.6901C307.433 87.5224 307.187 87.4308 306.933 87.4312C306.171 87.4312 305.711 88.1384 305.711 89.066C305.711 89.9935 306.118 90.6364 306.915 90.6364C307.171 90.6375 307.419 90.5466 307.618 90.3792C307.817 90.2117 307.953 89.9781 308.004 89.718C308.018 89.6083 308.018 89.4971 308.004 89.3874V88.671Z" fill="white"/>
<path d="M375.721 85.9618H373.95V85.3097H378.156V85.9618H376.385V91.2058H375.641L375.721 85.9618Z" fill="white"/>
<path d="M380.556 91.2059L380.494 90.6732C380.348 90.8723 380.159 91.0327 379.942 91.1413C379.725 91.2499 379.486 91.3035 379.245 91.2977C379.085 91.3104 378.923 91.2885 378.772 91.2331C378.62 91.1778 378.481 91.0904 378.364 90.9764C378.246 90.8624 378.153 90.7243 378.09 90.5709C378.026 90.4176 377.995 90.2522 377.996 90.0854C377.996 89.066 378.882 88.5058 380.449 88.515V88.4231C380.465 88.2961 380.454 88.1669 380.416 88.045C380.378 87.9231 380.314 87.8114 380.23 87.7182C380.145 87.625 380.041 87.5526 379.926 87.5061C379.811 87.4596 379.687 87.4404 379.564 87.4496C379.189 87.4493 378.821 87.5574 378.501 87.7619L378.333 87.2568C378.735 87.0029 379.199 86.8724 379.67 86.8802C380.919 86.8802 381.22 87.7986 381.22 88.6068V90.1956C381.214 90.5339 381.238 90.872 381.291 91.2059H380.556ZM380.441 89.0476C379.635 89.0476 378.714 89.1762 378.714 89.966C378.706 90.0638 378.718 90.1622 378.751 90.2544C378.783 90.3467 378.834 90.4306 378.9 90.5004C378.967 90.5702 379.047 90.6242 379.136 90.6588C379.224 90.6934 379.319 90.7077 379.413 90.7007C379.628 90.7069 379.84 90.6416 380.017 90.5144C380.193 90.3872 380.326 90.2047 380.396 89.9936C380.408 89.9114 380.408 89.8278 380.396 89.7456L380.441 89.0476Z" fill="white"/>
<path d="M382.229 90.416C382.521 90.6079 382.858 90.7157 383.203 90.7282C383.743 90.7282 384 90.4435 384 90.0945C384 89.7455 383.788 89.5251 383.239 89.3139C382.504 89.0475 382.158 88.6251 382.158 88.12C382.166 87.9402 382.209 87.7639 382.285 87.6023C382.361 87.4406 382.469 87.2971 382.601 87.1806C382.733 87.0642 382.887 86.9773 383.053 86.9256C383.22 86.8739 383.394 86.8584 383.566 86.8801C383.918 86.8763 384.266 86.9647 384.576 87.1373L384.39 87.6975C384.135 87.5426 383.844 87.4602 383.549 87.4587C383.115 87.4587 382.867 87.7159 382.867 88.0281C382.867 88.3404 383.115 88.5424 383.646 88.7445C384.355 89.0292 384.718 89.3965 384.718 90.0302C384.718 90.6639 384.16 91.2976 383.186 91.2976C382.787 91.3035 382.393 91.2023 382.043 91.0037L382.229 90.416Z" fill="white"/>
<path d="M386.4 88.919C386.498 88.7628 386.648 88.5792 386.763 88.4322L387.959 86.972H388.844L387.268 88.7169L389.039 91.2058H388.153L386.754 89.1853L386.374 89.6261V91.2149H385.639V85.0066H386.374L386.4 88.919Z" fill="white"/>
<path d="M395.406 91.0222C394.929 91.2245 394.416 91.3215 393.901 91.3069C393.52 91.3307 393.139 91.2693 392.783 91.1267C392.427 90.9841 392.105 90.7637 391.839 90.4805C391.572 90.1973 391.368 89.8579 391.239 89.4855C391.111 89.113 391.061 88.7162 391.093 88.3221C391.07 87.911 391.131 87.4995 391.272 87.1144C391.413 86.7294 391.63 86.3794 391.91 86.0874C392.19 85.7954 392.526 85.5678 392.897 85.4196C393.267 85.2713 393.663 85.2057 394.06 85.2271C394.524 85.2085 394.987 85.2963 395.415 85.4842L395.238 86.1087C394.876 85.94 394.483 85.8553 394.087 85.8608C393.78 85.8442 393.474 85.8969 393.189 86.0153C392.904 86.1338 392.647 86.315 392.437 86.5465C392.226 86.7781 392.067 87.0543 391.969 87.3561C391.872 87.658 391.839 87.9782 391.873 88.2945C391.84 88.6045 391.873 88.9182 391.969 89.2137C392.065 89.5091 392.223 89.7792 392.43 90.0049C392.638 90.2306 392.89 90.4065 393.17 90.5204C393.45 90.6342 393.751 90.6833 394.051 90.664C394.465 90.6727 394.876 90.5881 395.255 90.416L395.406 91.0222Z" fill="white"/>
<path d="M396.3 84.9974H397.035V91.2058H396.3V84.9974Z" fill="white"/>
<path d="M401.977 89.0567C402 89.3455 401.965 89.6363 401.873 89.91C401.782 90.1838 401.635 90.4345 401.444 90.6458C401.253 90.8572 401.021 91.0244 400.763 91.1367C400.506 91.249 400.228 91.3038 399.949 91.2976C399.679 91.3011 399.411 91.2461 399.162 91.1359C398.914 91.0258 398.69 90.8631 398.506 90.6582C398.322 90.4533 398.181 90.2107 398.092 89.946C398.004 89.6812 397.969 89.4003 397.992 89.121C397.967 88.8327 398.001 88.5422 398.091 88.2684C398.182 87.9946 398.327 87.7438 398.518 87.5323C398.709 87.3208 398.94 87.1534 399.197 87.041C399.454 86.9286 399.732 86.8738 400.011 86.8801C400.282 86.8739 400.551 86.927 400.802 87.0361C401.052 87.1451 401.277 87.3077 401.462 87.513C401.648 87.7184 401.79 87.9621 401.878 88.228C401.967 88.494 402 88.7764 401.977 89.0567ZM398.744 89.0567C398.744 89.9751 399.258 90.6823 399.984 90.6823C400.71 90.6823 401.215 89.9843 401.215 89.0384C401.215 88.322 400.87 87.4128 399.993 87.4128C399.116 87.4128 398.744 88.2669 398.744 89.1027V89.0567Z" fill="white"/>
<path d="M402.809 90.4159C403.104 90.6078 403.444 90.7155 403.792 90.7282C404.332 90.7282 404.58 90.4435 404.58 90.0945C404.58 89.7455 404.368 89.5251 403.827 89.3139C403.092 89.0475 402.747 88.6251 402.747 88.12C402.754 87.9402 402.797 87.7639 402.874 87.6023C402.95 87.4406 403.057 87.2971 403.189 87.1806C403.322 87.0642 403.476 86.9773 403.642 86.9256C403.808 86.8739 403.983 86.8584 404.155 86.8801C404.504 86.8774 404.848 86.9659 405.156 87.1373L404.97 87.6975C404.718 87.5408 404.431 87.4583 404.137 87.4587C403.695 87.4587 403.455 87.7159 403.455 88.0281C403.455 88.3404 403.695 88.5424 404.226 88.7445C404.934 89.0292 405.297 89.3965 405.297 90.0302C405.297 90.6639 404.739 91.2976 403.774 91.2976C403.373 91.303 402.976 91.2019 402.623 91.0037L402.809 90.4159Z" fill="white"/>
<path d="M406.661 89.2312C406.645 89.4268 406.67 89.6235 406.735 89.808C406.799 89.9925 406.902 90.1603 407.034 90.2999C407.167 90.4396 407.328 90.5477 407.505 90.6168C407.682 90.686 407.871 90.7146 408.06 90.7007C408.449 90.7118 408.835 90.6367 409.194 90.4803L409.318 91.0313C408.889 91.2174 408.427 91.3082 407.963 91.2976C407.69 91.3145 407.417 91.2702 407.162 91.1679C406.907 91.0655 406.677 90.9075 406.486 90.7045C406.295 90.5014 406.149 90.2582 406.057 89.9913C405.965 89.7245 405.929 89.4402 405.953 89.1578C405.922 88.8755 405.948 88.5897 406.029 88.3185C406.111 88.0473 406.246 87.7966 406.426 87.5824C406.606 87.3682 406.826 87.1952 407.074 87.0743C407.322 86.9534 407.592 86.8872 407.865 86.8801C408.104 86.8904 408.339 86.9507 408.555 87.0576C408.771 87.1644 408.964 87.3155 409.122 87.5018C409.28 87.688 409.4 87.9055 409.474 88.1412C409.549 88.3769 409.577 88.6259 409.557 88.8731C409.564 88.9923 409.564 89.112 409.557 89.2312H406.661ZM408.839 88.6802C408.861 88.5264 408.85 88.3697 408.809 88.2205C408.767 88.0712 408.695 87.9329 408.598 87.8147C408.501 87.6965 408.381 87.6012 408.245 87.535C408.11 87.4689 407.962 87.4335 407.812 87.4312C407.506 87.454 407.219 87.5948 407.007 87.8259C406.796 88.057 406.676 88.3617 406.67 88.6802H408.839Z" fill="white"/>
<path d="M413.993 84.9975V90.1037C413.993 90.4803 413.993 90.9119 413.993 91.1966H413.329V90.4619C413.196 90.7215 412.995 90.9368 412.749 91.083C412.503 91.2292 412.222 91.3005 411.939 91.2885C411.683 91.2776 411.432 91.2121 411.202 91.0962C410.972 90.9802 410.768 90.8162 410.601 90.6145C410.435 90.4128 410.311 90.1777 410.236 89.9239C410.161 89.6701 410.138 89.403 410.168 89.1394C410.134 88.8638 410.156 88.5841 410.232 88.3177C410.308 88.0513 410.436 87.8039 410.608 87.591C410.78 87.3781 410.992 87.2043 411.232 87.0804C411.471 86.9566 411.733 86.8853 412.001 86.871C412.242 86.8561 412.483 86.9077 412.7 87.0206C412.916 87.1335 413.099 87.3037 413.232 87.5139V84.9883L413.993 84.9975ZM413.258 88.671C413.272 88.5644 413.272 88.4563 413.258 88.3496C413.211 88.091 413.078 87.8578 412.882 87.6901C412.686 87.5224 412.44 87.4308 412.187 87.4312C411.416 87.4312 410.965 88.1384 410.965 89.066C410.965 89.9935 411.372 90.6364 412.169 90.6364C412.424 90.6358 412.672 90.5443 412.87 90.3771C413.068 90.21 413.205 89.9773 413.258 89.718C413.272 89.6083 413.272 89.4972 413.258 89.3874V88.671Z" fill="white"/>
<path d="M355.911 237.534L361.039 326.434L370.39 327.858L374.658 260.356L378.519 327.702L387.782 328.014C387.782 328.014 392.068 260.007 391.129 255.011C390.19 250.015 391.129 234.136 391.129 234.136L355.911 237.534Z" fill="#606161"/>
<path d="M354.45 228.901C349.925 226.054 345.542 213.977 347.49 211.047C349.837 207.53 353.335 183.137 356.425 180.336C359.515 177.535 363.43 175.524 367.503 175.68C372.303 175.863 377.616 173.531 382.096 175.423C384.62 176.488 386.728 178.426 388.773 180.336C391.988 183.321 394.494 233.603 390.89 239.113C386.276 246.102 376.783 246.332 368.752 245.854C365.98 245.689 363.093 245.487 360.667 244.018C354.557 240.353 353.795 236.303 354.45 228.901Z" fill="#6EC7EB"/>
<path d="M354.99 158.708C354.624 161.282 355.131 163.908 356.425 166.138C358.152 168.893 361.428 170.61 362.013 173.788C362.287 175.239 361.924 176.745 362.013 178.224C362.101 179.702 362.898 181.355 364.359 181.493C364.873 181.519 365.383 181.402 365.838 181.153C367.426 180.2 368.701 178.773 369.495 177.057C372.152 172.236 373.87 166.588 373.038 161.077C372.205 155.567 368.459 150.35 363.244 149.01C356.815 147.357 355.557 153.473 354.99 158.708Z" fill="url(#paint18_linear)"/>
<path d="M355.539 148.881C356.274 151.59 358.479 153.62 360.808 155.071C361.982 155.695 363.082 156.46 364.085 157.349C367.166 160.48 366.414 165.66 366.387 170.124C366.387 173.292 366.883 176.607 368.707 179.142C371.833 183.495 377.713 184.331 382.938 184.478C383.499 184.555 384.07 184.436 384.558 184.138C384.941 183.787 385.19 183.305 385.258 182.779C386.285 177.792 381.76 173.136 382.132 168.085C382.335 165.21 384.089 162.694 384.656 159.874C385.479 155.787 383.708 151.526 381.113 148.348C380.069 146.98 378.732 145.883 377.208 145.143C374.472 143.958 371.258 144.629 368.486 143.536C366.874 142.911 365.519 141.699 363.925 141.047C359.524 139.21 354.291 144.289 355.539 148.881Z" fill="#606161"/>
<path d="M335.695 207.19C335.034 206.83 334.272 206.723 333.543 206.887C333.138 207.063 332.778 207.333 332.489 207.677C331.003 209.255 329.84 211.13 329.071 213.187C328.621 214.153 328.518 215.253 328.779 216.291C329.311 217.37 330.187 218.223 331.258 218.707C338.422 222.977 347.003 229.075 355.221 228.239C355.796 228.184 355.601 226.403 356.026 226.008C356.496 225.437 356.75 224.71 356.744 223.96C357.109 221.255 357.183 218.517 356.965 215.795C356.744 213.053 355.643 210.466 353.839 208.448C353.138 207.625 352.171 207.096 351.121 206.96C349.527 206.868 349.642 208.127 348.694 208.714C347.525 209.44 345.781 209.431 344.453 209.394C341.434 209.177 338.473 208.432 335.695 207.19Z" fill="#6EC7EB"/>
<path opacity="0.26" d="M364.28 201.229C364.28 201.229 361.623 223.271 354.45 228.864C354.45 228.864 351.988 242.484 363.306 244.826C366.065 245.786 368.996 246.099 371.886 245.744C371.886 245.744 360.879 249.206 362.96 226.311C365.041 203.415 364.28 201.229 364.28 201.229Z" fill="url(#paint19_linear)"/>
<path d="M348.677 184.056L343.514 190.705L342.761 193.001L344.789 191.678L351.253 183.027C351.218 182.838 351.126 182.666 350.991 182.534C350.856 182.402 350.685 182.318 350.501 182.292C349.89 182.246 348.677 184.056 348.677 184.056Z" fill="#606161"/>
<path d="M343.806 187.242C343.346 187.484 342.923 187.793 342.549 188.161C341.841 188.783 341.293 189.579 340.955 190.475C340.757 191.172 340.694 191.902 340.769 192.624C340.769 193.083 340.928 193.625 341.353 193.772C341.511 193.809 341.676 193.802 341.831 193.754C341.986 193.706 342.126 193.617 342.239 193.497C342.886 192.735 343.382 191.849 343.7 190.888C344.293 189.695 345.294 188.84 345.976 187.729C346.852 186.333 344.497 186.875 343.806 187.242Z" fill="url(#paint20_linear)"/>
<path d="M348.048 189.75C348.305 190.236 348.482 190.769 348.739 191.256C349.488 192.512 350.494 193.581 351.687 194.387C351.783 194.447 351.865 194.529 351.926 194.626C352.004 194.782 352.019 194.963 351.971 195.131C351.899 195.449 351.792 195.757 351.652 196.05L350.678 198.346C350.671 198.372 350.659 198.396 350.642 198.417C350.625 198.437 350.604 198.454 350.58 198.465C350.532 198.483 350.479 198.483 350.43 198.465L347.056 197.143C346.558 196.956 346.073 196.735 345.604 196.481C344.67 195.952 343.897 195.163 343.372 194.204C343.218 193.996 343.123 193.747 343.098 193.486C343.073 193.224 343.119 192.961 343.231 192.725C343.532 192.294 344.116 192.275 344.541 191.917C344.664 191.796 344.768 191.657 344.851 191.504C345.365 190.696 345.834 189.805 346.41 189.042C346.985 188.28 347.694 189.061 348.048 189.75Z" fill="url(#paint21_linear)"/>
<path d="M354.326 332.56C354.17 332.701 354.043 332.872 353.951 333.064C353.86 333.257 353.807 333.466 353.795 333.68C353.845 333.994 353.999 334.279 354.229 334.489C355.055 335.186 356.07 335.6 357.133 335.673C360.575 336.209 364.086 336.009 367.45 335.086C368.294 334.927 369.074 334.511 369.69 333.892C370.3 332.959 370.581 331.837 370.487 330.714L370.593 326.848C370.629 326.538 370.596 326.223 370.496 325.929C370.213 325.222 369.336 325.011 368.601 325.011C366.833 324.871 365.059 324.837 363.288 324.91C362.659 324.91 361.853 324.809 361.357 325.222C360.861 325.635 360.684 326.434 360.357 326.866C358.657 329.134 356.168 330.503 354.326 332.56Z" fill="#606161"/>
<path d="M372.046 332.606C371.893 332.74 371.768 332.905 371.68 333.092C371.591 333.278 371.541 333.482 371.532 333.69C371.575 333.991 371.723 334.266 371.948 334.461C372.745 335.14 373.726 335.545 374.755 335.618C378.079 336.133 381.469 335.939 384.718 335.049C385.535 334.893 386.289 334.49 386.887 333.892C387.474 332.99 387.746 331.908 387.658 330.824L387.764 327.086C387.79 326.798 387.757 326.507 387.666 326.232C387.392 325.543 386.551 325.378 385.842 325.314C384.133 325.184 382.419 325.15 380.706 325.213C380.104 325.213 379.325 325.13 378.847 325.525C378.368 325.92 378.191 326.691 377.872 327.114C376.225 329.263 373.826 330.595 372.046 332.606Z" fill="#606161"/>
<defs>
<linearGradient id="paint0_linear" x1="220.16" y1="209.155" x2="258.81" y2="468.701" gradientUnits="userSpaceOnUse">
<stop stop-color="#010101" stop-opacity="0"/>
<stop offset="0.95" stop-color="#010101"/>
</linearGradient>
<linearGradient id="paint1_linear" x1="234.55" y1="-101.914" x2="220.483" y2="297.7" gradientUnits="userSpaceOnUse">
<stop stop-color="white" stop-opacity="0"/>
<stop offset="0.95" stop-color="white"/>
</linearGradient>
<linearGradient id="paint2_linear" x1="18441" y1="26041.5" x2="31503" y2="28515.1" gradientUnits="userSpaceOnUse">
<stop stop-color="#010101" stop-opacity="0"/>
<stop offset="0.95" stop-color="#010101"/>
</linearGradient>
<linearGradient id="paint3_linear" x1="12864.1" y1="6014.74" x2="12785.9" y2="8228.33" gradientUnits="userSpaceOnUse">
<stop stop-color="white" stop-opacity="0"/>
<stop offset="0.95" stop-color="white"/>
</linearGradient>
<linearGradient id="paint4_linear" x1="324.422" y1="204.251" x2="334.074" y2="204.251" gradientUnits="userSpaceOnUse">
<stop stop-color="#E5C6D6"/>
<stop offset="0.42" stop-color="#EAD4D0"/>
<stop offset="1" stop-color="#F0E9CB"/>
</linearGradient>
<linearGradient id="paint5_linear" x1="31892.6" y1="1221.33" x2="31896.8" y2="3035.33" gradientUnits="userSpaceOnUse">
<stop stop-color="#010101" stop-opacity="0"/>
<stop offset="0.95" stop-color="#010101"/>
</linearGradient>
<linearGradient id="paint6_linear" x1="44328" y1="706.779" x2="44332.2" y2="2520.77" gradientUnits="userSpaceOnUse">
<stop stop-color="#010101" stop-opacity="0"/>
<stop offset="0.95" stop-color="#010101"/>
</linearGradient>
<linearGradient id="paint7_linear" x1="1709.89" y1="1040.53" x2="1768.97" y2="2365.66" gradientUnits="userSpaceOnUse">
<stop stop-color="#010101" stop-opacity="0"/>
<stop offset="0.95" stop-color="#010101"/>
</linearGradient>
<linearGradient id="paint8_linear" x1="1701.29" y1="1057.89" x2="1760.48" y2="2383.13" gradientUnits="userSpaceOnUse">
<stop stop-color="#010101" stop-opacity="0"/>
<stop offset="0.95" stop-color="#010101"/>
</linearGradient>
<linearGradient id="paint9_linear" x1="3170.77" y1="1027.74" x2="3229.85" y2="2352.88" gradientUnits="userSpaceOnUse">
<stop stop-color="#010101" stop-opacity="0"/>
<stop offset="0.95" stop-color="#010101"/>
</linearGradient>
<linearGradient id="paint10_linear" x1="4633.31" y1="1027.74" x2="4692.38" y2="2352.88" gradientUnits="userSpaceOnUse">
<stop stop-color="#010101" stop-opacity="0"/>
<stop offset="0.95" stop-color="#010101"/>
</linearGradient>
<linearGradient id="paint11_linear" x1="3170.77" y1="1331" x2="3229.85" y2="2656.24" gradientUnits="userSpaceOnUse">
<stop stop-color="#010101" stop-opacity="0"/>
<stop offset="0.95" stop-color="#010101"/>
</linearGradient>
<linearGradient id="paint12_linear" x1="3170.77" y1="1634.38" x2="3229.85" y2="2959.51" gradientUnits="userSpaceOnUse">
<stop stop-color="#010101" stop-opacity="0"/>
<stop offset="0.95" stop-color="#010101"/>
</linearGradient>
<linearGradient id="paint13_linear" x1="1701.29" y1="1520.68" x2="1760.48" y2="2845.81" gradientUnits="userSpaceOnUse">
<stop stop-color="#010101" stop-opacity="0"/>
<stop offset="0.95" stop-color="#010101"/>
</linearGradient>
<linearGradient id="paint14_linear" x1="1701.29" y1="1716.05" x2="1760.48" y2="3041.19" gradientUnits="userSpaceOnUse">
<stop stop-color="#010101" stop-opacity="0"/>
<stop offset="0.95" stop-color="#010101"/>
</linearGradient>
<linearGradient id="paint15_linear" x1="1701.29" y1="1911.42" x2="1760.48" y2="3236.55" gradientUnits="userSpaceOnUse">
<stop stop-color="#010101" stop-opacity="0"/>
<stop offset="0.95" stop-color="#010101"/>
</linearGradient>
<linearGradient id="paint16_linear" x1="1701.29" y1="2266.23" x2="1760.49" y2="3591.37" gradientUnits="userSpaceOnUse">
<stop stop-color="#010101" stop-opacity="0"/>
<stop offset="0.95" stop-color="#010101"/>
</linearGradient>
<linearGradient id="paint17_linear" x1="1701.29" y1="2609.42" x2="1760.48" y2="3934.56" gradientUnits="userSpaceOnUse">
<stop stop-color="#010101" stop-opacity="0"/>
<stop offset="0.95" stop-color="#010101"/>
</linearGradient>
<linearGradient id="paint18_linear" x1="8484.18" y1="6652.21" x2="8858.59" y2="6621.38" gradientUnits="userSpaceOnUse">
<stop stop-color="#E5C6D6"/>
<stop offset="0.42" stop-color="#EAD4D0"/>
<stop offset="1" stop-color="#F0E9CB"/>
</linearGradient>
<linearGradient id="paint19_linear" x1="7971.28" y1="12661.7" x2="6651.22" y2="12075.2" gradientUnits="userSpaceOnUse">
<stop stop-color="#010101" stop-opacity="0"/>
<stop offset="0.95" stop-color="#010101"/>
</linearGradient>
<linearGradient id="paint20_linear" x1="2464.36" y1="1756.31" x2="2497.6" y2="1756.31" gradientUnits="userSpaceOnUse">
<stop stop-color="#E5C6D6"/>
<stop offset="0.42" stop-color="#EAD4D0"/>
<stop offset="1" stop-color="#F0E9CB"/>
</linearGradient>
<linearGradient id="paint21_linear" x1="3849.8" y1="2418.08" x2="3939.49" y2="2418.08" gradientUnits="userSpaceOnUse">
<stop stop-color="#E5C6D6"/>
<stop offset="0.42" stop-color="#EAD4D0"/>
<stop offset="1" stop-color="#F0E9CB"/>
</linearGradient>
</defs>
</svg>
